<svg xmlns="http://www.w3.org/2000/svg" xmlns:xlink="http://www.w3.org/1999/xlink" width="1920" height="1970" viewBox="0 0 1920 1970">
  <defs>
    <clipPath id="clip-소개_1">
      <rect width="1920" height="1970"/>
    </clipPath>
  </defs>
  <g id="소개_1" data-name="소개 – 1" clip-path="url(#clip-소개_1)">
    <g id="그룹_157" transform="translate(-234.6 -144.1)">
      <path id="합치기_3" d="M506.3,1857.6a83.7,83.7,0,1,1,0-167.4h89.5a148.144,148.144,0,0,1-5.7-40.7c0-82.1,66.6-148.6,148.8-148.6a148.658,148.658,0,0,1,57.7,11.6,169.914,169.914,0,0,1,303.2,30.6c3.1-.2,6.3-.3,9.5-.3,81.8,0,148.2,66,148.8,147.5h61.8a83.734,83.734,0,0,1,83.7,83.7h0a83.734,83.734,0,0,1-83.7,83.7H506.3Z" fill="#4798b3"/>
      <g id="레이어_2_2_" transform="translate(-86.659 1043.694)">
        <g id="레이어_3_이미지_1_">
          <path id="패스_1" d="M420.7,710.6a90.365,90.365,0,0,0-22.2,15" fill="#b95e4b"/>
          <circle id="타원_2" cx="10.8" cy="10.8" r="10.8" transform="translate(716 596.9)" fill="#b95e4b"/>
          <circle id="타원_3" cx="10.8" cy="10.8" r="10.8" transform="translate(762.4 596.9)" fill="#b95e4b"/>
          <path id="패스_2" d="M1083.5,705.5h-73.1a56.118,56.118,0,0,0,.9-9.1,50.889,50.889,0,0,0-21.7-41.7,49.677,49.677,0,0,0-46.3-5.5c0-1.2.2-2.3.2-3.5a50.548,50.548,0,0,0-28-45.4,49.7,49.7,0,0,0-52.7,5.5,139.788,139.788,0,0,0,2-119.7h0a135.553,135.553,0,0,0-14.3-24.4c-61.6-113.9-17.6-174-17.6-174-72,33.5-99,88.1-99,88.1-2.7-146.8-180-231.2-180-231.2,42,77.9-18.2,150.2-65.4,206.1-49.4,58.9-86.4,134.3-79.8,213.2h.3a208.058,208.058,0,0,0,14.2,65.2,223.535,223.535,0,0,0-4.2,43.2v2H292a25.68,25.68,0,0,0,0,51.3H398.5a97.348,97.348,0,0,0-28.8,92.1H269.2a37.953,37.953,0,0,0,0,75.9H776.5a37.622,37.622,0,0,0,35.9-26.9,38.3,38.3,0,0,0-15-42.6,219.747,219.747,0,0,0,24.5-31.5,71.434,71.434,0,0,0,70.2,10.5,72.511,72.511,0,0,0,45-55.5h146.5a21.073,21.073,0,0,0-.1-42.1Z" fill="#b95e4b"/>
          <path id="패스_3" d="M776.6,545.1C696.1,467.3,567.8,469.5,490,550a202.623,202.623,0,0,0-54,175.1,88.582,88.582,0,0,1,90.1,8.5,105.94,105.94,0,1,1,197,78,103.543,103.543,0,0,1-6,12.6H764a34.818,34.818,0,0,1,19.3,5.9A202.676,202.676,0,0,0,810,587.2" fill="#b95e4b"/>
          <path id="패스_4" d="M780.2,830a35.065,35.065,0,0,0-19.3-5.9H714A105.919,105.919,0,0,0,529,720.9a103.543,103.543,0,0,0-6,12.6,88.582,88.582,0,0,0-90.1-8.5" fill="#b95e4b"/>
          <path id="패스_5" d="M639.4,796.2s22.1,1.2,22.1-30.5c0-26.2-27.4-38.9-49-30.5-23.6,9.3-31.6,32.6-30.8,56.7,2,62.8,98.1,87.6,137.1,33.5" fill="#b95e4b"/>
        </g>
      </g>
      <g id="레이어_2_1_">
        <g id="레이어_3_이미지">
          <path id="패스_483" data-name="패스 483" d="M349.4,1734.4a94.79,94.79,0,0,0-24.2,16.4" fill="none" stroke="#000" stroke-linecap="round" stroke-linejoin="round" stroke-width="8"/>
          <circle id="타원_50" data-name="타원 50" cx="7.3" cy="7.3" r="7.3" transform="translate(654.3 1609.1)"/>
          <circle id="타원_51" data-name="타원 51" cx="7.3" cy="7.3" r="7.3" transform="translate(697.3 1609.1)"/>
          <path id="패스_484" data-name="패스 484" d="M1017,1730.3H943.2a55.033,55.033,0,0,0,.9-9.1,50.637,50.637,0,0,0-50.5-50.6,49.387,49.387,0,0,0-18.2,3.4c0-1.2.2-2.3.2-3.5a50.458,50.458,0,0,0-81.4-39.9,138.177,138.177,0,0,0,2-119.6h0a141.349,141.349,0,0,0-14.4-24.3c-62.2-113.8-17.8-173.8-17.8-173.8-72.7,33.5-99.9,88-99.9,88-2.6-146.5-181.5-230.8-181.5-230.8,42.4,77.8-18.3,150-66,205.9-49.9,58.8-87.2,134.1-80.6,212.9h.3a204.833,204.833,0,0,0,14.3,65.1,231.782,231.782,0,0,0-4.3,43.2v2H218a25.616,25.616,0,0,0,0,51.2H325.5a96.474,96.474,0,0,0-31.4,71.2,91.463,91.463,0,0,0,2.3,20.8H194.9a37.9,37.9,0,0,0,0,75.8H707a37.911,37.911,0,0,0,21.1-69.4,214.163,214.163,0,0,0,24.7-31.5A72.52,72.52,0,0,0,869,1772.4h148a21.067,21.067,0,0,0,0-42.1Z" fill="none" stroke="#000" stroke-linecap="round" stroke-linejoin="round" stroke-width="8"/>
          <path id="패스_485" data-name="패스 485" d="M720.8,1538.2c-87.8-84.8-227.7-82.5-312.5,5.3a220.983,220.983,0,0,0-58.9,190.9,96.865,96.865,0,0,1,98.3,9.2A115.5,115.5,0,1,1,656,1842.3h51a37.923,37.923,0,0,1,21.1,6.4,221.079,221.079,0,0,0,29.1-264.9" fill="none" stroke="#000" stroke-linecap="round" stroke-linejoin="round" stroke-width="8"/>
          <path id="패스_486" data-name="패스 486" d="M728.1,1848.8a37.685,37.685,0,0,0-21.1-6.4H655.9a115.544,115.544,0,0,0-201.8-112.6,100.86,100.86,0,0,0-6.5,13.7,96.635,96.635,0,0,0-98.3-9.2" fill="none" stroke="#000" stroke-linecap="round" stroke-linejoin="round" stroke-width="8"/>
          <path id="패스_487" data-name="패스 487" d="M568,1812s24.1,1.3,24.1-33.2c0-28.6-29.9-42.4-53.4-33.2-25.8,10.1-34.4,35.5-33.6,61.8,2.2,68.5,106.9,95.5,149.5,36.5" fill="none" stroke="#000" stroke-linecap="round" stroke-linejoin="round" stroke-width="8"/>
        </g>
      </g>
      <path id="합치기_2" d="M376.9,1837.9a67.556,67.556,0,0,1,91.1,80.7h40.6a38,38,0,0,1,0,76h-369a38,38,0,0,1,0-76h28a67.5,67.5,0,0,1,67.5-67c1.4,0,2.9,0,4.3.1a76.923,76.923,0,0,1,137.5-13.8Z" fill="#4798b3"/>
    </g>
    <g id="미아" transform="translate(984 220)">
      <g id="_魅" data-name=" 魅" transform="translate(0 270.78)" opacity="0.53">
        <g id="그룹_158" data-name="그룹 158">
          <path id="패스_471" data-name="패스 471" d="M510.13,733.68a121.4,121.4,0,0,0,35.4,15.87Q559,753.23,559,761a54.453,54.453,0,0,1-.73,7.57q-6.35,44.92-30.52,62Q511.84,842.33,475,846q-29.55,3.16-91.8,3.17-73.74,0-98.63-1.71t-36.38-6.83q-27.1-10-27.1-52.49V643.6h-21Q199.58,722,178.83,773q-15.14,37.11-47.36,73.24-6.34,8.06-10.5,8.06-3.42,0-6.34-7.57-7.34-21.24-20.51-32.47,33.69-32.71,47.12-66.41,16.11-40.27,16.84-104.24-14.4.24-26.36.73l-8.55.24c-2.77,0-4.39-.32-4.88-1s-.73-2.2-.73-4.64l1-48.83V503.7l-1-49.07c0-2.6.32-4.15,1-4.64s2.2-.73,4.64-.73l55.91,1h1q4.4-9.28,10-27.1a118,118,0,0,0,5.85-28.08A342.766,342.766,0,0,1,243,401.17q6.6,1.45,6.6,4.88a8.93,8.93,0,0,1-4.15,7.57,30.21,30.21,0,0,0-6.84,11.47q-1.47,3.18-6.35,14.16c-2.12,4.56-3.9,8.22-5.37,11h26.12l55.42-1c2.77,0,4.4.33,4.89,1s.73,2.11.73,4.39l-1,49.07v86.43l1,48.83c0,2.77-.33,4.39-1,4.88s-2.19.73-4.64.73l-13.91-.24q-14.42-.5-31.5-.73V777.14q0,13.18,3.18,18.07,2.19,3.66,8.3,5.37,17.08,6.1,107.66,6.1,94.49,0,112.31-14.4,8.53-7.56,12-23.68Q508.92,757.13,510.13,733.68ZM159.06,526.17H195V487.1H159.06Zm0,81.05H195V562.79H159.06ZM272.58,487.1H235v39.07h37.59Zm0,120.12V562.79H235v44.43ZM340.7,707.56q13.19,23.69,25.39,59.57a16.849,16.849,0,0,1,.73,3.91q0,2.19-5.12,4.64l-13.19,6.1a17.23,17.23,0,0,1-4.88,1.47q-1.71,0-2.93-4.64l-4.15-11.48q-23.44,7.08-43.46,11.48-9.51,2.45-12.94,5.12c-1.63,1.63-3.17,2.44-4.64,2.44s-2.93-1.86-3.9-5.61q-6.36-20-8.06-31.49h6.11q6.82-19.29,15.38-60.8a160.489,160.489,0,0,0,3.17-25.63A239.632,239.632,0,0,1,319,669.23q5.13,1.71,5.13,4.88c0,1.63-1,3.51-2.93,5.62q-1.71,1.71-5.62,12.94-7.82,29.3-15.87,53,12.46-1.95,26.86-5.37-5.13-12.69-9.52-21.73a15.709,15.709,0,0,1-1-4.15c0-1.3,1.55-2.69,4.64-4.15l12-5.13a15.73,15.73,0,0,1,4.4-1.46C338.17,703.66,339.4,705,340.7,707.56ZM406.13,399.7q23,.74,47.36,3.42,8.55,0,8.55,5.13,0,2.69-3.42,11-2.92,7.81-2.93,51H473l55.18-1c2.6,0,4.15.33,4.64,1,.49.81.73,2.44.73,4.88v32.71c0,2.61-.33,4.15-1,4.64s-2.11.74-4.39.74l-55.18-1H455.69v40.53H483l60.06-1c2.6,0,4.23.33,4.89,1,.48.65.73,2.11.73,4.39v33c0,2.77-.41,4.39-1.22,4.88-.49.49-2,.74-4.4.74l-60.06-1H468.6a311.43,311.43,0,0,0,96,93,107.679,107.679,0,0,0-21,30q-5.13,11.48-8.54,11.47t-11-7.57q-45.66-45.65-71-95.46l3.67,152.59q0,5.37-5.13,5.37H414.67c-2.76,0-4.39-.32-4.88-1s-.73-2.12-.73-4.4q0-3.66,1.71-61.28,1.47-50,2-85.45a269.939,269.939,0,0,1-47.12,75q-5.13,7.57-9,7.57-3.42,0-6.35-7.08-7.08-13.18-21-26.37a267.869,267.869,0,0,0,67.38-86.42H392.7l-59.57,1c-2.6,0-4.23-.33-4.88-1-.49-.65-.73-2.2-.73-4.64v-33c0-2.6.4-4.15,1.22-4.64.49-.49,1.95-.73,4.39-.73l59.57,1h16.36V512.25H401l-53,1c-2.77,0-4.47-.33-5.12-1-.49-.65-.73-2.11-.73-4.4V475.14c0-2.77.32-4.47,1-5.13.65-.49,2.28-.73,4.88-.73l53,1h8.06v-8.55Q409.06,422.17,406.13,399.7Z" transform="translate(-94.12 -395.08)" fill="#939393"/>
        </g>
      </g>
      <g id="兒" transform="translate(455.659 308.054)" opacity="0.53">
        <g id="그룹_159" data-name="그룹 159">
          <path id="패스_472" data-name="패스 472" d="M769.39,609.29q6.42,4.55,21.4,8.43c3,.71,4.91,1.38,5.62,2a4.28,4.28,0,0,1,1.21,3.35,28.219,28.219,0,0,1-.27,3.21q-2.15,27.44-12.58,37.46a36,36,0,0,1-17.39,9Q757.21,675,738.48,675q-22.22,0-31.17-1.61t-13.25-5.75a21.9,21.9,0,0,1-6.15-11.1q-1.2-5.62-1.21-19V577.45H659.55q-3.22,41.73-26.63,66.49-20.2,21.4-57.66,33a28,28,0,0,1-6.42,1.07q-2.28,0-6-6.56a75.861,75.861,0,0,0-13.38-19.26q42.4-11.12,60.34-28.77,16.85-16.72,19.66-46h-13.4l-38.13.53c-1.42,0-2.27-.18-2.54-.53a5,5,0,0,1-.4-2.54l.54-31V481.12q0-21.67-1.74-34.52a145.419,145.419,0,0,1,21.4,5.49,188.208,188.208,0,0,0,41.61-12.58,117.948,117.948,0,0,0,13.65-7.09A160.065,160.065,0,0,1,670.25,450q2.54,2.4,2.54,4.28,0,3.61-4.41,3.61a30.55,30.55,0,0,0-11,2.41,450.88,450.88,0,0,1-53.91,14.05V498.7H633.3l24.62-.54c1.25,0,2,.22,2.27.67a6.19,6.19,0,0,1,.41,2.94v18.87c0,2-.9,2.94-2.68,2.94l-24.6-.58H603.49v29.56H745v-30.1H712.66l-26,.54q-2.26,0-2.67-.54a4.6,4.6,0,0,1-.4-2.41v-19c0-1.69.18-2.72.53-3.07a5,5,0,0,1,2.54-.4l26,.53H745V471.22H712.66l-26.62.53c-1.43,0-2.28-.17-2.55-.53a4.709,4.709,0,0,1-.4-2.41V449c0-1.52.18-2.45.54-2.81a4.57,4.57,0,0,1,2.41-.4l26.62.53h30.9l27.16-.53c1.43,0,2.32.22,2.68.67a7.109,7.109,0,0,1,.27,2.54l-.4,28.23V546l.4,28.9c0,1.42-.16,2.29-.47,2.6a4.044,4.044,0,0,1-2.48.47l-38.66-.53H716.27v51q0,12.84,2.68,15.52,3.21,3.62,21.4,3.61T763.63,641Q769,634.31,769.39,609.29Z" transform="translate(-549.46 -432.42)" fill="#939393"/>
        </g>
      </g>
      <g id="兒-2" data-name="兒" transform="translate(821.25 64.84)" opacity="0.53">
        <g id="그룹_160" data-name="그룹 160">
          <path id="패스_473" data-name="패스 473" d="M962.24,227.41a15.11,15.11,0,0,0,4.61,1.81,3.57,3.57,0,0,1,1.21.43.91.91,0,0,1,.26.72,3.933,3.933,0,0,1-.05.69q-.46,5.91-2.71,8.07a7.82,7.82,0,0,1-3.75,1.93,29.937,29.937,0,0,1-6.22.49,44.109,44.109,0,0,1-6.71-.34A5.31,5.31,0,0,1,946,240a4.65,4.65,0,0,1-1.33-2.39,22.478,22.478,0,0,1-.26-4.1V220.55h-5.85q-.69,9-5.73,14.32-4.35,4.6-12.42,7.11a5.559,5.559,0,0,1-1.38.23c-.33,0-.76-.47-1.3-1.41a15.9,15.9,0,0,0-2.88-4.15q9.14-2.39,13-6.19,3.63-3.6,4.23-9.91H929.2l-8.21.11c-.31,0-.49,0-.55-.11a1.09,1.09,0,0,1-.08-.55l.11-6.68V199.81a58.088,58.088,0,0,0-.37-7.43,30.085,30.085,0,0,1,4.61,1.18,40.86,40.86,0,0,0,9-2.71,24.783,24.783,0,0,0,2.93-1.53,34.9,34.9,0,0,1,4.27,3.77,1.43,1.43,0,0,1,.54.93c0,.52-.31.77-1,.77a6.74,6.74,0,0,0-2.36.52,97.6,97.6,0,0,1-11.61,3v5.24H933l5.3-.11c.27,0,.43,0,.49.14a1.51,1.51,0,0,1,.08.63v4.07q0,.63-.57.63l-5.3-.12h-6.43v6.37H957v-6.48h-7l-5.59.11c-.33,0-.52,0-.58-.11a1.12,1.12,0,0,1-.08-.52V204.1a1.18,1.18,0,0,1,.11-.66,1.05,1.05,0,0,1,.55-.09l5.59.12h7v-5.79h-7l-5.73.11c-.31,0-.49,0-.55-.11a1,1,0,0,1-.09-.52v-4.27a.5.5,0,0,1,.64-.69l5.73.12h6.66l5.84-.12c.31,0,.5.05.58.15a1.45,1.45,0,0,1,.06.54l-.09,6.08v14.81l.09,6.22a1,1,0,0,1-.1.56.88.88,0,0,1-.54.1l-8.32-.11h-3.4v11c0,1.84.19,2.95.57,3.34s2,.77,4.61.77,4.29-.47,5-1.41S962.19,231,962.24,227.41Z" transform="translate(-914.85 -189.32)" fill="#939393"/>
        </g>
      </g>
      <g id="迷" transform="translate(821.78 8.63)" opacity="0.53">
        <g id="그룹_161" data-name="그룹 161">
          <path id="패스_474" data-name="패스 474" d="M966.92,175.73a9.539,9.539,0,0,0-1.37,4.08,3.15,3.15,0,0,1-.51,1.59,3.391,3.391,0,0,1-1.54.26q-8.94.51-19.22.51-9.43,0-12.89-1.42a11.88,11.88,0,0,1-5.72-4.86c-1.35,1.36-3.09,2.93-5.24,4.7a6.561,6.561,0,0,0-1.26,1.07,1,1,0,0,1-.76.51c-.28,0-.54-.24-.77-.72a46.485,46.485,0,0,1-2.26-5,32.991,32.991,0,0,0,3.25-1.72,25.91,25.91,0,0,0,4.35-3.57V158.89h-2.5l-3.89.14c-.32,0-.51-.05-.57-.14a.88.88,0,0,1-.1-.54v-4.19c0-.28,0-.45.13-.51a1.13,1.13,0,0,1,.54-.08l3.89.11h3.25l4.08-.11a.86.86,0,0,1,.54.11,1,1,0,0,1,.08.48l-.11,5.35v11.92a9,9,0,0,0,4.89,4.46c1.79.66,5.19,1,10.18,1Q955.36,176.88,966.92,175.73ZM921.69,134.8a43,43,0,0,1,6.88,8,1.1,1.1,0,0,1,.21.46c0,.14-.19.36-.56.64l-3,2.55a1.13,1.13,0,0,1-.67.38c-.16,0-.32-.13-.49-.38a41.282,41.282,0,0,0-6.74-8.59.67.67,0,0,1-.24-.38c0-.12.16-.31.49-.56l3-2.15a1.18,1.18,0,0,1,.64-.32A1.905,1.905,0,0,1,921.69,134.8Zm16.89,19.69-7.49.13c-.29,0-.46,0-.51-.11a1,1,0,0,1-.08-.51v-4.13c0-.36.2-.54.59-.54l7.49.11h5.78V139.18a36.422,36.422,0,0,0-.41-6.07q2.77,0,5.8.27c.56.07.84.26.84.56a3.109,3.109,0,0,1-.35,1.16,12.68,12.68,0,0,0-.32,3.78v10.56h7l7.57-.11c.41,0,.62.18.62.54V154a.86.86,0,0,1-.11.54,1,1,0,0,1-.51.08l-7.57-.13h-4.57a36.58,36.58,0,0,0,14,11.22,14.169,14.169,0,0,0-2.52,4c-.38.84-.67,1.26-.89,1.26a3,3,0,0,1-1.21-.54,37.18,37.18,0,0,1-12.06-12.62L950,174.2a1,1,0,0,1-.09.55.9.9,0,0,1-.52.09h-4.57c-.29,0-.46,0-.51-.1a1.19,1.19,0,0,1-.08-.54c0-.27,0-1.19,0-2.77q.24-7.35.33-13.43a38.751,38.751,0,0,1-10.85,12,3.609,3.609,0,0,1-1.21.72c-.22,0-.59-.39-1.1-1.15a15.916,15.916,0,0,0-2.64-3.25,38.7,38.7,0,0,0,12.81-11.79Zm-1.82-18.13a37.185,37.185,0,0,1,4.86,8.14,1.319,1.319,0,0,1,.13.45c0,.16-.23.36-.7.59l-3.41,1.83a1.211,1.211,0,0,1-.37.13c-.11,0-.23-.13-.35-.4a38.111,38.111,0,0,0-4.84-8.43.7.7,0,0,1-.21-.4c0-.17.21-.34.64-.54l3.15-1.53a1.489,1.489,0,0,1,.56-.19C936.36,136,936.54,136.13,936.76,136.36Zm15.6,9.24a36.369,36.369,0,0,0,4.24-7.6,12.943,12.943,0,0,0,.67-2.42,33.218,33.218,0,0,1,4.35,1.77c.81.45,1.21.8,1.21,1.05s-.18.45-.56.81a4.679,4.679,0,0,0-.81,1.23,68.459,68.459,0,0,1-3.65,6.2q-.72,1.05-1,1.05a6.193,6.193,0,0,1-1.05-.56A17.477,17.477,0,0,0,952.36,145.6Z" transform="translate(-915.38 -133.11)" fill="#939393"/>
        </g>
      </g>
      <path id="패스_475" data-name="패스 475" d="M469,466.48l-54.79-145.6v145.6H331v-322h80.4l89.19,236.4,89.2-236.4h80v322H586.6V320.88l-54.8,145.6Z" transform="translate(-93.931 -124.48)" fill="#4798b3"/>
      <path id="패스_476" data-name="패스 476" d="M709,144.48H918.6v68.8H795.8v53.6H902.2v69.2H795.8v62H921v68.4H709Z" transform="translate(-93.709 -124.48)" fill="#4798b3"/>
      <path id="패스_477" data-name="패스 477" d="M1039.4,466.48H958.2v-79.6h81.2Z" transform="translate(-93.6 -124.408)" fill="#4798b3"/>
      <path id="패스_478" data-name="패스 478" d="M982,500.48l101.6,322H996.4l-13.2-51.6h-90L880,822.48H793.2l101.6-322Zm-43.6,93.6-28.8,112h57.2Z" transform="translate(-93.6 -124.3)" fill="#4798b3"/>
      <path id="패스_479" data-name="패스 479" d="M454,450.48l-54.79-145.6v145.6H316v-322h80.4l89.19,236.4,89.2-236.4h80v322H571.6V304.88l-54.8,145.6Z" transform="translate(-93.943 -124.48)" fill="none" stroke="#000" stroke-width="8"/>
      <path id="패스_480" data-name="패스 480" d="M694,128.48H903.6v68.8H780.8v53.6H887.2v69.2H780.8v62H906v68.4H694Z" transform="translate(-93.719 -124.48)" fill="none" stroke="#000" stroke-width="8"/>
      <path id="패스_481" data-name="패스 481" d="M1024.4,450.48H943.2v-79.6h81.2Z" transform="translate(-93.6 -124.412)" fill="none" stroke="#000" stroke-width="8"/>
      <path id="패스_482" data-name="패스 482" d="M967,484.48l101.6,322H981.4l-13.2-51.6h-90L865,806.48H778.2l101.6-322Zm-43.6,93.6-28.8,112h57.2Z" transform="translate(-93.6 -124.3)" fill="none" stroke="#000" stroke-width="8"/>
    </g>
    <g id="그룹_157-2" data-name="그룹 157" transform="translate(-133 1022)">
      <path id="합치기_2-2" data-name="합치기 2" d="M506.94,817.82A67.55,67.55,0,0,1,598,898.57h40.6a38,38,0,1,1,0,76h-369a38,38,0,0,1,0-76h28a67.49,67.49,0,0,1,67.5-67c1.45,0,2.88,0,4.31.13a77,77,0,0,1,137.53-13.88Z" transform="translate(-231.6 -146)" fill="#4798b3"/>
    </g>
  </g>
</svg>
