<svg xmlns="http://www.w3.org/2000/svg" viewBox="0 0 592.74 684.61"><defs><style>.cls-1{fill:#4798b3;}.cls-2{fill:#f8f0de;}.cls-3{fill:#231815;}.cls-4,.cls-5,.cls-6,.cls-7{fill:none;stroke:#231815;stroke-linecap:round;stroke-linejoin:round;}.cls-4{stroke-width:8px;}.cls-5{stroke-width:5px;}.cls-6{stroke-width:7px;}.cls-7{stroke-width:6px;}</style></defs><g id="레이어_2" data-name="레이어 2"><g id="레이어_3" data-name="레이어 3"><path class="cls-1" d="M274,36.61S136.6,77.05,128.85,149.54s6.5,61.26,6.5,61.26l17.57-3.56-11,4.63S144.74,320.2,178.78,353c0,0-42.56-23.31-46.67-86.43L128.85,226s-17.62,65.1-14.66,94.19-12.82,8.69-12.82,8.69-7.89-20.38,12.82-77.9c0,0-32.92,33.21-25.34,64.28s42.62,65.61,63.17,75.95S205.42,403,205.42,403s11.84-9.31,14.06-3.91-9,26.12-9,26.12l20.31,6.71s26.93,15.93,33.74,29.31-42.08-24.34-53.29-23.78c0,0-27.83-10.69-67.35,3.4,0,0-17.16-3.82-25.88,17.38s-21.19,39.17-21.85,89.37h-8.4s-8.18-50.51,8.4-79.62L91,458.25s-51.78-25.07-63.62,3-20.71,60.83,0,86.37,66.17,19,66.17,19,17.67,15.47,17.18,23.36c0,0,7.39,9.86,3.45,17.75s-46.95,74,30.28,76.93c0,0,47.93-3,58.14-55.23,1.94-9.92.47-21.09-2.64-30.58-8-24.53-32.93-37.78-45.43-59.53-3.3-5.74-28.15-49.28-5.71-42.45,0,0,6.29,74,70.65,83.55s108.76-33.6,108.76-33.6,5.71-17.47,15.67-18.23c0,0,.15,28.7,15.26,24.13H338.88s2.19,104.27,68.2,104.32c48.45,0,99.59-27.49,137.34-55.81C578.29,575.77,611,532,580.89,489.72c-6.28-8.84-15.33-15.93-24.41-21.72,0,0-18.45-18.13-31.63-9.75,0,0,10.49-7.36-4.3-33-13.81-24-51.37-23.51-74.32-16.35-6.47,2-60.46,21.82-60.28,26.39-.25-6.23-.3-12.53.07-18.75.69-11.47-.08-15.8,11.24-17.08,39.55-4.46,77.63-7.48,111.45-30.69,0,0,131.61-98.18,25.86-157.95,0,0-1.11-48.26-18-69.12,0,0-61.48-83.13-88.28-96.79C421.27,41.3,304.54,21.82,293.7,20.83s-46.59-7.94-73.48,21.7C220.22,42.53,256.22,29.71,274,36.61Z"/><path class="cls-2" d="M356.79,211.87l-63.09,7.21s2.45,85,69.08,80.06v-4.61S293.64,248.16,356.79,211.87Z"/><path class="cls-2" d="M186.19,219.08l-50.84-8.28s-6.91,55.55,25.42,75.31,41.2,8.42,41.2,8.42S140.82,275.3,186.19,219.08Z"/><path class="cls-3" d="M250.58,75a3.07,3.07,0,0,1-.72,2.8,12.34,12.34,0,0,1-1.5,1.56c-1,1-2.17,1.79-3.25,2.68L242,84.88l-2.95,3a76.11,76.11,0,0,0-10,13.51,98.31,98.31,0,0,0-11.46,31.7,140.63,140.63,0,0,0-2.09,34,164.39,164.39,0,0,0,1.81,17c.22,1.41.46,2.82.73,4.22s.54,2.8.85,4.19l.46,2.09a8.37,8.37,0,0,1,.31,2.13,10.63,10.63,0,0,1-.33,2.3L219,200.2a1.32,1.32,0,0,1-.36.66l-.39.39-.63.46h0a1.62,1.62,0,0,1-1.13.31l-.77-.07-.53-.14a1.52,1.52,0,0,1-.66-.39l-.85-.93a9.82,9.82,0,0,1-1.41-1.95,19.45,19.45,0,0,1-1.24-4.33c-.35-1.46-.65-2.93-.93-4.41s-.56-2.95-.8-4.43a155.25,155.25,0,0,1-1.92-17.89,142.48,142.48,0,0,1,2.68-35.9,105.19,105.19,0,0,1,13.21-33.68,82.94,82.94,0,0,1,11.26-14.34l3.3-3.16,3.48-3c1.23-.9,2.38-1.9,3.68-2.7a13,13,0,0,1,2.13-.92,2.92,2.92,0,0,1,2.9.32,1.1,1.1,0,0,1,.55.84Z"/><path class="cls-3" d="M175.35,149.62c1.35.49,1.66.81,1.77,1.11a2.71,2.71,0,0,1,.34.9,10.91,10.91,0,0,1-.06,1.72c-.08,1.15-.13,2.3-.17,3.45q-.12,3.45,0,6.9a106.17,106.17,0,0,0,1.16,13.63,80.94,80.94,0,0,0,3,13,58.24,58.24,0,0,0,2.39,6.06c.49.95.94,1.93,1.5,2.83l.4.69a1.54,1.54,0,0,1,.25.78,4,4,0,0,1-.28,1.16l-.25.68a1.79,1.79,0,0,1-.31.47l-.33.37-.53.52,0,0a3.94,3.94,0,0,1-.93.66l-.65.33-.45.18a1.38,1.38,0,0,1-.56.12l-.74-.06a3.76,3.76,0,0,1-1.28-.31,1.65,1.65,0,0,1-.71-.7l-.5-.84c-.7-1.1-1.27-2.25-1.86-3.4a51,51,0,0,1-2.83-7.08,69.67,69.67,0,0,1-2.88-14.62,111.83,111.83,0,0,1-.29-14.63q.16-3.63.54-7.25c.12-1.2.26-2.41.42-3.61a9.31,9.31,0,0,1,.32-1.8,2.72,2.72,0,0,1,.56-.85c.18-.29.57-.55,2-.65a2.44,2.44,0,0,1,.94.13Z"/><path class="cls-3" d="M276.74,117.9c.54,1.4.42,1.91.18,2.33a5.58,5.58,0,0,1-.69,1.22c-.56.7-1.24,1.3-1.84,2s-1.23,1.32-1.82,2-1.2,1.35-1.75,2.09c-1.12,1.43-2.26,2.85-3.27,4.37L266,134.13l-1.44,2.33a105.83,105.83,0,0,0-9.34,19.75c-1.07,3.5-2.35,6.92-3.11,10.51-.41,1.78-.93,3.54-1.26,5.34s-.63,3.6-1,5.4c-.16.91-.36,1.8-.48,2.71l-.3,2.73-.64,5.47c-.14.91-.14,1.83-.2,2.75l-.13,2.75-.06,1.38a3.5,3.5,0,0,1-.28,1.37,5.33,5.33,0,0,1-.94,1.37l-.61.68a1.31,1.31,0,0,1-.54.35l-.49.17-.73.17h0a2.52,2.52,0,0,1-1.16,0l-.72-.19-.47-.18a1.25,1.25,0,0,1-.51-.37l-.56-.73a5.71,5.71,0,0,1-.82-1.47,4,4,0,0,1-.15-1.45l.06-1.46.11-2.91c0-1,0-1.94.17-2.9l.64-5.8.33-2.9c.14-1,.35-1.92.52-2.88q.53-2.88,1.09-5.74c.39-1.91,1-3.78,1.47-5.67.9-3.8,2.33-7.45,3.58-11.14a112.28,112.28,0,0,1,10.88-20.74l1.65-2.43,1.78-2.34c1.16-1.57,2.45-3.06,3.72-4.55.62-.75,1.33-1.45,2-2.17s1.35-1.43,2.08-2.11a16.17,16.17,0,0,1,2.22-2,5.12,5.12,0,0,1,1.41-.68c.49-.19,1.07-.31,2.36.52a1.51,1.51,0,0,1,.58.72Z"/><path class="cls-3" d="M324.27,200.49c-2.38-1-2.65-2.56-3.44-4A38.33,38.33,0,0,1,319.1,192l-2.91-9.23-5.82-18.44,5.94.42c-3.92,8.39-7.89,16.65-12.45,24.84a68.67,68.67,0,0,1-3.83,6.17,17.11,17.11,0,0,1-1.31,1.65,8.51,8.51,0,0,1-1,1,4.91,4.91,0,0,1-1,.63,4.1,4.1,0,0,1-2.52.4,15.93,15.93,0,0,0-2.85-.11c-4.44.07-9,.33-13.58.58-9.13.53-18.26,1.2-27.39,1.85-4.56.33-9.13.68-13.67,1.06l-6.87.64c-2.49.18-4.82.22-7.15.25-9.26.09-18.35-.07-27.37.3-4.5.2-9,.51-13.35,1.09l-1.63.22-1.61.28-1.61.27-1.67.34-6.7,1.39c-8.94,1.89-17.89,3.88-26.83,5.88-4.48,1-8.92,2.12-13.49,2.71-2.28.3-4.58.52-6.89.68s-4.51.84-7.2-.61a.79.79,0,0,1-.32-1.06l.06-.09c1.78-2.48,4.08-2.7,6.21-3.69s4.33-1.67,6.52-2.38c4.38-1.44,8.88-2.33,13.36-3.37,8.95-2,17.92-4,26.92-5.92l6.78-1.41,1.7-.35,1.78-.31,1.78-.31,1.77-.24c4.73-.63,9.41-1,14.08-1.17,9.31-.41,18.58-.26,27.65-.23,2.26,0,4.52,0,6.61-.17l6.84-.56c4.6-.35,9.18-.66,13.77-.95,9.18-.6,18.35-1.06,27.56-1.45,4.61-.18,9.18-.36,13.92-.36l1.83,0,1,.06c.2,0,.38,0,.64.07s.24,0,.47.08l.38.1.06,0a2.6,2.6,0,0,0-.4-.1,2.84,2.84,0,0,0-1.7.23,2.53,2.53,0,0,0-.26.16,1.41,1.41,0,0,0,.22-.2c.24-.26.54-.64.84-1a61.37,61.37,0,0,0,3.5-5.47c4.5-7.76,8.63-16,12.62-24.14l0-.07a3.19,3.19,0,0,1,4.26-1.46,3.22,3.22,0,0,1,1.66,1.95L322,181l2.77,9.26a35.93,35.93,0,0,1,1.1,4.72c.16,1.64.83,3.12-.6,5.25A.84.84,0,0,1,324.27,200.49Z"/><path class="cls-4" d="M324.76,195.41s71-2,71-5.92,5.42-18.74,5.42-18.74,5.43,23.67,9.37,24.66,12.82,8.87,12.82,8.87A257.09,257.09,0,0,1,432.64,247c5.75,43.08-10.68,88.11-57.08,99.28"/><path class="cls-4" d="M186.19,219.08c-27,20.31-17.1,67.66,15.78,75.45"/><path class="cls-4" d="M354.35,215.62S327.72,228,333.15,256.8s30.57,41.67,36.49,40.69"/><path class="cls-3" d="M138.45,212.16a7.26,7.26,0,0,1,3.25-1,13,13,0,0,1,1.53,0l1.51.06c2,.11,4,.28,6,.56,4,.53,8,1.06,12,1.5q12,1.35,24,2.07c4,.28,8,.41,12,.59s8,.25,12,.24c8,.11,16-.16,24-.52h0a3.45,3.45,0,0,1,3.55,2.92c.36,2.44.57,4.67.74,7s.27,4.61.3,6.92a114.77,114.77,0,0,1-.6,13.86,79.63,79.63,0,0,1-7.37,27.1,53.17,53.17,0,0,1-8,12,47.48,47.48,0,0,1-11.38,9.16l-1.59.9a14.61,14.61,0,0,1-1.63.82l-3.34,1.48c-1.13.43-2.29.78-3.43,1.18-.58.18-1.15.4-1.73.55l-1.75.42c-1.17.27-2.34.59-3.51.8l-3.54.52c-.6.08-1.16.2-1.79.24l-1.9.1c-.64,0-1.27.07-1.9.07l-1.91-.12a37.17,37.17,0,0,1-14.37-4.14,52,52,0,0,1-11.79-8.47,91.79,91.79,0,0,1-22.33-35.54,66.75,66.75,0,0,1-1.9-6.89l-.19-.88-.09-.44-.05-.22-.06-.34c-.11-.79-.16-1.33-.22-1.94-.1-1.18-.18-2.32-.25-3.47-.28-4.57-.44-9.1-.43-13.7a28.16,28.16,0,0,1,.88-6.94,32.43,32.43,0,0,1,1.16-3.54c.12-.31.24-.61.38-.92a3,3,0,0,1,.61-.94,5.57,5.57,0,0,1,1.1-.89,3.55,3.55,0,0,1,.39-.2,2.58,2.58,0,0,1,.49-.17,1.31,1.31,0,0,1,1.07.17Zm-.21,1.09c0,.16.14.28.26.34s.12.08.18.1a.83.83,0,0,0,.14.13,2.65,2.65,0,0,1,.4.64,4.44,4.44,0,0,1,.22,1.42c.11,1,.28,2.08.44,3.15a46.81,46.81,0,0,1,.49,6.5c0,4.37.17,8.81.45,13.19.06,1.1.14,2.19.24,3.25,0,.5.1,1.08.15,1.4l.3,1.41a60.38,60.38,0,0,0,1.69,6.08A83.38,83.38,0,0,0,163.43,283a46,46,0,0,0,10,7.22,29.21,29.21,0,0,0,11.26,3.34l1.46.11c.48,0,1,0,1.46,0l1.46-.06c.49,0,1-.13,1.54-.2l3.12-.43c1-.18,2-.46,3.05-.68l1.53-.35c.5-.13,1-.31,1.47-.47,1-.33,2-.62,2.94-1l2.82-1.23a9.7,9.7,0,0,0,1.37-.68l1.34-.75a39.76,39.76,0,0,0,9.56-7.57,48.05,48.05,0,0,0,7-10.24,72.39,72.39,0,0,0,6.93-24.49,108.35,108.35,0,0,0,.71-13c0-2.18-.07-4.36-.19-6.53s-.32-4.39-.6-6.39l3.58,2.92c-8.15.26-16.31.44-24.46.23-4.08,0-8.15-.25-12.22-.39s-8.13-.41-12.19-.75q-12.18-.87-24.31-2.39c-4-.51-8.07-1-12.1-1.67a57.09,57.09,0,0,1-6-1.32,26.4,26.4,0,0,1-2.94-.94,6.81,6.81,0,0,1-2.72-2.13Z"/><path class="cls-4" d="M293.7,219.08s-1.48,34,13.31,53.75,29.85,28.11,44,28.11c0,0,69.9-.49,54.12-93.7,0,0-96.66,9.86-107,8.38"/><path class="cls-3" d="M113.56,212.88a15.56,15.56,0,0,1-4.85-7.31c-.46-1.35-.89-2.71-1.32-4.07-.22-.68-.41-1.36-.62-2.05l-.3-1c-.09-.34-.15-.7-.22-1-.29-1.4-.55-2.8-.8-4.21a40.65,40.65,0,0,1-.61-4.23l-.41-4.26-.2-2.14-.06-2.13A123.2,123.2,0,0,1,120,114.77,116.41,116.41,0,0,1,141,87.8a146.37,146.37,0,0,1,13-11c4.52-3.42,9.23-6.55,14-9.5a276.52,276.52,0,0,1,29.78-15.56c10.13-4.58,20.34-9,30.88-12.81a200.73,200.73,0,0,1,32.53-9.13c1.39-.3,2.8-.46,4.21-.69s2.8-.47,4.22-.6c2.84-.29,5.66-.65,8.52-.74A117.35,117.35,0,0,1,295.3,28a152.5,152.5,0,0,1,16.85,2.72,162.16,162.16,0,0,1,16.41,4.54,115.73,115.73,0,0,1,30.62,15.36c1.16.87,2.37,1.66,3.47,2.6L366,56a83.93,83.93,0,0,1,6.22,6.15l1.48,1.62c.5.53.92,1.14,1.38,1.7.9,1.16,1.83,2.29,2.69,3.48s1.67,2.43,2.45,3.69c.38.62.77,1.3,1.12,1.9l1,1.81q8.24,14.5,15.58,29.5c4.88,10,9.56,20.08,13.74,30.46a250.75,250.75,0,0,1,10.62,31.91,168.41,168.41,0,0,1,3.42,16.57,39.43,39.43,0,0,1,.44,4.22,38.4,38.4,0,0,1-.09,4.29c-.1,1.44-.26,2.87-.43,4.3a9.34,9.34,0,0,1-1.49,4.27.92.92,0,0,1-1.3.24.7.7,0,0,1-.22-.2h0a10.67,10.67,0,0,1-1.82-4c-.34-1.33-.72-2.64-1.1-3.95a72.78,72.78,0,0,1-1.86-7.89c-.88-5.31-2-10.6-3.36-15.83a242.44,242.44,0,0,0-10.41-30.83c-4.11-10.1-8.75-20-13.62-29.85s-10-19.48-15.46-29l-1-1.78c-.34-.59-.65-1.11-1-1.66-.67-1.09-1.39-2.16-2.14-3.2s-1.6-2-2.39-3.06c-.41-.5-.78-1-1.23-1.51L365.9,67.9a75.53,75.53,0,0,0-5.54-5.49l-3-2.5c-1-.86-2.1-1.57-3.14-2.36a107.63,107.63,0,0,0-28.38-14.19,151.55,151.55,0,0,0-15.49-4.28,145.43,145.43,0,0,0-15.82-2.56,109.52,109.52,0,0,0-15.9-.24c-2.66.08-5.31.43-8,.69-1.32.13-2.64.38-4,.56s-2.65.36-4,.64a192.63,192.63,0,0,0-31.19,8.64c-10.23,3.67-20.32,8-30.32,12.45a269.14,269.14,0,0,0-28.94,15c-4.61,2.81-9.12,5.78-13.41,9a136.67,136.67,0,0,0-12.26,10.36,112.35,112.35,0,0,0-31.44,54.72,114.7,114.7,0,0,0-3.26,31.74l.05,2,.18,2,.37,4c.09,1.33.33,2.64.53,4s.38,2.64.53,4,.45,2.63.64,4,.42,2.65.58,4c.53,2.64,1,5.26.06,8.5l0,0a.78.78,0,0,1-1,.53A.71.71,0,0,1,113.56,212.88Z"/><path class="cls-3" d="M247.13,340.91c-1.43,1.14-2,1.19-2.41,1.1a3.76,3.76,0,0,1-1.27-.31,13.16,13.16,0,0,1-1.92-1.38l5.48-4.93a.25.25,0,0,0,0-.07l0,0,.07.07.23.21c.15.14.36.29.53.44l.64.43.7.38a12.77,12.77,0,0,0,3.18,1.05,21.52,21.52,0,0,0,7.39.05c5.15-.74,10.32-2.83,15.35-5.25a95.26,95.26,0,0,0,14.42-8.47,45.37,45.37,0,0,0,6-5.15,24.12,24.12,0,0,0,2.37-2.8l.48-.71a1.28,1.28,0,0,1,.71-.52,6.18,6.18,0,0,1,1.34-.21l.77-.09a3.13,3.13,0,0,1,.71.06l.57.08c.28.06.56.12.85.16l.46.05a3.46,3.46,0,0,1,1,.27c.27.13.52.28.78.43s.32.22.49.34a1.7,1.7,0,0,1,.52.59c.13.3.24.61.35.94a4.78,4.78,0,0,1,.36,1.77,4.72,4.72,0,0,1-1.14,2.54,34.58,34.58,0,0,1-3.27,4,47.69,47.69,0,0,1-7.4,6.41,84.5,84.5,0,0,1-16.35,9.06,76.79,76.79,0,0,1-8.89,3.19l-1.14.35-1.18.27-2.36.53c-.77.2-1.61.26-2.42.4s-1.6.27-2.45.29a29.9,29.9,0,0,1-10.24-.8,20,20,0,0,1-5.06-2.11c-.41-.25-.81-.5-1.2-.77L243,342c-.37-.35-.74-.66-1.1-1.05l-.53-.6-.28-.36-.14-.19-.21-.3-.09-.13a3.7,3.7,0,0,1,5.58-4.8,14.6,14.6,0,0,1,1.73,1.61,4,4,0,0,1,.56,1.18c.17.41.24.95-.59,2.59A3,3,0,0,1,247.13,340.91Z"/><path class="cls-3" d="M114.7,219.08a5.93,5.93,0,0,1,1.79,3.94c.16,1.31.28,2.63.32,3.93.09,2.62-.09,5.23-.24,7.84q-.42,7.83-1.25,15.64a208.73,208.73,0,0,1-5.39,31.09c-.29,1.29-.72,2.57-1.09,3.85l-.58,1.93-.29,1-.26.84c-.71,2.33-1.3,4.78-1.8,7.22a98.06,98.06,0,0,0-1.84,14.88,89.07,89.07,0,0,0,.58,14.89A73.62,73.62,0,0,0,108,340.46,63,63,0,0,0,123.56,365a97.16,97.16,0,0,0,24.32,17.13,157.51,157.51,0,0,0,28.19,10.94q7.32,2.1,14.79,3.6c2.49.5,5,1,7.48,1.35s5.06.76,7.43,1h0a4,4,0,0,1,2.75,6.45l-7.16,9.12a26.81,26.81,0,0,1-4.12,4.13c-.77.62-1.58,1.21-2.39,1.81a7.21,7.21,0,0,1-1.27.85,4,4,0,0,1-2,.23,1.11,1.11,0,0,1-.92-.73,4,4,0,0,1-.27-2,7.46,7.46,0,0,1,.52-1.44c.39-.92.77-1.85,1.19-2.75a26.37,26.37,0,0,1,3-5l7.14-9.14,2.8,6.46c-2.78-.27-5.34-.63-8-1s-5.22-.88-7.81-1.4q-7.78-1.56-15.42-3.73a159,159,0,0,1-29.66-11.55,105.31,105.31,0,0,1-26.15-18.75,71.63,71.63,0,0,1-10.21-12.82,70.29,70.29,0,0,1-6.9-14.85A80.12,80.12,0,0,1,97.45,327,96.8,96.8,0,0,1,97,310.83a103.75,103.75,0,0,1,2.2-15.91c.57-2.63,1.23-5.22,2.06-7.83l.34-1,.28-.9.56-1.79c.36-1.2.78-2.37,1.08-3.6a203.77,203.77,0,0,0,5.63-30c.62-5.09,1.09-10.2,1.44-15.33.19-2.56.26-5.13.55-7.68.16-1.28.34-2.56.58-3.84a6.09,6.09,0,0,1,1.91-3.82h0A.72.72,0,0,1,114.7,219.08Z"/><path class="cls-4" d="M120.11,246.69s-43.89,26.63-30.58,71,64.6,83.83,107,90.74"/><path class="cls-4" d="M129,215.62s-6.9,104.06,54.74,146.47S274,394.64,274,394.64"/><path class="cls-4" d="M276.43,391.19s.5-23.67,29.59-30.58,67.07-14.3,67.07-14.3"/><path class="cls-3" d="M156.68,74.09c1.12-3.4,3.28-5.55,5.49-7.65s4.4-4.21,6.7-6.19c4.61-4,9.36-7.74,14.07-11.57Q197.09,37.21,211.48,26c4.82-3.72,9.66-7.41,14.58-11S236,7.79,241.3,4.45l2.06-1.23L245.55,2l1.26-.57.63-.28a6.86,6.86,0,0,1,.81-.28l.88-.25.43-.12.36-.05,1.36-.18C254.63,0,257.7,0,260.82,0c6.21.08,12.35.42,18.48.94a364.5,364.5,0,0,1,72.22,13.71A314.51,314.51,0,0,1,386.2,27.27,261.09,261.09,0,0,1,419,44.37a4.63,4.63,0,0,1,1.36,1.28l.05.08c3.09,4.4,6.48,8.86,9.86,13.2s6.92,8.64,10.46,12.89Q451.47,84.53,463,96.5c3.84,4,7.75,7.88,11.73,11.75l6.15,5.85c.61.63,1,1.11,1.56,1.66l1.46,1.62c.95,1.08,1.9,2.16,2.82,3.26a229,229,0,0,1,20,27.8c3,4.86,5.78,9.86,8.43,14.93s5.08,10.27,7.22,15.59,4.14,10.7,5.91,16.17,3.18,11.07,4.29,16.73a150.92,150.92,0,0,1,3.07,34.48c0,1.45-.14,2.89-.22,4.34l-.3,4.34a85.6,85.6,0,0,1-1.38,8.58c-.74,2.82-1.71,5.57-2.69,8.29l-1.74,4a8,8,0,0,1-1.16,1.9,6.91,6.91,0,0,1-1.95,1.66,1,1,0,0,1-1.4-.38l0,0a7.91,7.91,0,0,1-1-4.57l.34-4.13c0-2.77.17-5.5.42-8.18.09-2.72.41-5.38.67-8.06l.26-4c.08-1.34.24-2.68.21-4a141.58,141.58,0,0,0-2.9-32.17c-1-5.31-2.49-10.54-4-15.74s-3.48-10.3-5.62-15.31-4.43-10-6.88-14.84-5.19-9.61-8.07-14.26A227,227,0,0,0,479,127.13c-.87-1-1.76-2.07-2.65-3.09l-1.34-1.5-1.3-1.4-6-5.73c-4-3.94-8-8-11.9-12q-11.7-12.26-22.54-25.27c-3.6-4.36-7.16-8.73-10.61-13.21s-6.83-8.95-10.14-13.72l1.41,1.36a257.56,257.56,0,0,0-31.5-16.71A304.72,304.72,0,0,0,348.9,23.29a356.26,356.26,0,0,0-70.34-14c-6-.55-11.93-.93-17.84-1.06-2.94,0-5.94,0-8.63.2l-.89.1-.21,0-.11.05-.21.07a.83.83,0,0,0-.27.08L250,9l-.82.36-1.81,1-1.85,1.09c-5,3-9.9,6.52-14.77,10S221,28.53,216.22,32.18c-9.61,7.31-19.13,14.79-28.6,22.33-4.74,3.76-9.42,7.6-14.2,11.32q-3.6,2.76-7.37,5.33c-2.49,1.75-5,3.45-8.55,3.92a.76.76,0,0,1-.82-1Z"/><path class="cls-3" d="M379.25,358.12a3.64,3.64,0,0,1,2.59-2,20.89,20.89,0,0,1,2.62-.58c1.76-.29,3.53-.31,5.29-.53s3.53-.37,5.29-.61,3.52-.44,5.27-.72c3.51-.5,7-1.16,10.48-1.8s6.95-1.43,10.37-2.33a170.16,170.16,0,0,0,39.48-14.76c3.15-1.52,6.06-3.45,9.06-5.23,1.51-.86,2.95-1.92,4.42-2.9l4.38-3c5.74-4.13,11.35-8.44,16.72-13a180.73,180.73,0,0,0,15.21-14.58c2.39-2.56,4.62-5.24,6.78-8l1.57-2.07a13.58,13.58,0,0,1,1.68-2,14.73,14.73,0,0,1,2.17-1.65l1.17-.78a1.61,1.61,0,0,1,.77-.28,4.34,4.34,0,0,1,1.37,0H526a1.48,1.48,0,0,1,1,.54,3.85,3.85,0,0,1,.71,1.22,1.74,1.74,0,0,1,.08.88l-.25,1.5a13.47,13.47,0,0,1-.84,2.83,27,27,0,0,1-3.15,4.65c-2.3,2.91-4.67,5.77-7.18,8.46a184.78,184.78,0,0,1-15.89,15.29l-4.22,3.52c-1.42,1.17-2.9,2.25-4.34,3.37l-2.18,1.67-2.23,1.6L483,330.16l-4.56,3c-1.53,1-3,2.05-4.63,3-3.21,1.85-6.33,3.87-9.68,5.42a177.27,177.27,0,0,1-41.46,14.49c-3.56.85-7.15,1.48-10.73,2.16s-7.2,1.18-10.82,1.61c-1.8.25-3.61.45-5.42.63s-3.63.36-5.45.5-3.64.32-5.47.29a20,20,0,0,1-2.76-.29,3.55,3.55,0,0,1-2.79-1.82.93.93,0,0,1,0-1Z"/><path class="cls-3" d="M531.12,206.74a6.52,6.52,0,0,1,5.26,1.6,31.34,31.34,0,0,1,3.84,3.24,66.22,66.22,0,0,1,6.39,7.68,85.33,85.33,0,0,1,9.9,17.43,73.75,73.75,0,0,1,5.25,19.54,71.92,71.92,0,0,1-.51,20.3,78.3,78.3,0,0,1-5.9,19.32c-.61,1.57-1.41,3-2.16,4.54s-1.48,3-2.36,4.42l-2.54,4.32-2.78,4.13c-.91,1.42-1.89,2.71-2.86,4l-2.92,3.9-2.92,3.91c-.95,1.32-2,2.53-3.06,3.8-2.09,2.5-4.12,5.05-6.25,7.52l-6.62,7.24A179.39,179.39,0,0,1,490.78,369l-2,1.4-2.13,1.27-4.26,2.55c-1.4.88-2.9,1.58-4.36,2.37l-4.4,2.29a179,179,0,0,1-18.22,7.57c-6.16,2.23-12.38,4.1-18.54,5.94l-18.48,5.47c-6.27,1.75-12.61,3.35-19.13,4.56-3.27.53-6.55,1.28-10,1.14a24.12,24.12,0,0,1-5.23-.87c-.88-.26-1.74-.51-2.63-.85a3.09,3.09,0,0,1-1.29-.81,4.1,4.1,0,0,1-1.08-1.8.87.87,0,0,1,.12-.8l.43-.57a5.55,5.55,0,0,1,1.25-1.27,3,3,0,0,1,1.1-.53c.7-.17,1.44-.4,2.15-.63,1.46-.48,2.9-1,4.37-1.31a44.22,44.22,0,0,1,4.46-.78c1.51-.25,3-.47,4.54-.76,6.07-1.14,12.15-2.67,18.21-4.37L434,382.79c6.09-1.84,12.14-3.66,18-5.8s11.61-4.53,17.25-7.1l4.13-2.12c1.36-.72,2.78-1.36,4.09-2.18l4-2.35,2-1.17,1.93-1.29A171,171,0,0,0,514,337l6.45-6.84c2.08-2.34,4.08-4.77,6.13-7.15,1-1.21,2.07-2.36,3-3.63l2.89-3.74,2.89-3.74c1-1.25,2-2.49,2.79-3.76l2.63-3.79,2.4-3.93c.83-1.29,1.52-2.65,2.22-4s1.46-2.68,2-4.09A69.68,69.68,0,0,0,553,275.09a63.2,63.2,0,0,0,.74-17.95,65.87,65.87,0,0,0-4.42-17.5,77.37,77.37,0,0,0-8.78-16c-1.75-2.52-3.75-4.84-5.65-7.26-.94-1.22-1.88-2.44-2.77-3.72a7.29,7.29,0,0,1-1.81-4.9v-.07A.91.91,0,0,1,531.12,206.74Z"/><path class="cls-3" d="M376.71,399.18c1.77,1,2.07,1.89,2.19,2.74a14,14,0,0,1,.32,2.54,48.62,48.62,0,0,1-.35,5l-.85,9.94c-.53,6.62-1,13.24-1.32,19.85-.16,3.29-.28,6.59-.31,9.85a72.45,72.45,0,0,0,.35,9.38l.16.91.09.29,0,.14a2.06,2.06,0,0,0,.09.26l.85,2.43q.84,2.47,1.55,5a82.86,82.86,0,0,1,2.21,10.31,61.52,61.52,0,0,1,.64,10.72,44,44,0,0,1-1.62,10.9,36.11,36.11,0,0,1-4.73,10.3,32.06,32.06,0,0,1-7.93,8.16c-.77.53-1.51,1.15-2.32,1.6l-2.43,1.4a25.81,25.81,0,0,1-2.49,1.19,26.7,26.7,0,0,1-2.53,1.08,50.75,50.75,0,0,1-5.16,1.66l-2.6.67c-.86.23-1.74.33-2.61.51l-2.62.46c-.87.14-1.74.2-2.61.31-1.74.19-3.49.4-5.22.44l-2.6.12c-.87,0-1.74.07-2.6,0a5.14,5.14,0,0,1-2.58-.8c-.43-.24-.85-.52-1.27-.78a3.1,3.1,0,0,1-1.23-1.66,1.9,1.9,0,0,1,0-1.5v0a3.4,3.4,0,0,1,1.27-1.66c.42-.26.83-.53,1.24-.77a4.62,4.62,0,0,1,2.42-.79h1.21l1.2-.07,2.39-.14c1.61-.06,3.18-.28,4.75-.47.78-.11,1.58-.17,2.35-.31l2.31-.44c6.12-1.22,12-3.3,16.62-6.85a25.66,25.66,0,0,0,9.49-14c1.63-5.64,1.58-11.92.75-18.1a74.75,74.75,0,0,0-1.87-9.28c-.42-1.54-.86-3.06-1.36-4.58l-.78-2.31c0-.11-.06-.16-.11-.32L369,462c-.09-.3-.18-.64-.24-.92-.09-.52-.19-1.06-.26-1.55a80.35,80.35,0,0,1-.31-10.62c.08-3.42.25-6.79.45-10.16.4-6.73,1-13.42,1.57-20.09l1-10a46.47,46.47,0,0,1,.65-5,12.55,12.55,0,0,1,.83-2.44c.3-.81.77-1.61,2.72-2.24a1.65,1.65,0,0,1,1.31.14Z"/><path class="cls-5" d="M288.53,395.63s-16,30.57-12.1,38.95c0,0,6.05,2.47,5.74-2s14-33,8.57-37"/><path class="cls-5" d="M252.76,403.52s-16.88,13.31-16.82,17.75,7.95,3.94,7.95,3.94S264.6,406,255.72,403.52"/><path class="cls-4" d="M87,452.34c2.51-.5,68.59-46.36,133.69-24.17,0,0,40.44,9.87,53.26,54.25"/><path class="cls-3" d="M219.76,473a6.08,6.08,0,0,1-4.67-1.05c-1.22-.69-2.39-1.44-3.54-2.21-2.27-1.57-4.44-3.28-6.75-4.8a122.13,122.13,0,0,0-14.3-8.32,109.5,109.5,0,0,0-31.2-10.16,94.84,94.84,0,0,0-32.53.25l-4,.78-4,1-1,.25-.47.12-.25.11-.51.2-.59.34-.31.17-.31.23-.65.47c-.43.33-.86.75-1.3,1.12a42.5,42.5,0,0,0-5,5.82c-1.57,2.15-3,4.43-4.48,6.78l-2.11,3.56-1,1.82c-.36.62-.69,1.23-1,1.81-.61,1.2-1.29,2.35-1.85,3.57s-1.15,2.43-1.66,3.67A81.8,81.8,0,0,0,91.5,493.9,90,90,0,0,0,90.66,526c.4,2.65,1,5.28,1.62,7.88l1.09,3.88,1.26,4c1.72,5.33,3.56,10.62,5.59,15.81s4.21,10.3,6.63,15.27c.63,1.23,1.22,2.48,1.87,3.69a31.89,31.89,0,0,1,1.74,3.75,33.35,33.35,0,0,1,1.12,4.13c.14.72.3,1.43.47,2.15a2.66,2.66,0,0,1,0,1.23,5,5,0,0,1-.71,1.71v0a1.66,1.66,0,0,1-1.22.79,4.61,4.61,0,0,1-1.85-.09,2.62,2.62,0,0,1-1.13-.57c-.6-.49-1.2-1-1.77-1.48a22.58,22.58,0,0,1-3.17-3.25,23.68,23.68,0,0,1-2.34-3.75c-.7-1.3-1.33-2.62-2-3.93-2.58-5.26-4.88-10.61-7-16s-4-10.88-5.82-16.37l-1.3-4.13-1.23-4.33c-.73-2.92-1.37-5.86-1.83-8.83a96.71,96.71,0,0,1,1.15-35.77,92.07,92.07,0,0,1,5.53-17.11c.6-1.38,1.27-2.73,1.91-4.09s1.41-2.66,2.11-4c.35-.68.71-1.32,1.07-1.93l1.1-1.87c.74-1.25,1.5-2.51,2.29-3.75,1.57-2.49,3.23-5,5.06-7.37a51.21,51.21,0,0,1,6.25-7c.65-.54,1.26-1.1,2-1.62l1.1-.78.55-.37.64-.36,1.27-.68c.47-.21,1-.38,1.48-.56l.76-.26.55-.14,1.09-.25,4.33-1,4.39-.78a103.31,103.31,0,0,1,35.43.34A117.58,117.58,0,0,1,194,449.7a130.3,130.3,0,0,1,15,9.1,73.6,73.6,0,0,1,7,5.35,31.14,31.14,0,0,1,3,3.24,5.67,5.67,0,0,1,1.62,4.71,1,1,0,0,1-.85.9Z"/><path class="cls-4" d="M170.6,485.87s-65.28-29.09-34.22,44.88c0,0,7.79,25.64,34.22,43.4,0,0,27.42,24.16,18.05,55.23"/><path class="cls-4" d="M141.78,440.87s20.78,15.41,11.14,38.1-1.62,47.33,15.14,65.18c15.92,17,34.4,20.92,56.92,23.58a132.71,132.71,0,0,0,36.27-.38c17.33-2.73,34-9.72,47.32-21.29,4.16-3.62,12.19-10.07,13.73-15.81C333.64,487.84,274,472.56,274,472.56"/><path class="cls-4" d="M196.54,422.84s19.73,7.31,8.88,35.41"/><line class="cls-4" x1="91.01" y1="452.27" x2="96.12" y2="468"/><path class="cls-3" d="M84.15,452.8a4.9,4.9,0,0,1-4.25.1c-1.12-.39-2.19-.83-3.23-1.31-2.07-1-4-2.15-6.1-3.13a76.12,76.12,0,0,0-12.63-4.93,51.11,51.11,0,0,0-13-2,31.35,31.35,0,0,0-12.41,2.16,29.62,29.62,0,0,0-10.25,7A44.1,44.1,0,0,0,15,461.42l-1.43,3-1.21,3.14-.61,1.57c-.2.53-.33,1.07-.49,1.6l-1,3.19c-.3,1.07-.46,2.16-.7,3.24A24.24,24.24,0,0,0,9,480.42l-.37,3.27c-.05,1.09,0,2.18-.07,3.27a44.78,44.78,0,0,0,1.82,12.87,51.69,51.69,0,0,0,5.31,12,67,67,0,0,0,8.19,10.5,83.12,83.12,0,0,0,10.18,8.89A90.09,90.09,0,0,0,45.6,538.5a98.85,98.85,0,0,0,12.45,5.66,80.24,80.24,0,0,0,13,3.68c1.09.23,2.19.34,3.28.52s2.17.21,3.24.28a9.72,9.72,0,0,1,3.18.74c.52.18,1.11.48,1.64.61a4.26,4.26,0,0,1,1.93,1.34l.08.08a1.4,1.4,0,0,1,.29,1.4,3.49,3.49,0,0,1-1.58,2,16.19,16.19,0,0,1-1.9,1,8.77,8.77,0,0,1-4,.86c-1.3,0-2.59-.16-3.87-.29s-2.53-.31-3.77-.55a88.75,88.75,0,0,1-14.43-3.91,107.15,107.15,0,0,1-13.55-6A98.7,98.7,0,0,1,29.05,538a84.82,84.82,0,0,1-11.31-9.81,74.91,74.91,0,0,1-9.33-12,60.48,60.48,0,0,1-6.24-14c-.33-1.25-.68-2.5-1-3.75l-.66-3.82-.15-1-.08-1-.15-1.93L0,488.88c0-.65,0-1.29,0-1.94,0-1.28.05-2.57.12-3.85l.45-3.82a32,32,0,0,1,.67-3.77c.29-1.24.49-2.51.85-3.72l1.11-3.63c.2-.6.36-1.22.58-1.81l.69-1.75,1.39-3.49,1.66-3.42A52.16,52.16,0,0,1,16.36,445a37.88,37.88,0,0,1,13.18-8.86,39.29,39.29,0,0,1,15.52-2.6A58.58,58.58,0,0,1,60.13,436,84.43,84.43,0,0,1,74,441.54a50.4,50.4,0,0,1,6.44,3.66,21.17,21.17,0,0,1,2.85,2.43,4.61,4.61,0,0,1,1.65,4.1,1.18,1.18,0,0,1-.72,1Z"/><path class="cls-4" d="M108.27,589.93s-44,55.23-12.15,81.37,82.61-16.77,90-38.47"/><path class="cls-4" d="M96.12,556.39S109.91,537,139.83,539"/><path class="cls-4" d="M105.31,576.78s24.44-17.1,47.07-15.13"/><path class="cls-3" d="M329.45,525.49a22.9,22.9,0,0,1,2.84,7.71,68.64,68.64,0,0,0,2.28,7.32c1.71,4.66,4.35,8.88,8.11,10.46a13.95,13.95,0,0,0,7.95.42c.58-.14,1.1-.24,1.8-.45l4-1.09c5.26-1.43,10.49-2.8,15.39-4.56a42.37,42.37,0,0,0,6.88-3.1,16.42,16.42,0,0,0,5.11-4.29,10.87,10.87,0,0,0,2.05-5.75,21.3,21.3,0,0,0-.77-6.91c-.32-1.19-.67-2.38-1.12-3.57l-.32-.9-.36-1-.72-1.94c-.49-1.29-1-2.6-1.4-3.91s-.92-2.62-1.33-4c-1.67-5.34-3.23-10.85-3.53-17a26.34,26.34,0,0,1,1.36-9.46,21.17,21.17,0,0,1,5.45-8.18,34.59,34.59,0,0,1,7.51-5.3l7.2-3.89c4.83-2.59,9.75-5.13,14.83-7.45a100.29,100.29,0,0,1,15.94-6,43.51,43.51,0,0,1,8.92-1.46,19.25,19.25,0,0,1,10.08,2.06,14.21,14.21,0,0,1,4.33,3.87,9,9,0,0,1,.77,1.2c.22.39.51.85.66,1.19.31.69.66,1.39.92,2.08a83.63,83.63,0,0,1,2.77,8.16c1.56,5.3,2.92,10.43,5,14.9a25.78,25.78,0,0,0,3.67,5.92,14.54,14.54,0,0,0,5,3.78c3.81,1.73,8.66,1.85,13.54,1,1.22-.16,2.46-.5,3.69-.76s2.54-.69,3.8-1c2.57-.65,5-1.54,7.52-2.34a63.84,63.84,0,0,0,13.66-6.64,28.54,28.54,0,0,0,5.35-4.58,16.46,16.46,0,0,0,3.27-5.48,14.21,14.21,0,0,0,.65-6.18c-.09-1-.35-2.48-.56-3.73s-.47-2.55-.75-3.8a60,60,0,0,0-5.09-14.27,49.71,49.71,0,0,0-20.7-21.06,63.6,63.6,0,0,0-14.2-5.52,96.61,96.61,0,0,0-15.33-2.59c-2.62-.16-5.23-.38-7.87-.37s-5.27,0-7.91.08a17.68,17.68,0,0,0-3.42.32c-1.16.22-2.39.52-3.63.85-2.5.68-5,1.47-7.56,2.31-10.14,3.42-20.24,7.43-30.28,11.52l-7.52,3.12c-2.51,1-5,2.08-7.6,2.95s-5.21,1.62-7.88,2.31l-4,1a7.26,7.26,0,0,1-4.52-.13.92.92,0,0,1-.56-1.16l0-.05a7.21,7.21,0,0,1,3-3.44l3.5-2.24c2.33-1.48,4.7-2.89,7.14-4.15s4.94-2.36,7.46-3.42l7.58-3.15c10.15-4.15,20.32-8.2,30.84-11.76,2.65-.88,5.31-1.72,8.08-2.47,1.39-.37,2.81-.72,4.33-1a26.77,26.77,0,0,1,4.7-.48c2.81-.08,5.61-.18,8.44-.09s5.64.22,8.47.4a105.21,105.21,0,0,1,16.87,2.84,72.25,72.25,0,0,1,16.21,6.31,59.52,59.52,0,0,1,14.12,10.57,57.71,57.71,0,0,1,10.3,14.34,68.8,68.8,0,0,1,5.8,16.46c.31,1.41.58,2.83.82,4.23s.45,2.61.63,4.36a23.29,23.29,0,0,1-1.13,9.93,25.29,25.29,0,0,1-5,8.47,37.11,37.11,0,0,1-7,6,72.17,72.17,0,0,1-15.69,7.59c-2.69.85-5.38,1.81-8.1,2.48-1.36.36-2.69.75-4.09,1.09s-2.84.67-4.33.87a39,39,0,0,1-9.1.55,26.06,26.06,0,0,1-9.44-2.28,23.44,23.44,0,0,1-7.9-6,34.19,34.19,0,0,1-4.89-7.95c-2.46-5.47-3.81-11-5.29-16.11a75.18,75.18,0,0,0-2.42-7.34c-.22-.59-.48-1.11-.72-1.66a5.22,5.22,0,0,0-.33-.6,2.76,2.76,0,0,0-.32-.53,6,6,0,0,0-1.7-1.56,11.36,11.36,0,0,0-5.76-1.07,34.72,34.72,0,0,0-7.19,1.14,93.11,93.11,0,0,0-14.7,5.38c-4.86,2.17-9.65,4.6-14.44,7.11l-7.23,3.83a27.23,27.23,0,0,0-5.85,4,13.51,13.51,0,0,0-3.61,5.24,19.09,19.09,0,0,0-1,6.62,60.25,60.25,0,0,0,3.06,15c.37,1.27.79,2.53,1.23,3.8s.86,2.53,1.33,3.8l.69,1.89.7,2c.5,1.37.91,2.79,1.29,4.24a28.23,28.23,0,0,1,.89,9.28,18.61,18.61,0,0,1-1.06,4.91,18.42,18.42,0,0,1-2.44,4.49,23.54,23.54,0,0,1-7.31,6.16,50.13,50.13,0,0,1-8,3.56c-5.38,1.88-10.72,3.21-16,4.6l-3.93,1c-.6.17-1.42.35-2.16.52a17.69,17.69,0,0,1-2.33.38,18.33,18.33,0,0,1-9.76-1.3,18.57,18.57,0,0,1-7.53-6.32,28,28,0,0,1-4-8.21,39.19,39.19,0,0,1-1.57-8.55,14.2,14.2,0,0,1,1.38-8.56.66.66,0,0,1,.9-.26.73.73,0,0,1,.24.22Z"/><path class="cls-3" d="M327.87,535.73a15.06,15.06,0,0,1,2,7.67c.19,2.51.32,5,.42,7.53.16,5,.26,10,.59,15A183.4,183.4,0,0,0,335,595.52c2.26,9.6,5.49,19,10.54,27.1a45,45,0,0,0,9,10.6,33.62,33.62,0,0,0,11.83,6.49,41.48,41.48,0,0,0,6.69,1.33c1.15.06,2.28.21,3.45.18.58,0,1.14,0,1.75,0l1.86-.08,7.45-.35c1.25,0,2.48-.17,3.72-.3l3.72-.38c5-.4,9.88-1.3,14.81-2,2.47-.39,4.9-1,7.36-1.44s4.9-1,7.32-1.62l7.28-1.81,7.21-2.08,3.6-1,3.57-1.18c2.37-.8,4.77-1.53,7.12-2.39,9.44-3.34,18.71-7.2,27.75-11.45a196.48,196.48,0,0,0,26-14.41c.49-.34,1-.67,1.49-1l1.38-1.07,1.39-1,1.54-1.24c2.06-1.65,4.09-3.2,6.11-4.75,4-3.09,8-6.17,11.85-9.35a188.07,188.07,0,0,0,21.56-20.42,93.44,93.44,0,0,0,16-24,48,48,0,0,0,3.94-27c-.22-1.13-.41-2.25-.64-3.37l-.94-3.31a12.2,12.2,0,0,0-.56-1.64l-.63-1.61-.62-1.63-.78-1.67-3.16-6.68-3.53-6.46a107.73,107.73,0,0,0-17.58-23.09c-1.79-1.58-3.48-3.3-5.39-4.71s-3.77-2.87-5.6-4.39c-1-.69-1.88-1.44-2.81-2.2s-1.89-1.47-2.86-2.18-2-1.41-3-2a7.12,7.12,0,0,1-2.78-3.11l-.06-.11a1.09,1.09,0,0,1,.32-1.35,5.27,5.27,0,0,1,1.22-.63,5.15,5.15,0,0,1,1.15-.3,5.66,5.66,0,0,1,2.14.05c1.38.23,2.71.56,4.06.9.68.15,1.32.39,2,.6s1.32.44,2,.68c1.28.51,2.51,1.1,3.75,1.7a43.7,43.7,0,0,1,6.76,4.55c2.18,1.63,4.08,3.54,6.1,5.33a117.15,117.15,0,0,1,19.32,25.27l3.79,6.92,3.37,7.11.83,1.78.76,1.94.75,1.94a16.92,16.92,0,0,1,.67,2l1.15,4c.29,1.37.53,2.75.79,4.13a58.14,58.14,0,0,1-4.63,32.57,100.55,100.55,0,0,1-17.7,26.63,198.31,198.31,0,0,1-22.81,21.4c-4,3.26-8.09,6.41-12.15,9.49-2,1.54-4,3.07-6,4.58L517.5,605l-1.64,1.25-1.65,1.25c-.55.4-1.11.75-1.66,1.12a201.78,201.78,0,0,1-27.42,15.05c-9.4,4.31-19,8.18-28.76,11.53-2.43.87-4.91,1.59-7.36,2.4l-3.69,1.18-3.73,1-7.47,2.07-7.54,1.8c-2.51.64-5.06,1.11-7.6,1.6s-5.07,1-7.63,1.42c-5.13.72-10.24,1.6-15.43,2l-3.88.36c-1.29.13-2.58.26-3.88.28l-7.8.28-1.94.07c-.66,0-1.38,0-2.07,0-1.38,0-2.77-.17-4.16-.27a47.93,47.93,0,0,1-8.24-1.73,41.8,41.8,0,0,1-14.67-8.21,52.82,52.82,0,0,1-10.57-12.61c-5.66-9.28-9-19.45-11.26-29.63a192.26,192.26,0,0,1-4-30.84c-.27-5.16-.46-10.32-.28-15.48.11-2.58.33-5.15.68-7.72s.76-5.14,2.78-7.57a.78.78,0,0,1,1.1-.11,1,1,0,0,1,.17.19Z"/><path class="cls-3" d="M397.32,521.77c1.5.69,1.77,1.06,1.89,1.4a3.42,3.42,0,0,1,.33,1,13.09,13.09,0,0,1-.11,1.88,24.64,24.64,0,0,0,.07,3.66c.21,2.35,1,4.44,2.08,5.48a4.45,4.45,0,0,0,2,1.13,8.68,8.68,0,0,0,2.81.29c.53,0,1.08-.08,1.64-.16s1.15-.18,1.68-.34a9.73,9.73,0,0,0,2.78-1.06,2.76,2.76,0,0,0,1.26-1.17,2.39,2.39,0,0,0,.08-1.31A9.53,9.53,0,0,0,411,528a15.07,15.07,0,0,0-5.29-3.41,9.55,9.55,0,0,0-2.84-.62c-.46-.08-.89.11-1.37-.21a7.28,7.28,0,0,1-.86-.88c-.17-.18-.34-.37-.53-.55a2.22,2.22,0,0,1-.35-.52l-.25-.5-.35-.75-.07-.17a4,4,0,0,1-.31-1.11l-.08-.82v-.55a1.43,1.43,0,0,1,.15-.65l.5-.79a3.86,3.86,0,0,1,1.21-1.18,2.55,2.55,0,0,1,1.4-.34,13.41,13.41,0,0,1,1.42,0,18.56,18.56,0,0,1,5.36,1.07,22.9,22.9,0,0,1,8.74,5.56,20,20,0,0,1,3.24,4.25,15.52,15.52,0,0,1,1.93,5.61,10.81,10.81,0,0,1-1.31,6.81,11.45,11.45,0,0,1-4.85,4.42,18.53,18.53,0,0,1-5.14,1.64,25.21,25.21,0,0,1-5,.41,16.13,16.13,0,0,1-5.44-1,12.05,12.05,0,0,1-4.95-3.46,13.55,13.55,0,0,1-2.67-5,20.52,20.52,0,0,1-.76-5,30.74,30.74,0,0,1,.22-4.73,11.18,11.18,0,0,1,.43-2.28,3.53,3.53,0,0,1,.7-1c.26-.34.67-.66,2.33-.65a2.36,2.36,0,0,1,1,.21Z"/><path class="cls-6" d="M429.31,510.53s-5.92,19.23,11.1,15.29-2.71-26.14-9.13-19"/><path class="cls-3" d="M457,501.58l.78.41.5.33a1.3,1.3,0,0,1,.49.5,4.85,4.85,0,0,1,.33.82,3.63,3.63,0,0,1,0,1.47,17.61,17.61,0,0,0-.06,2.8,7.78,7.78,0,0,0,1.36,4.31,3.87,3.87,0,0,0,1.33,1.08,5.63,5.63,0,0,0,1.93.57,15.83,15.83,0,0,0,5.23-.27l-1.42.49.54-.41a7.84,7.84,0,0,0,.61-.54,8.33,8.33,0,0,0,1-1.16,3.78,3.78,0,0,0,.83-2,1.9,1.9,0,0,0-.11-.76c0-.14-.11-.29-.15-.45s-.14-.33-.28-.52a10.55,10.55,0,0,0-2.06-2.34,38.45,38.45,0,0,0-3.12-2.38c-.55-.33-1.1-.69-1.64-1l-.79-.4-.39-.21-.36-.14a4.42,4.42,0,0,0-1.88-.48s0,0,.07,0,.12,0,0-.16a1.18,1.18,0,0,0-.25-.23,2.69,2.69,0,0,0-.54-.27,3.73,3.73,0,0,0-.75-.18c-.24,0-.6-.11-2-.4l-1-.19a1.85,1.85,0,0,1-.33-.12,7.15,7.15,0,0,1-.81-.45,4.41,4.41,0,0,1-.49-.4,1.19,1.19,0,0,1-.35-.63,6.69,6.69,0,0,1-.22-1.2,4.44,4.44,0,0,1,.1-1.21,3.75,3.75,0,0,1,.53-1.08,5.66,5.66,0,0,1,1.92-1.48,9.5,9.5,0,0,1,2.23-.81,12.86,12.86,0,0,1,2.11-.2,16.06,16.06,0,0,1,1.87.16l1.65.38c.51.16,1,.35,1.46.52l.71.28.63.31,1.27.64c.78.45,1.52.93,2.28,1.41a40.38,40.38,0,0,1,4.16,3.23,18.9,18.9,0,0,1,3.78,4.7,11.55,11.55,0,0,1,1.44,7.1,12.29,12.29,0,0,1-2.9,6.32,17.55,17.55,0,0,1-2.18,2.14c-.38.32-.78.61-1.18.9l-.62.41c-.24.15-.39.25-.76.46l-.12.07a3.49,3.49,0,0,1-1.29.42,23.52,23.52,0,0,1-8-.21,13.18,13.18,0,0,1-4.29-1.72,11.42,11.42,0,0,1-3.5-3.42,14.85,14.85,0,0,1-2.2-8.34,25.52,25.52,0,0,1,.33-3.85,4.61,4.61,0,0,1,.54-1.82,4.25,4.25,0,0,1,.69-.8,1.35,1.35,0,0,1,.7-.31l.6-.07.9,0a1.83,1.83,0,0,1,.9.23Z"/><path class="cls-7" d="M410.08,552.69s-2.71,16,6.9,14.3,12.23-19.23-3.63-16.52"/><path class="cls-3" d="M420.16,581.21c-.46-1.73-.31-2.26-.09-2.55a2.57,2.57,0,0,1,.7-.84,6.34,6.34,0,0,1,1.79-.67,17.07,17.07,0,0,1,3.95-.66A12.65,12.65,0,0,1,431,577a11.13,11.13,0,0,1,4.3,2.49,12.87,12.87,0,0,1,2.76,3.83,19.69,19.69,0,0,1,1.34,4,17.33,17.33,0,0,1,.39,4.33,13.74,13.74,0,0,1-1.09,4.72,11.55,11.55,0,0,1-3.23,4.24,11,11,0,0,1-5,2.33,11.8,11.8,0,0,1-5.4-.29,13.11,13.11,0,0,1-4.46-2.3,17.6,17.6,0,0,1-5.2-7c-.28-.62-.48-1.24-.71-1.86s-.38-1.25-.55-1.87l-.21-.92a1.4,1.4,0,0,1,.06-1,4,4,0,0,1,.93-1.09l.64-.55.22-.14a2.28,2.28,0,0,1,.4-.17l.57-.19.88-.23a6.32,6.32,0,0,1,1.34-.21H419l.92,0h.6l.43,0,.26,0,.77.23a4.63,4.63,0,0,1,1.2.46.84.84,0,0,1,.41.57l.15.61.37,1.16c.15.36.27.74.44,1.08a8.72,8.72,0,0,0,2.21,3.09,2.9,2.9,0,0,0,1.94.76,1.58,1.58,0,0,0,1.31-.88,3.77,3.77,0,0,0,.49-1.36,7.94,7.94,0,0,0,0-2,7.27,7.27,0,0,0-1.19-3.48,2.78,2.78,0,0,0-1-.8,4.66,4.66,0,0,0-1.75-.4,9.73,9.73,0,0,0-2.3.15,5,5,0,0,1-1.24.2,2.22,2.22,0,0,1-.79-.31c-.28-.09-.61-.43-1.55-1.93l-.18-.3A3.24,3.24,0,0,1,420.16,581.21Z"/><path class="cls-3" d="M439.43,542.7c1.31.57,1.61.87,1.71,1.14a2.35,2.35,0,0,1,.32.82,8.21,8.21,0,0,1,0,1.49,15.7,15.7,0,0,0,.18,2.8,6.36,6.36,0,0,0,.73,2.07,2.19,2.19,0,0,0,1,.78,1.82,1.82,0,0,1,.35.06,1.13,1.13,0,0,0,.2,0l.35.05a13.94,13.94,0,0,0,1.41.13,13,13,0,0,0,2.68-.12,7,7,0,0,0,2.12-.65,2.63,2.63,0,0,0,1-.9c0-.19.16-.3.17-.55a2.76,2.76,0,0,0,.09-.77c0-.28-.08-.68-.08-1s-.19-.79-.27-1.18a17.86,17.86,0,0,0-.9-2.47,6.52,6.52,0,0,0-1.13-1.67,2.5,2.5,0,0,0-1.13-.69,4.06,4.06,0,0,0-1.64-.06,8.61,8.61,0,0,0-2.24.66c-.2.08-.4.18-.59.27a1,1,0,0,1-.69.13,4.17,4.17,0,0,1-1-.41l-.62-.29a2,2,0,0,1-.44-.34l-.35-.34-.5-.53-.23-.25a3,3,0,0,1-.48-.7l-.32-.66-.18-.46a1.44,1.44,0,0,1-.09-.58l.1-.76a3.33,3.33,0,0,1,.42-1.27,1.88,1.88,0,0,1,.81-.68l.95-.46a16.71,16.71,0,0,1,4.26-1.31,11.63,11.63,0,0,1,5.11.24,10.8,10.8,0,0,1,4.64,2.79,13.47,13.47,0,0,1,2.66,4,26,26,0,0,1,1.34,4c.13.72.3,1.41.38,2.16l.06,1.17a6.06,6.06,0,0,1,0,1.2,10.58,10.58,0,0,1-.47,2.58,9.9,9.9,0,0,1-1.21,2.55,10.36,10.36,0,0,1-4.2,3.41,14.52,14.52,0,0,1-4.45,1.06A19.43,19.43,0,0,1,445,559a18.79,18.79,0,0,1-2-.32l-.48-.1a5.27,5.27,0,0,1-.62-.19c-.43-.13-.86-.29-1.28-.45a8.81,8.81,0,0,1-3.93-3.77,12.78,12.78,0,0,1-1.25-4.41,21.32,21.32,0,0,1,0-4,8.68,8.68,0,0,1,.32-1.9,2.92,2.92,0,0,1,.59-.87c.2-.28.61-.54,2.05-.53a2.39,2.39,0,0,1,.85.18Z"/><path class="cls-7" d="M450.76,578.09c1-.25,4.5-13.89,19.48-9.3,10.85,3.32-10.61,29.52-14.68,9.3"/><path class="cls-3" d="M471.88,532.18c1,.75,1.19,1.09,1.22,1.36a2.77,2.77,0,0,1,.09.83,10.8,10.8,0,0,1-.37,1.41,15.37,15.37,0,0,0-.48,2.73,6.3,6.3,0,0,0,.18,2.26,1.86,1.86,0,0,0,.76,1.12,6.62,6.62,0,0,0,4.11.43,20.44,20.44,0,0,0,2.74-.55l.62-.18.56-.22a8.65,8.65,0,0,0,1-.49,3.21,3.21,0,0,0,1.12-1.07,2.15,2.15,0,0,0,.23-1.16,5,5,0,0,0-.51-1.77,9.81,9.81,0,0,0-1.27-1.92,9,9,0,0,0-3.65-2.66,3.44,3.44,0,0,0-1.55-.21c-.08,0-.19,0-.27,0s-.17,0-.33-.06-.4-.29-.71-.48c-.16-.08-.32-.17-.5-.24a2.58,2.58,0,0,1-.41-.26l-.34-.27-.5-.41-.17-.13a2.65,2.65,0,0,1-.54-.62l-.35-.54-.18-.39a.92.92,0,0,1-.09-.52c0-.24.08-.5.13-.76a3.28,3.28,0,0,1,.68-1.31,4.77,4.77,0,0,1,2.49-1,10.28,10.28,0,0,1,4.87.44,15.33,15.33,0,0,1,6.84,4.8,13.18,13.18,0,0,1,3.31,8.05,8.74,8.74,0,0,1-1.42,5,10,10,0,0,1-3.65,3.25,14.84,14.84,0,0,1-2,.82c-.33.1-.66.22-1,.31l-1,.21a24.41,24.41,0,0,1-3.69.5,16.14,16.14,0,0,1-4-.19,9.24,9.24,0,0,1-4.34-1.93,7.32,7.32,0,0,1-1.7-2,8.51,8.51,0,0,1-.87-2.31,11.84,11.84,0,0,1-.09-4.22,19.65,19.65,0,0,1,.88-3.63,7.89,7.89,0,0,1,.68-1.68,2.79,2.79,0,0,1,.69-.68c.24-.23.64-.39,1.88-.13a1.87,1.87,0,0,1,.7.32Z"/><path class="cls-3" d="M483.54,559.65c-.39-1.39-.24-1.88,0-2.16a3.29,3.29,0,0,1,.73-.86,9.51,9.51,0,0,1,1.86-.93,29.07,29.07,0,0,1,4-1.4,21.48,21.48,0,0,1,4.42-.7,13.93,13.93,0,0,1,4.87.61,11.74,11.74,0,0,1,4.56,2.7c.32.3.61.63.9,1s.53.68.79,1a14,14,0,0,1,1.25,2.28,13.59,13.59,0,0,1-.05,10.19,14.43,14.43,0,0,1-6.72,7.6c-.4.21-.85.36-1.27.53a8.52,8.52,0,0,1-1.32.44,12.25,12.25,0,0,1-5.69,0,11.64,11.64,0,0,1-1.34-.43,7.57,7.57,0,0,1-1.27-.54l-1.19-.66-1.07-.77a8.23,8.23,0,0,1-1-.84c-.31-.3-.63-.6-.92-.91a14.8,14.8,0,0,1-1.53-2c-.23-.35-.46-.71-.66-1.07l-.55-1.13a19.75,19.75,0,0,1-.87-2.37,16.42,16.42,0,0,1-.45-2.52l-.1-1.3a3,3,0,0,1,.28-1.31,2.61,2.61,0,0,1,.41-.61,4.16,4.16,0,0,1,.63-.54q.35-.26.69-.48a1.08,1.08,0,0,1,.57-.16H484l.73.06a3.39,3.39,0,0,1,1,.25l.17.08.68.3.44.22a1.91,1.91,0,0,1,.48.3l.5.46c.17.14.32.26.44.38a2,2,0,0,1,.36.34.65.65,0,0,1,.17.58l.07.59a7.25,7.25,0,0,0,.23,1.2,9.94,9.94,0,0,0,.46,1.18,9.4,9.4,0,0,0,1.39,2.11l.44.42a2.27,2.27,0,0,0,.45.38l.45.35.48.25a4,4,0,0,0,1.83.48,3.15,3.15,0,0,0,.91-.08c.16,0,.32-.11.48-.15s.33-.09.48-.17a7,7,0,0,0,3.23-3.43,6.28,6.28,0,0,0,.43-4.59,5.92,5.92,0,0,0-.5-1.08,6.81,6.81,0,0,0-.69-1,4.84,4.84,0,0,0-1.82-1.26,10.36,10.36,0,0,0-5.68-.2,24.34,24.34,0,0,0-3.23.9,13,13,0,0,1-1.62.57,3.19,3.19,0,0,1-1,0c-.33,0-.73-.19-1.67-1.27l-.1-.1A2.31,2.31,0,0,1,483.54,559.65Z"/></g></g></svg>