<svg xmlns="http://www.w3.org/2000/svg" viewBox="0 0 599.46 736.82"><defs><style>.cls-1{fill:#bf452d;}.cls-2{fill:#f8f0de;}.cls-3{fill:#231815;}.cls-4,.cls-5,.cls-6{fill:none;stroke:#231815;stroke-linecap:round;stroke-linejoin:round;}.cls-4{stroke-width:8px;}.cls-5{stroke-width:7.87px;}.cls-6{stroke-width:10px;}</style></defs><g id="레이어_2" data-name="레이어 2"><g id="레이어_2-2" data-name="레이어 2"><path class="cls-1" d="M410.46,41.39s-52-49.31-154,12.33c-22.89,13.84-51.78,42-57.42,81,0,0-20.49,14.66-33.32,33.65s-14.79,18.49-3.94,14.05,18.74.66,18.74,2.55v1.89S172.66,232.74,183,251c0,0,13.39-3.45,16.06-21.7h0L222.63,253s8.71,71,53.1,83.35,38.46,5.75,38.46,5.75,5.9-14.93,7.88-11.82,6.67,3.73,6.67,3.73-12.07,38-6.16,36.86c2.46-.5,23.44-7.19,23.44-7.19l.41,13.6s2.12,12-8.4,18.35A104.48,104.48,0,0,0,320.27,409l-10-3.69L338,382.76s-2.29-5.94-3.95-5.26-23.83,9.1-23.83,9.1v-11s-14.56.08-12.7,33.38,0,29.86,0,29.86l20.87-10.49s18,48.94,23.65,68.66,8.61,32.55,3.19,38l-3.19-4.79s-11.77,9.8-21.8,17.12h18.86s-2.26,9.9-1.1,14.3-23.55,9.91-26.9,10.74c0,0-236.63,101.27-267.32,125.86L8,718s-.6,7.48,0,7.21-1,10.11,5.42,7.61S40.49,721,40.49,721s3,6.91,13.32,7.89,71.51-18,98.63-23.56,168.47-42.9,173-42.22,12.59,0,12.59,0,14.13,40.34,51.12,25.49l17-5.57s19-10.1,19.95,0,9.59,10.73,9.59,10.73,4.57,31.19,14,36.12,21.72,6.41,27.91-2.46,2-26.49,2-26.49-17.51,8.72-27.13,3.79S431.79,683,431.79,683s-7.13-8.16,8.65-11.23c0,0,7.05,46,87.85-2.71l10.29-6s30,57.37,42.39,52.45,18.26-8.86,14.32-59.16-10.36-59.67-20.71-70-35.5,17.37-35.5,17.37-41.93,44.43-56.72,38.19c0,0-6.89-18.08-2.71-26,0,0,60.4-25.64,61.88-35.5L546,573.7l-17.68-47.9S594.3,501,579,536.52s-30.43,30.9-30.43,30.9-6.79,16.93,11.08,16,44.5-18.74,39.08-59.68-75.24-16.44-75.24-16.44-18.65-26-25.21-29.91c0,0,12.67-15.23,15.13-24.88s-3.48-13.09-3.48-13.09-17.72-7.78-18.21-15.23c0,0,10.85-58.25,0-81.93s-18.66-20.71-18.66-20.71l-5-13.81s-13.82-8.36-25.89-1.22c0,0,20,1.24,28.85-24.16,0,0,19.73,2.7,30.58-9.14s17.75-27.67,17.75-27.67,31.07-1.05,28.11-41.92-4.44-35.2-4.44-35.2,4-4.69,4-20,6.9-83.89-72.49-115.67C474.47,32.74,446.56,20.68,410.46,41.39Z"/><path class="cls-2" d="M338,206.12s-1.38,17.29,9.2,23.16,33.12,17.65,55.56-1.09,41.59-49.27,21.37-83.27l-26.94,3.49s26.94,17.75,4.46,57.71c-1,1.81-26.5,19.88-38.17,14.17-23.76-11.6-18.25-31.45-18.25-31.45L338,203.58Z"/><path class="cls-2" d="M213.59,211s-15.42-4.17-14.52,18.24,16.77,53.76,43,50.8,53.76-33.24,43-47.37c-1.9-2.5-20-18.65-20-18.65s2,36.43-3.31,38.89-6.83,18.81-28.52,9.41S213.59,211,213.59,211Z"/><path class="cls-3" d="M413.32,26.81a7.38,7.38,0,0,1-5.1-1.22c-1.38-.72-2.71-1.49-4.05-2.25-2.65-1.55-5.25-3.22-8-4.59A90.14,90.14,0,0,0,378.82,12a116.43,116.43,0,0,0-37.18-3.82,158.42,158.42,0,0,0-18.78,2.1c-6.2,1.17-12.39,2.5-18.48,4.29A242,242,0,0,0,268.72,28l-4.34,2c-1.32.62-2.71,1.38-4.08,2.13-2.74,1.52-5.46,3.14-8.13,4.82-5.34,3.39-10.54,7-15.55,10.9a190.52,190.52,0,0,0-27.52,26,155.49,155.49,0,0,0-11.46,15,135.76,135.76,0,0,0-9.46,16.3,127.61,127.61,0,0,0-7.1,17.41l-1.4,4.49-1.18,4.56a15.49,15.49,0,0,1-.77,2.23,20.66,20.66,0,0,1-1,2.2l-1.21,2.18a5,5,0,0,1-2.09,2.07l-1.51-.24a4.72,4.72,0,0,1-1.17-2.7c-.1-.85-.21-1.72-.29-2.58a18.47,18.47,0,0,1-.1-2.57,17.18,17.18,0,0,1,.4-2.47c.39-1.62.78-3.24,1.2-4.85l1.46-4.79a135,135,0,0,1,7.41-18.54,143.6,143.6,0,0,1,9.88-17.32,164.4,164.4,0,0,1,12-15.91,192.06,192.06,0,0,1,28.73-27.28q7.83-6.07,16.21-11.39c2.81-1.76,5.65-3.46,8.56-5.07,1.47-.81,2.92-1.61,4.52-2.36l4.48-2.05a248,248,0,0,1,37-13.67,195.24,195.24,0,0,1,19.34-4.36A165.75,165.75,0,0,1,341.27.14,124.51,124.51,0,0,1,381,4.49,97.66,97.66,0,0,1,399.7,11.9a56.53,56.53,0,0,1,8.65,5.31,29.51,29.51,0,0,1,3.77,3.48,6.46,6.46,0,0,1,2.17,5.2Z"/><path class="cls-3" d="M183.42,136.33a5.21,5.21,0,0,1-.13,2.2,4,4,0,0,1-.73,1.48c-.62.82-1.24,1.64-1.92,2.39a55.69,55.69,0,0,1-4.34,4.22q-4.44,4.11-8.71,8.38c-5.69,5.71-11.19,11.59-16.29,17.74-2.56,3.07-5,6.22-7.32,9.43a108.19,108.19,0,0,0-6.42,9.88,68,68,0,0,0-4.9,10.34,30.65,30.65,0,0,0-2,10.37l-6.64-4.1c8.59-4.4,17.17-8.83,25.78-13.17L175.6,182.4a5,5,0,0,1,5.83,7.91l-.38.39-.45.46c-.2.21-.41.47-.61.7-.42.45-.8,1-1.2,1.55a31.56,31.56,0,0,0-2.14,3.51,40.07,40.07,0,0,0-1.82,3.79c-.52,1.32-1,2.68-1.45,4A59.27,59.27,0,0,0,171,222.08v3.35l.09,1.13.34,4.49c.06,1.5.39,3,.59,4.49l.69,4.5,2,8.92a14.48,14.48,0,0,1,.44,4.68c0,.82-.15,1.66-.22,2.5a4.2,4.2,0,0,1-.23,1.3,5.17,5.17,0,0,1-1.37,1.69l0,0a1.88,1.88,0,0,1-1.38.45,4.43,4.43,0,0,1-2.05-.59,4.22,4.22,0,0,1-.92-1c-.53-.68-1.09-1.36-1.58-2.06a16.16,16.16,0,0,1-2.29-4.44c-.84-3.18-1.5-6.41-2.25-9.62L162.1,237c-.22-1.65-.58-3.26-.65-4.94l-.39-5-.1-1.24V222a69.53,69.53,0,0,1,2.77-20.23c.57-1.65,1.11-3.31,1.76-4.93a48.82,48.82,0,0,1,2.29-4.79,41,41,0,0,1,2.88-4.57c.58-.73,1.08-1.47,1.74-2.19.32-.36.62-.71,1-1.08l.55-.55.3-.29.4-.36,5.45,8.3-26,12.81c-8.65,4.28-17.33,8.48-26,12.72l-.11,0a4.54,4.54,0,0,1-6.07-2.09,4.62,4.62,0,0,1-.46-2.07,39.31,39.31,0,0,1,2.82-13.47,76.87,76.87,0,0,1,5.79-11.63,119.65,119.65,0,0,1,7.11-10.48q3.78-5,7.88-9.72c5.44-6.29,11.21-12.22,17.15-17.94q4.47-4.28,9.08-8.4a44,44,0,0,1,4.79-3.92,27.87,27.87,0,0,1,2.7-1.61,3.91,3.91,0,0,1,1.6-.5,5.26,5.26,0,0,1,2.22.24,1.19,1.19,0,0,1,.81,1Z"/><path class="cls-4" d="M194.11,197.6s-5.18,154.23,116.14,156.45"/><path class="cls-4" d="M172.66,262.32a39.29,39.29,0,0,0,23.85-29.61"/><path class="cls-4" d="M285.1,232.71c-20.24-27.92-63-41.92-88.59-13.67"/><path class="cls-4" d="M285.1,236.43c-4.41,17.28-13.24,38.2-31.7,44-26.86,8.4-43.1-12.5-54.33-32.88"/><path class="cls-3" d="M216.32,206.13c1.44.66,1.74,1.29,1.91,1.93a11.37,11.37,0,0,1,.48,1.91c.2,1.28.18,2.57.3,3.85q.28,3.84.8,7.66a101.52,101.52,0,0,0,3.1,14.92,49.9,49.9,0,0,0,6,13.35,25.2,25.2,0,0,0,4.53,5.07,16.65,16.65,0,0,0,5.6,3,17.75,17.75,0,0,0,6.38.61,20.28,20.28,0,0,0,6.38-1.48,12.85,12.85,0,0,0,4.86-3.52,16.6,16.6,0,0,0,3-5.5,37.21,37.21,0,0,0,1.33-14,66.26,66.26,0,0,0-.93-7.37c-.11-.61-.22-1.23-.35-1.84a6.84,6.84,0,0,1-.2-1.87,8.79,8.79,0,0,1,.41-2l.31-1.06a1.35,1.35,0,0,1,.37-.6l.4-.36.62-.44.08,0a1.69,1.69,0,0,1,1.05-.3l.77,0,.53.11a1.4,1.4,0,0,1,.65.35l.83.84a8,8,0,0,1,1.36,1.78,7.12,7.12,0,0,1,.65,2c.15.68.28,1.35.41,2a77.53,77.53,0,0,1,1.1,8.25,43.6,43.6,0,0,1-1.72,17.16,23.47,23.47,0,0,1-4.62,8.18,20.78,20.78,0,0,1-7.84,5.54,28,28,0,0,1-8.92,1.94,17.26,17.26,0,0,1-2.28,0,14.92,14.92,0,0,1-2.31-.13l-2.32-.34-2.28-.63a24.39,24.39,0,0,1-8.1-4.59,32.55,32.55,0,0,1-5.75-6.8,55.92,55.92,0,0,1-6.43-15.48,106.69,106.69,0,0,1-2.83-16q-.4-4-.58-8a36.1,36.1,0,0,1-.06-4,10.32,10.32,0,0,1,.4-2c.15-.67.45-1.36,1.9-2a1.18,1.18,0,0,1,1,0Z"/><path class="cls-3" d="M251.62,205.78a3,3,0,0,1,0-.94c.07-.3.06-.53.14-.76a6.29,6.29,0,0,1,.43-1.31,7.53,7.53,0,0,1,1.36-2c1-1.2,2.06-2.32,3.15-3.41,2.19-2.14,4.58-4,6.89-6l13.9-11.85q13.86-11.9,27.43-24.05c9-8.13,17.9-16.39,26.4-24.95,4.24-4.28,8.4-8.63,12.27-13.13l2.83-3.39c.9-1.15,1.79-2.3,2.65-3.45s1.69-2.32,2.34-3.48c.32-.57.75-1.17,1-1.72l.82-1.66.08-.18a4.7,4.7,0,0,1,8.88,2.71c-.92,6.75-1.7,13.64-2.34,20.45a202.66,202.66,0,0,0-1,20.3c0,1.65.08,3.29.22,4.85a24.35,24.35,0,0,0,.67,4.24,5.47,5.47,0,0,0,.24.72c.07.2.14.29.13.3a1.48,1.48,0,0,0-.56-.53,2.82,2.82,0,0,0-.91-.4,3.44,3.44,0,0,0-.46-.08c-.14,0-.3,0-.35,0l-.24,0h-.08c-.08,0,0,0,0,0l.19-.09.28-.15a14.23,14.23,0,0,0,1.49-1.08,46,46,0,0,0,6.35-6.81c2-2.57,3.91-5.29,5.71-8.09a138.54,138.54,0,0,0,16.26-36.6,120.2,120.2,0,0,0,3.79-19.63c.17-1.65.32-3.3.41-5s.15-3.31.36-5a39.75,39.75,0,0,1,1-5c.23-.85.42-1.7.64-2.56a4.06,4.06,0,0,1,2-2.72l0,0a1.48,1.48,0,0,1,1.45-.12,4,4,0,0,1,2.41,2.47c.31.88.63,1.76.92,2.65A26.28,26.28,0,0,1,402,73.8a22.49,22.49,0,0,1,.1,2.72c0,.91-.05,1.82-.1,2.73-.1,1.81-.26,3.62-.44,5.42a130.73,130.73,0,0,1-4.08,21.27,148,148,0,0,1-17.42,39.34,101.81,101.81,0,0,1-6.33,8.92,55.06,55.06,0,0,1-7.95,8.3,21.47,21.47,0,0,1-2.76,1.93l-.86.47c-.33.15-.64.3-1,.44a9.42,9.42,0,0,1-1.23.39l-.72.15c-.29,0-.59.07-.88.09a5.83,5.83,0,0,1-1,0,5.19,5.19,0,0,1-1.1-.19,7,7,0,0,1-2.09-.91,8.17,8.17,0,0,1-2.34-2.41,13.48,13.48,0,0,1-1.59-3.79,33.77,33.77,0,0,1-.94-6c-.15-1.9-.21-3.74-.22-5.56a212.91,212.91,0,0,1,1.22-21.31c.69-7,1.58-13.94,2.66-20.94l9,2.54-1.22,2.43c-.41.82-.89,1.47-1.33,2.2-.88,1.49-1.87,2.72-2.82,4.07s-2,2.52-3,3.76l-3.08,3.57c-4.16,4.69-8.5,9.09-12.91,13.4-8.81,8.61-17.92,16.81-27.13,24.87s-18.55,15.94-27.93,23.76l-14.11,11.66c-2.36,1.93-4.65,3.93-7.12,5.72q-1.86,1.32-3.82,2.51a6.42,6.42,0,0,1-4.76,1.17l-.5-.08A.7.7,0,0,1,251.62,205.78Z"/><path class="cls-3" d="M400.38,71.91a5.39,5.39,0,0,1,3.16,2c.57.85,1.11,1.71,1.62,2.59a47,47,0,0,1,2.61,5.4q2.36,5.52,5,10.92a220.87,220.87,0,0,0,11.42,21c2.1,3.36,4.29,6.66,6.62,9.83s4.8,6.19,7.41,9.06a68.87,68.87,0,0,0,8.39,7.77A39.5,39.5,0,0,0,456,146a4.16,4.16,0,0,1,2.59,3.25v0q2,13.43,3.81,26.84c.61,4.48,1.2,9,1.73,13.48q.41,3.38.76,6.79c.11,1.15.23,2.28.32,3.46l.13,1.78.07,1.94-5.66-4.06.45-.19c.19-.08.38-.16.59-.27.41-.22.82-.4,1.23-.65l1.23-.74c.41-.26.8-.56,1.2-.84a23.37,23.37,0,0,0,2.32-1.81,28,28,0,0,0,2.19-2c.34-.36.73-.68,1-1.07l1-1.15a24,24,0,0,0,1.88-2.36l1.75-2.48,1.53-2.66a65.94,65.94,0,0,0,7.38-23.78,152.28,152.28,0,0,0,.65-25.89c-.16-4.41-.38-8.81-.69-13.17l-.26-3.25A31.66,31.66,0,0,1,483,114a10.1,10.1,0,0,1,.16-1.62c.09-.54.2-1.07.33-1.63s.21-1,.34-1.59a3.22,3.22,0,0,1,.16-.42,2.32,2.32,0,0,1,.2-.38c.15-.27.37-.58.66-1l.13-.19a1.22,1.22,0,0,1,1.24-.49,3.64,3.64,0,0,1,2,1.37c.36.53.73,1.14,1,1.67a18.66,18.66,0,0,1,.86,1.66,12,12,0,0,1,.59,1.68,23.51,23.51,0,0,1,.48,3.41l.3,3.39c.36,4.49.62,9,.83,13.44a161.5,161.5,0,0,1-.49,27.32,72.28,72.28,0,0,1-8.23,26.83c-.59,1-1.17,2.09-1.79,3.12l-2.08,3a29.11,29.11,0,0,1-2.27,2.84l-1.18,1.39c-.4.46-.86.87-1.29,1.3a33.69,33.69,0,0,1-2.69,2.51,36.24,36.24,0,0,1-2.92,2.28c-.51.35-1,.73-1.54,1.06l-1.62,1c-.54.33-1.15.6-1.72.9-.27.15-.6.29-.92.43l-.47.21-.62.23a4.19,4.19,0,0,1-5.39-2.48,4,4,0,0,1-.26-1.26v-.31l-.06-1.44-.12-1.6c-.08-1.06-.2-2.17-.31-3.27q-.35-3.32-.74-6.65L454,177.25q-1.73-13.38-3.6-26.77l2.58,3.27A47,47,0,0,1,441.54,147a76.67,76.67,0,0,1-9.37-8.78c-2.83-3.15-5.44-6.44-7.91-9.81s-4.71-6.86-6.89-10.39a232.94,232.94,0,0,1-11.66-21.8q-2.64-5.58-5-11.26a35.62,35.62,0,0,1-2-5.84c-.24-1-.44-2-.59-3.08a5.25,5.25,0,0,1,1-3.67,1.15,1.15,0,0,1,1.23-.45Z"/><path class="cls-3" d="M347.88,417.47c2,.06,2.58.56,3,1.11a8.18,8.18,0,0,1,1.13,1.69,32,32,0,0,1,1.3,3.67l2.43,7.38,4.87,14.76,9.72,29.53c3.19,9.86,6.35,19.72,9.41,29.62l4.55,14.86,2.24,7.44.56,1.86a5.23,5.23,0,0,1,.3,1.94,7.59,7.59,0,0,1-.54,2.2l-.45,1.16a1.91,1.91,0,0,1-.53.67l-.53.41-.85.52a3.24,3.24,0,0,1-1.49.46l-1,0-.67,0a1.65,1.65,0,0,1-.81-.26l-1-.7a7.65,7.65,0,0,1-1.69-1.52,5.23,5.23,0,0,1-.84-1.77l-.58-1.86-2.32-7.41-4.57-14.86c-3-9.9-5.95-19.84-8.84-29.8l-8.53-29.89-4.25-14.95-2.13-7.48a34,34,0,0,1-1-3.76,8.09,8.09,0,0,1,0-2c0-.68.22-1.42,1.84-2.59A2,2,0,0,1,347.88,417.47Z"/><path class="cls-3" d="M413.44,29.49a4.47,4.47,0,0,1,2.07-3.92,18.74,18.74,0,0,1,3.18-2,37.51,37.51,0,0,1,7-2.41,60.26,60.26,0,0,1,14.69-1.94,67.85,67.85,0,0,1,28.67,6.23c1.14.45,2.2,1.05,3.3,1.59s2.19,1.08,3.22,1.71l3.16,1.84,3,2,1.52,1,1.45,1.08,2.91,2.16,2.79,2.3c.92.78,1.88,1.51,2.74,2.34a157.46,157.46,0,0,1,19.31,21.08,224,224,0,0,1,16.08,23.36,111.51,111.51,0,0,1,11.52,26.45,79.47,79.47,0,0,1,2.63,14.4,110.88,110.88,0,0,1,.35,14.44l-.16,3.56-.06,1.61,0,1.67c0,2.26,0,4.63-.06,7a54.3,54.3,0,0,1-.63,7.47,9.54,9.54,0,0,1-.59,1.93,9.12,9.12,0,0,1-1.13,1.84c-.23.3-.47.58-.71.86s-.55.56-.81.82a2.9,2.9,0,0,1-1,.66,3.24,3.24,0,0,1-1.47.21,1.34,1.34,0,0,1-1.1-.76l-.09-.2a5.88,5.88,0,0,1-.67-2.09c0-.27,0-.5-.07-.76l-.13-.78a8.63,8.63,0,0,1-.11-3,50,50,0,0,0,.46-6.4c0-2.22,0-4.49,0-6.87V146.2l.06-1.87.12-3.39c.23-9-.45-17.88-2.95-26.31a107,107,0,0,0-10.74-24.42,221.69,221.69,0,0,0-15.48-22.47,148.69,148.69,0,0,0-18.07-20.1c-.8-.79-1.68-1.47-2.53-2.2l-2.56-2.15-2.66-2-1.33-1-1.38-.92-2.76-1.86-2.85-1.68c-.94-.59-1.92-1.07-2.9-1.58s-1.94-1-3-1.45A59.78,59.78,0,0,0,440.48,27a52.53,52.53,0,0,0-12.85,1.59c-2.11.5-4.14,1.23-6.21,1.84-1,.29-2.1.54-3.19.76a4.9,4.9,0,0,1-4.06-.61l-.13-.07A1.16,1.16,0,0,1,413.44,29.49Z"/><path class="cls-4" d="M488.64,143.23s42.78-17.76,50.92,48.82-59.92,55.47-59.92,55.47"/><path class="cls-4" d="M429.42,145.45c-78.24-9.54-95.34,63.12-95.34,63.12"/><path class="cls-4" d="M338,208.57s6.9,37.32,45.37,27.86,46-45.28,46-45.28,6.25-22.69,0-42.74"/><path class="cls-3" d="M345.77,188.82a3.09,3.09,0,0,1,2.13,2,15,15,0,0,1,.76,2.05c.4,1.37.64,2.77,1.07,4.13a38.24,38.24,0,0,0,3.18,7.75,26.51,26.51,0,0,0,4.88,6.4,20.35,20.35,0,0,0,6.55,4.15c4.85,1.89,10.44,1.88,15.91.75,1.37-.27,2.74-.61,4.1-1a20.93,20.93,0,0,0,3.65-1.35,23.53,23.53,0,0,0,6.27-4.61,42.05,42.05,0,0,0,8.89-13.85,46.55,46.55,0,0,0,2.45-8,33.57,33.57,0,0,0,.61-4c.12-1.28.16-2.74.18-4.2a79.79,79.79,0,0,0-1.4-17.08,25.09,25.09,0,0,0-1.1-3.76,10.15,10.15,0,0,0-1.52-2.78,2.86,2.86,0,0,0-.68-.61,1.51,1.51,0,0,1-.48-.31,4.63,4.63,0,0,0-1.12-.73,4.81,4.81,0,0,0-1-.33c-.34-.05-.77-.28-1.65-1.18l-.05-.06a1.81,1.81,0,0,1-.5-1c-.21-1.24,0-1.81.4-2.14a9.58,9.58,0,0,1,1.19-1.07,6,6,0,0,1,3.37-1.18,7.24,7.24,0,0,1,3.8,1.06,10.6,10.6,0,0,1,2.75,2.31,17.38,17.38,0,0,1,2.93,5.07,33.89,33.89,0,0,1,1.49,4.92,63.13,63.13,0,0,1,1.35,9.57c.23,3.15.31,6.28.26,9.42,0,1.56-.07,3.13-.25,4.85a41.88,41.88,0,0,1-.81,4.93,53.94,53.94,0,0,1-3,9.3,49.5,49.5,0,0,1-10.83,16.3,31,31,0,0,1-8.43,5.87,28,28,0,0,1-4.88,1.68c-1.55.41-3.12.77-4.72,1a43,43,0,0,1-9.85.64,30.28,30.28,0,0,1-9.93-2.25,27.2,27.2,0,0,1-8.52-5.73,32.44,32.44,0,0,1-5.86-8.12,43.36,43.36,0,0,1-3.45-9.08,30.5,30.5,0,0,1-1-4.71,11,11,0,0,1,.06-2.43,3,3,0,0,1,1.68-2.55,1,1,0,0,1,.94-.08Z"/><path class="cls-3" d="M302.46,300c1.17-1.54,1.7-1.79,2.23-1.87a8.46,8.46,0,0,1,1.51-.31c.92-.09,1.78,0,2.59-.14a6.79,6.79,0,0,0,1.16-.29,3.55,3.55,0,0,0,.54-.21l.26-.11.32-.16c.92-.47,2-1.09,3-1.67,4.1-2.41,8.19-5,12.2-7.6s8-5.35,11.79-8.17c1.9-1.42,3.77-2.86,5.56-4.34a49,49,0,0,0,4.87-4.56c.34-.37.64-.75.91-1.1l.35-.49.22-.38c0-.09,0,0,.07-.16s.15-.5.31-.86a6.68,6.68,0,0,1,.63-1.17c.1-.14.2-.28.32-.42a3.67,3.67,0,0,1,.41-.44,4.85,4.85,0,0,1,1.47-1,4.93,4.93,0,0,1,2.22-.36,5.16,5.16,0,0,1,1.72.47,7,7,0,0,1,.61.34l.39.28a4.78,4.78,0,0,1,.59.54c.18.18.29.32.4.45s.22.28.3.39a13.23,13.23,0,0,1,1.3,2.36c.31.68.56,1.33.79,2,.46,1.28.84,2.52,1.19,3.76.7,2.49,1.27,4.95,1.76,7.44a72,72,0,0,1,1.12,7.62,36.65,36.65,0,0,1,.16,4.15,14.68,14.68,0,0,1-.27,2.56,7.22,7.22,0,0,1-.73,2,4.43,4.43,0,0,1-.5.76c-.12.15-.24.29-.37.43a5,5,0,0,1-.52.46l-.3.21a1.55,1.55,0,0,1-.25.16l-.35.18c-.24.11-.48.21-.73.3a8.38,8.38,0,0,1-1.13.27c-.3,0-.59.07-.89.09a12.9,12.9,0,0,1-1.43,0,19.82,19.82,0,0,1-2.31-.35c-1.4-.3-2.67-.67-3.92-1.06-2.48-.8-4.83-1.7-7.15-2.65-1.15-.47-2.3-.95-3.44-1.46a3,3,0,0,1-1.39-1.47c-.19-.35-.36-.73-.54-1.09a2,2,0,0,1-.19-.71l0-.5.06-.68a2.17,2.17,0,0,1,.61-1.35l0,0,.47-.49.39-.32a2,2,0,0,1,.64-.33c.38-.12.77-.25,1.13-.35a3,3,0,0,1,2,0l3.29,1.32c2.2.85,4.42,1.65,6.58,2.3,1.08.32,2.15.6,3.13.79a11.11,11.11,0,0,0,1.3.17c.2,0,.3,0,.39,0h0a.6.6,0,0,0-.24.06,1.43,1.43,0,0,0-.31.12l-.15.09-.15.09-.21.15a2.92,2.92,0,0,0-.35.31,1.71,1.71,0,0,0-.22.25,2.89,2.89,0,0,0-.26.38c-.2.37-.15.38-.15.31a9.24,9.24,0,0,0,.07-1.06,30.08,30.08,0,0,0-.2-3.14,88.8,88.8,0,0,0-2.67-13.56c-.31-1.09-.64-2.17-1-3.18-.18-.5-.37-1-.56-1.41a5.5,5.5,0,0,0-.43-.84l0,0,.1.11.26.22a.8.8,0,0,0,.21.15,2.48,2.48,0,0,0,.4.23,3.64,3.64,0,0,0,1.29.34,3.8,3.8,0,0,0,1.77-.28l.38-.19.29-.18a2.86,2.86,0,0,0,.43-.35l.26-.27a1.08,1.08,0,0,0,.18-.24c.29-.45.22-.41.21-.36a14.9,14.9,0,0,1-.6,1.52c-.23.41-.46.81-.7,1.21l-.7,1a9.38,9.38,0,0,1-.71.88c-.24.29-.48.58-.71.82a57.19,57.19,0,0,1-5.84,5.34c-2,1.6-4,3.1-6,4.56-4,2.91-8.15,5.63-12.32,8.26s-8.37,5.15-12.71,7.58c-1.11.61-2.16,1.2-3.41,1.82l-.5.24-.57.24c-.39.15-.78.31-1.18.42a14.41,14.41,0,0,1-2.39.53,12.38,12.38,0,0,1-4.67-.12,6.63,6.63,0,0,1-2.08-1c-.64-.38-1.28-1-1.24-3a1.64,1.64,0,0,1,.35-1Z"/><path class="cls-3" d="M346.82,350.9c-2.2.46-2.58-.41-3.44-.95a13.8,13.8,0,0,1-2-2c-1.23-1.45-2.51-2.84-3.81-4.2a59.83,59.83,0,0,0-8.27-7.3A20.57,20.57,0,0,0,324.9,334c-1.4-.5-2.64-.6-3.19-.25-.18,0-.31.2-.48.28s-.13.16-.21.23a.82.82,0,0,0-.24.27,5.69,5.69,0,0,0-.53.81,7.75,7.75,0,0,0-.52,1,27.75,27.75,0,0,0-1.66,4.89c-1.77,7.08-2.45,14.77-3,22.37s-.78,15.37-.78,23l-5.38-3.81c5.92-2.12,11.85-4.35,17.71-6.63,2.93-1.14,5.84-2.31,8.69-3.54l2.1-.93c.71-.31,1.37-.67,2.08-.9a6.7,6.7,0,0,1,2.3-.27l1.2.05a1.33,1.33,0,0,1,.63.14c.16.06.31.21.47.29s.47.3.73.42l.22.09a1.36,1.36,0,0,1,.68.68,3.21,3.21,0,0,1,.3.83,5.4,5.4,0,0,1,0,.68,1.67,1.67,0,0,1-.32.86c-.27.43-.56.9-.83,1.29a7,7,0,0,1-1.91,2,16.15,16.15,0,0,1-2.22,1.15l-2.24,1c-3,1.31-5.95,2.52-8.93,3.71s-6,2.32-9,3.44-6,2.21-9,3.27l-.06,0a4,4,0,0,1-5.09-2.45,3.92,3.92,0,0,1-.23-1.38c.12-7.93.49-15.71,1.16-23.58.33-3.93.79-7.85,1.38-11.79a97.75,97.75,0,0,1,2.47-11.86,35,35,0,0,1,2.28-6.06,12.9,12.9,0,0,1,.87-1.56,12.59,12.59,0,0,1,1.13-1.58,7.67,7.67,0,0,1,.75-.79c.28-.25.55-.52.85-.75a9.25,9.25,0,0,1,2.07-1.14,9.51,9.51,0,0,1,2.26-.58,11.09,11.09,0,0,1,2.16,0,13.79,13.79,0,0,1,3.72.95,27,27,0,0,1,5.72,3.37A65.94,65.94,0,0,1,342,339.6c1.35,1.49,2.64,3,3.91,4.54a12,12,0,0,1,1.65,2.5c.35,1,1.16,1.64.13,3.65a1.16,1.16,0,0,1-.79.6Z"/><path class="cls-3" d="M366.35,345.45c-1.39-1.43-1.44-2.37-1.32-3.25a13.93,13.93,0,0,1,.41-2.61c.45-1.67,1.17-3.24,1.78-4.85q1.89-4.8,4-9.56a139.87,139.87,0,0,1,9.63-18.71,48.93,48.93,0,0,1,3.26-4.53,27.24,27.24,0,0,1,2-2.22,17.66,17.66,0,0,1,2.56-2.14,10.79,10.79,0,0,1,3.89-1.69,8.23,8.23,0,0,1,2.69-.11,8.13,8.13,0,0,1,2.66.85,9.24,9.24,0,0,1,2,1.44l.39.39c.13.12.27.28.33.34l.46.53c.63.7,1.2,1.41,1.78,2.13a130.62,130.62,0,0,1,11.48,17.8,147.83,147.83,0,0,1,8.83,19.2,48.66,48.66,0,0,1,1.65,5.48,17.81,17.81,0,0,1,.45,3.63,12.38,12.38,0,0,1-.13,1.45,9.5,9.5,0,0,1-.69,2c-.24.41-.49.82-.76,1.21s-.47.57-.71.85a19.66,19.66,0,0,1-2.56,2.36c-.81.61-1.6,1.19-2.4,1.7-1.59,1-3.16,1.95-4.75,2.8a142.29,142.29,0,0,1-19.39,8.52,104.88,104.88,0,0,1-10.27,3.12c-.89.21-1.8.41-2.73.59a9.39,9.39,0,0,1-2.92.18,10.13,10.13,0,0,1-3.18-.94L374,371c-.26-.13-.58-.32-.85-.48a1.84,1.84,0,0,1-.75-.82,2.89,2.89,0,0,1-.3-1.71,2.14,2.14,0,0,1,.44-1.1l.19-.23c.46-.59.74-1,.91-1.3a1.66,1.66,0,0,1,.49-.56l.88-.65a10,10,0,0,1,1.91-1.22,8.36,8.36,0,0,1,1-.37c.36-.09.71-.15,1.09-.23.74-.14,1.5-.31,2.26-.49a95.67,95.67,0,0,0,9.24-2.84,134.15,134.15,0,0,0,17.94-7.93c1.41-.77,2.77-1.57,4-2.4.64-.41,1.23-.82,1.78-1.23a9.63,9.63,0,0,0,1.22-1.05s.15-.14.12-.12a.18.18,0,0,0-.06.14,1.85,1.85,0,0,0-.27.83.29.29,0,0,0,0,.18,9.4,9.4,0,0,0-.19-1.43,39,39,0,0,0-1.23-4.31,142.29,142.29,0,0,0-8-18,122.33,122.33,0,0,0-10.11-16.79c-.48-.62-1-1.25-1.45-1.83l-.36-.44a.71.71,0,0,0-.11-.12l-.06-.07c-.06-.07-.08-.08,0-.07s.45.08.41,0a2,2,0,0,0-.76.34,13.76,13.76,0,0,0-2.83,2.62,38.43,38.43,0,0,0-2.8,3.67,132.52,132.52,0,0,0-9.54,17.3q-2.14,4.55-4.12,9.19c-.69,1.53-1.23,3.13-2,4.62a14.52,14.52,0,0,1-1.42,2.15c-.49.72-1.14,1.37-3.12,1.54h0A1.5,1.5,0,0,1,366.35,345.45Z"/><path class="cls-4" d="M474.47,253s-4.94,44.39-56.22,68.55"/><path class="cls-4" d="M468.05,280.08s23.18-9,38-31.87"/><path class="cls-3" d="M348.06,354.16c2.52.81,2.72,1.31,3,1.84a3.92,3.92,0,0,1,.55,1.55c.06,1-.11,2-.12,3-.1,2-.16,3.93-.13,5.86a46.37,46.37,0,0,0,.35,5.54,18.73,18.73,0,0,0,.47,2.31,6,6,0,0,0,.32.84c0-.05-.05-.05-.11-.12a1.26,1.26,0,0,0-.24-.22c-.08,0-.21-.15-.36-.23l-.21-.09-.12,0,0,0c-.29-.1-.3-.08-.21-.09a6.86,6.86,0,0,0,1.59-.36,30.41,30.41,0,0,0,4.73-2.14,94.8,94.8,0,0,0,9.68-6.24L365,369.83c0-3.1-.16-6.36-.38-9.46-.11-1.56-.26-3.1-.47-4.57-.09-.73-.2-1.44-.34-2.1a13.38,13.38,0,0,0-.41-1.66c-.07-.2-.13-.32-.1-.29a.71.71,0,0,0,.07.11c0,.07,0,.05.15.18a2.65,2.65,0,0,0,.34.33l.3.23a3.64,3.64,0,0,0,.39.23l.2.09.1,0h0l.08,0,.17.06h.08a.32.32,0,0,1-.14,0h-.37a25.11,25.11,0,0,0-4,.46c-1.47.27-3,.62-4.51,1-.76.17-1.5.45-2.29.55a2.81,2.81,0,0,1-1.47-.74,5.41,5.41,0,0,1-2-2.34l-.05-.1a4.8,4.8,0,0,1-.55-1.72,5,5,0,0,1,.35-3.09,2.86,2.86,0,0,1,.9-1.46,5.5,5.5,0,0,1,1.21-.44l1.25-.38c1.66-.49,3.34-.94,5.1-1.33a33.18,33.18,0,0,1,5.83-.86h.87l1.09.08.54.06a5.7,5.7,0,0,1,.75.17l.77.22.38.13.09,0,.17.08.33.17.66.4a5,5,0,0,1,.54.41c.27.24.53.5.78.77a7.76,7.76,0,0,1,.52.67c.14.2.32.46.41.62a13.24,13.24,0,0,1,.92,2,22.29,22.29,0,0,1,.9,3.1c.21.95.38,1.87.52,2.77.26,1.8.45,3.54.59,5.27.29,3.47.41,6.8.42,10.3v0a5.27,5.27,0,0,1-2.17,4.27c-1.85,1.35-3.57,2.51-5.44,3.66s-3.73,2.24-5.73,3.27a39.92,39.92,0,0,1-6.58,2.76,16.62,16.62,0,0,1-4.45.76,9.83,9.83,0,0,1-3.25-.49,7.75,7.75,0,0,1-2.09-1.1c-.29-.22-.57-.46-.84-.71s-.41-.46-.62-.7A10.37,10.37,0,0,1,343.1,379a15,15,0,0,1-.71-2.15,26.76,26.76,0,0,1-.65-3.76,55.9,55.9,0,0,1-.24-6.77c0-2.19.17-4.34.34-6.47a26.41,26.41,0,0,1,.37-3.19,4,4,0,0,1,.84-1.52c.4-.49.71-1,3.36-1.22a4.18,4.18,0,0,1,1.54.18Z"/><path class="cls-3" d="M361.68,379.44c3.56,1.45,3.73,2.81,3.58,4.15l0,4-.11,8.06c-.09,5.38-.27,10.75-.53,16.17-.13,2.72-.3,5.43-.6,8.24-.08.72-.17,1.44-.29,2.21-.05.36-.14.82-.21,1.22-.05.23-.12.52-.19.77a2.78,2.78,0,0,1-.13.45c-.08.23-.16.45-.26.68l-.14.33,0,.08.07-.13a4.08,4.08,0,0,0,.17-.42,3,3,0,0,0,.12-.43,3.73,3.73,0,0,0,.08-.38c0-.16,0-.32,0-.49a5.16,5.16,0,0,0-.07-1,5.38,5.38,0,0,0-.37-1.17,4.77,4.77,0,0,0-.69-1.05,4.35,4.35,0,0,0-.62-.59,4.21,4.21,0,0,0-.7-.46l-.35-.17-.37-.13-.27-.07a1.7,1.7,0,0,0-.31-.06,1.82,1.82,0,0,0-.36,0l.14,0c.33-.05.89-.17,1.44-.3,2.26-.59,4.78-1.39,7.23-2.22s4.93-1.74,7.38-2.67,4.92-1.85,7.33-2.84c1.21-.49,2.4-1,3.57-1.51s2.34-1,3.31-1.53l.62-.34.14-.08-.07.06L390,408,390,408l-.21.22a2.35,2.35,0,0,0-.19.25l-.09.14a3.26,3.26,0,0,0-.24.4,4.06,4.06,0,0,0-.35.87l-.1.41a3.13,3.13,0,0,0-.07,1s0-.06,0-.09c0-.23-.06-.45-.13-.75-.23-1.15-.53-2.43-.84-3.7l-1.94-7.68-4.09-15.47-2.07-7.75-1-3.87a3.46,3.46,0,0,1,.29-2.18,8.31,8.31,0,0,1,2.23-2.77.37.37,0,0,1,.28-.09,8.19,8.19,0,0,1,3.39,1.08,3.43,3.43,0,0,1,1.45,1.66l1.27,3.82,2.49,7.65c1.67,5.1,3.26,10.22,4.84,15.38.78,2.58,1.55,5.16,2.27,7.8.36,1.33.71,2.64,1,4.11.09.35.17.79.25,1.22l.12.91a7,7,0,0,1-.08,1.51l0,.19a2,2,0,0,1-.08.34,5.22,5.22,0,0,1-.41,1c-.08.16-.17.31-.26.46l-.14.19a2.88,2.88,0,0,1-.27.34c-.09.11-.19.22-.29.32l-.16.16-.34.3-.47.37c-.25.18-.5.34-.7.46-.42.27-.77.47-1.12.66-1.39.75-2.64,1.35-3.93,1.93s-2.54,1.11-3.81,1.64c-2.54,1.06-5.07,2.05-7.63,3s-5.13,1.83-7.74,2.69-5.22,1.69-8.17,2.34c-.75.16-1.51.31-2.5.43-.25,0-.52.05-.86.06a7.84,7.84,0,0,1-1.36-.06,5,5,0,0,1-.56-.1l-.15,0-.24-.07a4.84,4.84,0,0,1-.49-.18,3.82,3.82,0,0,1-.46-.21,5.12,5.12,0,0,1-.81-.53,5,5,0,0,1-.71-.67A5.15,5.15,0,0,1,354,426a5.3,5.3,0,0,1-.42-1.28,5.76,5.76,0,0,1-.07-1.1c0-.18,0-.37.05-.55s.07-.39.09-.44a3.5,3.5,0,0,1,.17-.55q.09-.27.21-.54s.12-.24.1-.19l0,0-.05.1a.76.76,0,0,0-.08.21v0l.06-.2c.05-.25.11-.45.15-.75.11-.55.2-1.16.29-1.77.34-2.49.6-5.12.86-7.74.52-5.26.9-10.58,1.32-15.89l.57-8,.27-4c0-1.34.22-2.66,3.87-3.87A.39.39,0,0,1,361.68,379.44Z"/><path class="cls-3" d="M346.71,377.66c.37,1.47.13,2-.18,2.39a6.2,6.2,0,0,1-1,1.16,22.9,22.9,0,0,1-2.35,1.69l-4.75,3.32q-4.72,3.33-9.37,6.75c-3.09,2.29-6.15,4.61-9.08,7-1.46,1.2-2.89,2.42-4.19,3.64-.64.61-1.26,1.24-1.73,1.79a4.19,4.19,0,0,0-.41.58h0l0-.08a2,2,0,0,0,.14-.46,3,3,0,0,0,0-.58,3.47,3.47,0,0,0-.14-.87,3.25,3.25,0,0,0-.48-1,3.92,3.92,0,0,0-.34-.39l0-.05a.91.91,0,0,0-.21-.18l.11.05.14.08.25.1c.3.14.73.3,1.11.45.82.29,1.69.58,2.57.86,1.78.55,3.61,1.06,5.45,1.56,3.68,1,7.43,1.91,11.16,2.86l11.24,2.76,5.64,1.35,1.41.33a3.93,3.93,0,0,1,1.36.53,5.68,5.68,0,0,1,1.22,1.19l.58.72a1.28,1.28,0,0,1,.23.6l.07.5,0,.75h0a2.42,2.42,0,0,1-.26,1.14l-.33.67-.29.43a1.19,1.19,0,0,1-.47.43l-.84.41a5.82,5.82,0,0,1-1.62.54,4,4,0,0,1-1.47-.12l-1.42-.32L342.86,419c-3.8-.87-7.58-1.8-11.36-2.76s-7.55-2-11.33-3.1c-1.89-.56-3.78-1.14-5.7-1.78-1-.32-1.92-.66-2.92-1.05-.51-.21-1-.4-1.57-.67l-.42-.2-.5-.27c-.18-.1-.31-.17-.52-.31a9.24,9.24,0,0,1-.79-.61l-.18-.17a3.24,3.24,0,0,1-.45-.53,4,4,0,0,1-.64-1.28,3.84,3.84,0,0,1-.19-1.23,4.43,4.43,0,0,1,.08-.95,5.31,5.31,0,0,1,.36-1.14c.06-.14.13-.3.19-.42l.18-.31a11.59,11.59,0,0,1,1.33-1.75,31.79,31.79,0,0,1,2.39-2.31c1.58-1.37,3.16-2.6,4.75-3.8,3.18-2.39,6.39-4.64,9.63-6.83s6.5-4.33,9.78-6.44l4.93-3.14a24.46,24.46,0,0,1,2.51-1.5,5.82,5.82,0,0,1,1.47-.43c.5-.12,1.07-.14,2.26.81a1.58,1.58,0,0,1,.55.85Z"/><path class="cls-4" d="M402.79,359.5s2.06,23.18,6.79,32.29"/><path class="cls-5" d="M310.09,366.09c-36.87-1.81-21,53.86-25,73.28"/><path class="cls-3" d="M338.35,418.23c.59,1.68.53,2.22.35,2.53a3,3,0,0,1-.55.95,9,9,0,0,1-1.57,1.05l-3.22,2-6.45,3.88q-6.48,3.86-13.05,7.58c-4.41,2.44-8.88,4.81-13.5,7-2.31,1.08-4.65,2.14-7.1,3.1-1.23.48-2.49.95-3.81,1.38l-1,.32a1.85,1.85,0,0,1-1.15.05,4.19,4.19,0,0,1-1.39-.8c-.26-.2-.51-.41-.74-.61a2.15,2.15,0,0,1-.19-.22,2,2,0,0,1-.2-.39l-.21-.57-.23-.88a5.4,5.4,0,0,1-.16-1.18v-1.21l0-.61c0-.19,0-.3,0-.43s0-.19,0-.25c.07-.26.13-.51.18-.76a5.36,5.36,0,0,1,.44-1.25,1,1,0,0,1,.65-.46l.75-.25c1.05-.37,2.12-.78,3.21-1.24,2.18-.92,4.4-1.89,6.62-2.92,4.43-2.05,8.91-4.16,13.38-6.29s9-4.27,13.43-6.46l6.7-3.31,3.33-1.68a8.72,8.72,0,0,1,1.7-.78,3.12,3.12,0,0,1,1.09,0c.36,0,.84.24,2,1.62h0A3.62,3.62,0,0,1,338.35,418.23Z"/><path class="cls-3" d="M307.51,434.48c.81.26,1.32.36,1.66.45a1.55,1.55,0,0,1,.38.12c.07,0,.18.21.28.31a8.06,8.06,0,0,1,1,1.51c.53,1.05.86,2.18,1.3,3.28l2.53,6.61L319.74,460,330,486.42l10,26.51,4.9,13.3,2.44,6.66.6,1.66a5.91,5.91,0,0,1,.42,1.74,7.19,7.19,0,0,1-.22,2l-.23,1a1.33,1.33,0,0,1-.35.6l-.37.37-.6.46a2,2,0,0,1-1.11.41l-.76,0-.52,0a1.25,1.25,0,0,1-.65-.23l-.85-.63a7,7,0,0,1-1.45-1.36,5.91,5.91,0,0,1-.81-1.58l-.62-1.66L337.31,529l-4.92-13.29c-3.25-8.88-6.41-17.78-9.6-26.68l-9.34-26.77-4.64-13.41-2.3-6.71a35.38,35.38,0,0,1-1.08-3.4,8.48,8.48,0,0,1-.18-1.83v-.53a2.28,2.28,0,0,1,.1-.72,2.1,2.1,0,0,1,1.13-1.24,1.06,1.06,0,0,1,.78-.05Z"/><path class="cls-3" d="M456.54,326.07a5.7,5.7,0,0,1-3.1,2.22c-.93.35-1.83.71-2.73,1.09a27,27,0,0,0-5.33,2.71,29.65,29.65,0,0,0-4.8,4.09,45.29,45.29,0,0,0-4.18,5,72.83,72.83,0,0,0-6.75,11.62,116.46,116.46,0,0,0-5.15,12.71,213.37,213.37,0,0,0-7.18,26.84c-1.88,9.12-3.25,18.33-4.64,27.72-2.9,18.67-5.64,37.37-8.43,56q-2.08,14-4.06,28l-1.91,14-.45,3.5a18.09,18.09,0,0,1-.7,3.47,18.92,18.92,0,0,1-1.52,3.36l-.92,1.67a2.26,2.26,0,0,1-.74.8,5.06,5.06,0,0,1-1.6.71h0a1.89,1.89,0,0,1-1.44-.16,5.06,5.06,0,0,1-1.41-1,2.17,2.17,0,0,1-.55-1l-.51-1.86a18.6,18.6,0,0,1-.68-3.67,17.67,17.67,0,0,1,.18-3.57l.45-3.54,1.89-14.1c1.28-9.39,2.64-18.76,4-28.12s2.89-18.71,4.39-28.06l4.59-28c1.58-9.28,3.19-18.75,5.32-28.11a222.89,222.89,0,0,1,8.06-27.76,124.75,124.75,0,0,1,5.78-13.44,80.07,80.07,0,0,1,7.75-12.7,53.46,53.46,0,0,1,5-5.76,36.46,36.46,0,0,1,6.09-4.95,23.39,23.39,0,0,1,7.43-3.34,13,13,0,0,1,4.22-.24,4.2,4.2,0,0,1,3.95,2.56.92.92,0,0,1-.12,1Z"/><path class="cls-4" d="M413.81,404.84s68.05,24.78,68.55,19.3,16.27-107.92-25.65-93.94"/><path class="cls-4" d="M438.47,313.12s22.19-3.45,23.17,0,4.94,15.77,4.94,15.77"/><path class="cls-3" d="M453,420.25c1.27.88,1.43,1.49,1.46,2.06a7.57,7.57,0,0,1,0,1.71,30,30,0,0,1-.65,3.24l-1.41,6.45-2.78,12.92c-1.83,8.61-3.64,17.23-5.37,25.86s-3.49,17.24-5.12,25.84c-.81,4.3-1.59,8.61-2.28,12.88-.34,2.14-.65,4.27-.87,6.35l-.15,1.54a4.46,4.46,0,0,1-.29,1.46,5.16,5.16,0,0,1-.88,1.34c-.18.24-.35.38-.52.59s-.23.1-.48.25a2.65,2.65,0,0,1-.44.17,2,2,0,0,0-.61.42l-.44.45a1,1,0,0,1-.5.27,2.33,2.33,0,0,1-.8.06c-.21-.05-.43-.16-.6-.2a1.37,1.37,0,0,1-.69-.55c-.25-.34-.51-.75-.71-1.06a9.26,9.26,0,0,1-.55-1,4.37,4.37,0,0,1-.35-1,5.45,5.45,0,0,1-.12-1.83l.16-1.76c.22-2.3.53-4.54.86-6.76.66-4.44,1.47-8.81,2.31-13.17,1.7-8.71,3.65-17.34,5.61-25.95s4.14-17.18,6.3-25.75l3.26-12.83,1.65-6.42a32.92,32.92,0,0,1,.9-3.19,7.61,7.61,0,0,1,.82-1.5c.29-.5.71-1,2.24-1.16A1.43,1.43,0,0,1,453,420.25Z"/><path class="cls-3" d="M398.17,578.5c1.75.82,2.14,1.45,2.37,2.13a15.22,15.22,0,0,1,.76,1.94,35.6,35.6,0,0,0,1.17,3.7,12.43,12.43,0,0,0,4.49,5.56,16.13,16.13,0,0,0,7.09,2.48,29.1,29.1,0,0,0,4.11.24c1.45-.08,2.94-.12,4.39-.24A46,46,0,0,0,439,589.84,29.4,29.4,0,0,0,450.92,579c.18-.28.38-.55.55-.84l.45-.92.92-1.81c.56-1.25,1-2.57,1.47-3.84l1-4.06.61-4.2.22-4.3a35.2,35.2,0,0,0-.17-4.13,33.2,33.2,0,0,0-1.79-7.87,33.54,33.54,0,0,0-9.29-13.32,46.61,46.61,0,0,0-6.83-5c-.61-.38-1.23-.73-1.85-1.08a7.52,7.52,0,0,1-1.78-1.22,10.63,10.63,0,0,1-1.49-1.91l-.72-1.09a1.52,1.52,0,0,1-.27-.8,6.59,6.59,0,0,1,0-1.61v-.2a2.38,2.38,0,0,1,.46-1.2,4.93,4.93,0,0,1,1.11-1.2,1.62,1.62,0,0,1,.83-.38l1.45-.18a9.24,9.24,0,0,1,2.79.07,8.47,8.47,0,0,1,2.4.95c.75.41,1.5.84,2.23,1.28a57.41,57.41,0,0,1,8.34,6.12,48.23,48.23,0,0,1,7,7.83,40.83,40.83,0,0,1,5,9.46A39,39,0,0,1,466,554a42.62,42.62,0,0,1,.13,5.29l-.35,5.1-.83,5.11c-.41,1.7-.89,3.39-1.35,5.07-.65,1.65-1.22,3.32-2,4.92l-1.24,2.37-.63,1.19c-.23.38-.5.74-.75,1.11a38.7,38.7,0,0,1-16,13.76,54.32,54.32,0,0,1-19.83,4.78c-1.68.08-3.34.08-5,.1a35.22,35.22,0,0,1-5.28-.47,23.85,23.85,0,0,1-10.38-4.12,20.17,20.17,0,0,1-6.93-9.1,18.57,18.57,0,0,1-1.3-5.37,10.15,10.15,0,0,1,.26-2.74c.16-.89.53-1.84,2.39-2.58a1.42,1.42,0,0,1,1.09,0Z"/><path class="cls-4" d="M391.62,536.52s-24.66,30.57,0,43.89"/><path class="cls-4" d="M342.07,542.93c-2.84,9.94-3.85,21-2,31.17,3.41,19,22.65,35.08,42.5,29.1,6.17-1.85,12.26-5.26,14.94-11.45"/><path class="cls-3" d="M40.17,688.83a7.65,7.65,0,0,1,3.34-4.63c1.37-1.09,2.79-2.09,4.24-3,2.92-1.87,6-3.48,9-5.22l18-10.22Q92.85,655.53,111,645.54q36.38-20,73.22-39.16,18.45-9.52,37.13-18.65c12.44-6.09,25-12.09,37.64-17.72s25.47-11.14,38.53-16.08l9.88-3.58c3.35-1.08,6.66-2.25,10.05-3.25l5.12-1.47a27.12,27.12,0,0,1,5.28-1c.9-.09,1.81-.14,2.72-.15a16.28,16.28,0,0,1,2.77.12l2.8.31a3.36,3.36,0,0,1,1.42.45,4.51,4.51,0,0,1,1.47,1.31,1.43,1.43,0,0,1,.16,1.42l0,.05a5.47,5.47,0,0,1-1.09,1.69,3.27,3.27,0,0,1-1.15.83l-2.33,1.09c-.38.19-.76.33-1.15.53s-.77.4-1.15.57c-.78.38-1.55.72-2.33,1-1.56.6-3.17,1-4.78,1.47l-4.85,1.39c-3.22,1-6.44,2.1-9.66,3.14l-9.61,3.49c-12.78,4.86-25.41,10.28-38,15.9-25.11,11.25-49.94,23.26-74.58,35.67s-49.18,25-73.56,38q-18.29,9.72-36.48,19.62l-18.16,9.94c-3,1.64-6,3.42-9.1,4.94q-2.34,1.14-4.78,2.07a7.68,7.68,0,0,1-5.68.49A.94.94,0,0,1,40.17,688.83Z"/><path class="cls-3" d="M53.64,717.35A7.38,7.38,0,0,1,58,713.68c1.57-.7,3.18-1.31,4.8-1.85,3.24-1.06,6.57-1.82,9.85-2.72l19.78-5.2,39.54-10.41L211,672.68l79.16-20.56L329.8,642l19.81-5.08,9.9-2.53a18.29,18.29,0,0,1,5.15-.52c.88,0,1.78.07,2.67.11a5.18,5.18,0,0,1,2.89,1,1.16,1.16,0,0,1,.38,1.48,5.12,5.12,0,0,1-2.05,2.25c-.76.46-1.52.94-2.28,1.39a18.25,18.25,0,0,1-4.75,2.06l-9.88,2.61-19.77,5.22-39.54,10.42L213.19,681,134,701.31,94.37,711.49l-19.8,5.09c-3.31.82-6.58,1.78-9.93,2.43-1.68.32-3.38.57-5.1.73a7.37,7.37,0,0,1-5.56-1.1A1,1,0,0,1,53.64,717.35Z"/><path class="cls-4" d="M373.37,629.23s10.85-1,4.93-22.19"/><path class="cls-4" d="M339.13,583.37s-6.69,29.58,31.28,45.86"/><path class="cls-4" d="M310.25,554.68s-17.4,73.71,36.18,87.2"/><path class="cls-3" d="M467.19,558.11a3.3,3.3,0,0,1,.41-3.14,13.58,13.58,0,0,1,1.52-2.12,49.85,49.85,0,0,1,3.69-3.58c2.56-2.28,5.17-4.51,7.91-6.57s5.53-4.06,8.42-5.9,5.83-3.61,8.85-5.24a139.62,139.62,0,0,1,18.75-8.43,180.26,180.26,0,0,1,19.62-5.9c3.34-.78,6.74-1.43,10.2-1.91a66.4,66.4,0,0,1,10.64-.67,27.66,27.66,0,0,1,11.42,2.45,14.23,14.23,0,0,1,5.29,4.43,14,14,0,0,1,2.41,6.53,21.22,21.22,0,0,1-.29,6.17,33.81,33.81,0,0,1-1.5,5.47,45.89,45.89,0,0,1-4.92,9.8,39.24,39.24,0,0,1-7.32,8.39,15.87,15.87,0,0,1-4.91,3.12,9.63,9.63,0,0,1-1.48.35,13.58,13.58,0,0,1-1.56.08h-.77l-.82-.07a1.61,1.61,0,0,1-.83-.32,3.07,3.07,0,0,1-.91-1,1.52,1.52,0,0,1-.22-1.07v-.09a6.67,6.67,0,0,1,.3-1.34,1.56,1.56,0,0,1,.38-.64l.4-.4.39-.47c.26-.32.51-.6.76-.86a6.53,6.53,0,0,1,.75-.81l.8-.67c.28-.2.56-.4.86-.58.55-.45,1.14-.82,1.67-1.32a31.3,31.3,0,0,0,5.79-6.7A38,38,0,0,0,567,537a19,19,0,0,0,1.35-8,5.67,5.67,0,0,0-3.31-4.73,20.27,20.27,0,0,0-8.06-1.71A79.5,79.5,0,0,0,538,524.68a175,175,0,0,0-18.92,5.21,132,132,0,0,0-18,7.59q-4.35,2.21-8.53,4.78c-2.79,1.68-5.49,3.51-8.13,5.42s-5.19,4-7.67,6.07c-1.24,1.06-2.41,2.2-3.68,3.23a23.26,23.26,0,0,1-2.06,1.4,3.37,3.37,0,0,1-3.1.44h0A1,1,0,0,1,467.19,558.11Z"/><path class="cls-3" d="M456.45,534a5,5,0,0,1,2.17-3.43,35.06,35.06,0,0,1,2.9-2c2-1.23,4.12-2.22,6.21-3.25,4.2-2.06,8.42-4.08,12.68-6,8.53-3.88,17.2-7.49,26.07-10.65a217.74,217.74,0,0,1,27.22-7.9c2.32-.49,4.64-1,7-1.37l3.52-.59c1.17-.19,2.37-.31,3.55-.46l3.56-.44,3.58-.27c1.21-.08,2.37-.21,3.61-.24h3.79a40,40,0,0,1,15.15,3.36,30.27,30.27,0,0,1,12.27,10.31,36.08,36.08,0,0,1,5.73,14.65,48.4,48.4,0,0,1,0,15.29,53.88,53.88,0,0,1-4.37,14.47,50.31,50.31,0,0,1-8.34,12.76,39.76,39.76,0,0,1-12.46,9.4A34.81,34.81,0,0,1,554.76,581h0a3.17,3.17,0,0,1-.53-.05c-.35-.06-.45-.08-.65-.13l-.51-.12c-.32-.09-.64-.18-.95-.29a15.28,15.28,0,0,1-1.84-.77,12.69,12.69,0,0,1-3.47-2.56,10.75,10.75,0,0,1-2.37-4.07,11.81,11.81,0,0,1-.5-4.37,11.4,11.4,0,0,1,2.62-6.58,17.34,17.34,0,0,1,2.25-2.28,7.44,7.44,0,0,1,1.24-1,3.9,3.9,0,0,1,2.2-.22,1.48,1.48,0,0,1,1.07.73l0,0a4.31,4.31,0,0,1,.65,2,10.9,10.9,0,0,1-.22,1.37,11.72,11.72,0,0,0-.21,1.3c-.08.42-.13.84-.17,1.24-.19,1.61-.42,3-.47,3.89a2.84,2.84,0,0,0,.1,1.06,1.6,1.6,0,0,0,.37.64,3.46,3.46,0,0,0,.94.67,4.74,4.74,0,0,0,.69.28,2.92,2.92,0,0,0,.36.11l.17,0s.14,0,0,0l-.58,0a25.75,25.75,0,0,0,11.48-2.49,30.76,30.76,0,0,0,9.6-7.31,45.22,45.22,0,0,0,10.52-22.57,39.73,39.73,0,0,0,.15-12.45A27.34,27.34,0,0,0,582.5,516a21.4,21.4,0,0,0-8.72-7.46A31.78,31.78,0,0,0,562,505.78l-3.19,0c-1.08,0-2.23.11-3.34.16l-3.36.19-3.37.36c-1.12.13-2.24.21-3.36.38l-3.35.5c-2.24.3-4.47.76-6.7,1.19a212,212,0,0,0-26.39,7.16c-8.68,2.93-17.23,6.31-25.67,10q-6.35,2.76-12.6,5.71c-2.09,1-4.13,2.06-6.3,2.88-1.08.42-2.19.79-3.32,1.11a5.09,5.09,0,0,1-4-.29A.94.94,0,0,1,456.45,534Z"/><path class="cls-4" d="M438.47,509.39s48.32-22.19,51.28-32.05"/><path class="cls-4" d="M442.16,480.79l51-8.88s13.31-26.63,10.35-28.11-21.62-16.27-21.2-19.66"/><path class="cls-4" d="M449.74,436.9c1.55,1.48,18.31,22.68,18.31,37.73"/><line class="cls-4" x1="375.99" y1="499.64" x2="395.56" y2="487.69"/><path class="cls-4" d="M336.71,521.56c-1.31,0-32.55,21.7-32.87,27"/><path class="cls-4" d="M383.73,606.3s7.56,8.63,37.15,2.05"/><path class="cls-3" d="M421.53,600.75c1.7,1,2,1.81,2.06,2.56a10.58,10.58,0,0,1,.24,2.2c0,1.44-.28,2.83-.38,4.22s-.22,2.77-.22,4a15.68,15.68,0,0,0,.08,1.76c0,.24.07.45.1.59s.1.19-.12-.22l-.1-.14a1.57,1.57,0,0,0-.42-.42,2.31,2.31,0,0,0-.29-.24,2.21,2.21,0,0,0-.34-.18l-.18-.07,0,0a.28.28,0,0,0-.12,0h.38c.46,0,1.12,0,1.75,0,1.3-.1,2.69-.29,4.07-.5,2.78-.42,5.6-1,8.41-1.59A268.92,268.92,0,0,0,469.7,603c5.44-2,10.78-4.11,16.1-6.43s10.56-4.83,15.82-7.34,10.46-5.16,15.64-7.86q3.88-2,7.74-4.1l3.84-2.09a4,4,0,0,1,2.3-.38c.43,0,.89.09,1.33.13a2.18,2.18,0,0,1,.76.22l.46.26.56.41v0a1.89,1.89,0,0,1,.75,1.31l.08.69v.53a2.39,2.39,0,0,1-.2.77c-.2.41-.38.83-.58,1.22a4.11,4.11,0,0,1-1.55,1.79l-3.86,2.19q-3.87,2.16-7.78,4.28c-5.2,2.81-10.44,5.57-15.74,8.22A300.62,300.62,0,0,1,472.58,611a267.92,267.92,0,0,1-34.5,9.6c-2.94.59-5.9,1.13-8.94,1.55-1.53.2-3.06.38-4.69.48a23,23,0,0,1-2.65,0c-.25,0-.47,0-.8-.06l-.45-.06-.23,0-.33-.07-.65-.19-.18-.06-.29-.13a6.63,6.63,0,0,1-.59-.31c-.18-.12-.37-.24-.53-.37s-.28-.26-.41-.4-.26-.28-.38-.43-.16-.24-.25-.36a7,7,0,0,1-.92-2.27,13.61,13.61,0,0,1-.26-1.58,24.43,24.43,0,0,1-.09-2.65c0-1.66.16-3.21.33-4.75a29.68,29.68,0,0,1,.71-4.53,10.55,10.55,0,0,1,.92-2.14c.34-.71.85-1.39,2.82-1.79a1.73,1.73,0,0,1,1.27.23Z"/><path class="cls-4" d="M489.75,480.79s18.25,14.79,23.67,28.6"/><path class="cls-3" d="M520.59,525.58c1.74-.36,2.23-.27,2.49-.1a2.18,2.18,0,0,1,.79.53,5.76,5.76,0,0,1,.66,1.37l1.18,2.81,2.37,5.61,4.7,11.23c1.53,3.76,3,7.53,4.42,11.34.7,1.9,1.41,3.8,2.07,5.72l1,2.87.25.72a1,1,0,0,1,0,.8,4.19,4.19,0,0,1-.78,1.1l-.55.6a1.62,1.62,0,0,1-.19.17,2.53,2.53,0,0,1-.36.23l-.53.3-.82.4a8,8,0,0,1-1.39.5L535,572l-.59.12-.43,0a1.11,1.11,0,0,1-.26,0l-.81-.11a4.22,4.22,0,0,1-1.3-.33,1.06,1.06,0,0,1-.51-.63l-.26-.71-1.08-2.84c-.72-1.9-1.4-3.81-2.09-5.71-1.37-3.82-2.64-7.67-3.88-11.53l-3.61-11.64-1.79-5.82-.9-2.91a5.54,5.54,0,0,1-.37-1.48,2.15,2.15,0,0,1,.26-.9c.09-.3.41-.69,2-1.53A4.88,4.88,0,0,1,520.59,525.58Z"/><path class="cls-6" d="M40.49,691.37S27.18,716,50.85,718"/><path class="cls-4" d="M30.14,694.32S4,711.09,4,715s2.47,10.85,2.47,10.85l30.29-13.81"/><path class="cls-3" d="M324.14,647.83c1.43.7,1.74,1.35,1.92,2a13.66,13.66,0,0,1,.55,2c.25,1.33.3,2.68.53,4a59.88,59.88,0,0,0,1.71,7.89A45.37,45.37,0,0,0,335.58,678a31.9,31.9,0,0,0,11.54,9.85,38.64,38.64,0,0,0,14.89,3.8,65,65,0,0,0,15.93-1c2.66-.57,5.33-1,7.95-1.81l4-1.08c1.31-.38,2.61-.86,3.92-1.28l3.91-1.3,3.86-1.51,3.86-1.51c1.29-.5,2.55-1.11,3.82-1.66l3.81-1.69,1.9-.85,1.87-.93,1.87-.93a8.26,8.26,0,0,1,2-.74,8.93,8.93,0,0,1,2.28-.15l1.21,0a1.49,1.49,0,0,1,.71.23l.46.31.57.52h0a1.73,1.73,0,0,1,.54,1l.1.76,0,.55a1.31,1.31,0,0,1-.23.7l-.69,1a10,10,0,0,1-1.52,1.75,8.15,8.15,0,0,1-1.83,1.15l-1.92,1-1.92,1-2,.9-3.94,1.78c-1.32.58-2.61,1.22-4,1.75l-4,1.59-4.05,1.57-4.14,1.37c-1.38.45-2.75.94-4.15,1.34l-4.25,1.11c-2.8.81-5.73,1.25-8.62,1.82a72.34,72.34,0,0,1-17.86.87,46.07,46.07,0,0,1-17.62-5.06,38.69,38.69,0,0,1-13.69-12.34c-.81-1.3-1.71-2.55-2.38-3.91l-1.06-2-.93-2.07-.46-1-.39-1.06-.78-2.11c-.42-1.43-.92-2.84-1.25-4.29a65.26,65.26,0,0,1-1.63-8.74c-.09-.73-.17-1.46-.23-2.2a13.7,13.7,0,0,1-.09-2.22,10.1,10.1,0,0,1,.33-2.23,2.82,2.82,0,0,1,1.88-2.22,1.11,1.11,0,0,1,1,0Z"/><path class="cls-4" d="M370.41,638.6s.57,38,23.22,29.09"/><path class="cls-4" d="M374.88,647.81s25,6.08,46-9.21"/><path class="cls-3" d="M421.39,620.88a4.08,4.08,0,0,1,1.78,3,27.2,27.2,0,0,1,.37,3c.13,2,.06,3.94.14,5.91q.15,5.91.64,11.8A148,148,0,0,0,428,667.76c1.9,7.49,4.54,14.84,8.61,21a31.5,31.5,0,0,0,7.23,7.9,23.11,23.11,0,0,0,4.44,2.66,24.4,24.4,0,0,0,4.88,1.58,29.74,29.74,0,0,0,5.19.52,34.59,34.59,0,0,0,5.34-.46c.9-.11,1.79-.35,2.68-.53s1.88-.49,2.82-.74l5.66-1.52a146.25,146.25,0,0,0,21.74-8.34,103.08,103.08,0,0,0,19.55-12.17l2.22-1.81,2.12-1.92,1-1,1-1c.66-.68,1.34-1.35,2-2l1.86-2.12a17.75,17.75,0,0,1,1.92-2.06,20.5,20.5,0,0,1,2.35-1.75l1.24-.86a3,3,0,0,1,2.2-.36h.08a1.51,1.51,0,0,1,1,.52,4.09,4.09,0,0,1,.45.7,2.82,2.82,0,0,1,.22.58,1.91,1.91,0,0,1,0,1l-.38,1.66a14.71,14.71,0,0,1-1.15,3.12,28.94,28.94,0,0,1-3.93,5c-.72.77-1.46,1.51-2.2,2.27l-1.11,1.12-1.16,1.06-2.33,2.12-2.42,2a111.28,111.28,0,0,1-21.07,13.18,139.89,139.89,0,0,1-23.07,8.67l-5.95,1.54c-1,.25-2,.52-3,.75s-2.12.46-3.21.59a41.41,41.41,0,0,1-6.61.49,35.68,35.68,0,0,1-6.72-.77,31.74,31.74,0,0,1-6.47-2.23,30.89,30.89,0,0,1-5.77-3.61,33.58,33.58,0,0,1-4.83-4.62,42.54,42.54,0,0,1-3.89-5.24c-4.6-7.33-7.23-15.35-9.1-23.35a154.41,154.41,0,0,1-3.38-24.26q-.39-6.09-.43-12.17c0-2-.07-4.06.12-6.09a21.07,21.07,0,0,1,.51-3,4,4,0,0,1,2-3,.89.89,0,0,1,1,.05Z"/><path class="cls-4" d="M468.05,608.56s-5.88,50.86,23.68,60.48"/><path class="cls-4" d="M473.07,643.8s23.52,3.67,50.43-27.89"/><path class="cls-3" d="M532.25,610.51a3.22,3.22,0,0,1,.13-3.16,13.5,13.5,0,0,1,1.34-2.19,38.23,38.23,0,0,1,3.44-3.76,63.89,63.89,0,0,1,7.78-6.74,35.74,35.74,0,0,1,9.47-5.12c.9-.28,1.82-.54,2.77-.74a19.15,19.15,0,0,1,3-.33c.5,0,1,0,1.52,0l1.54.19.77.11.76.2,1.5.46a15,15,0,0,1,1.42.64,10,10,0,0,1,1.37.74l1.25.87.62.45c.19.16.37.33.55.5a23.74,23.74,0,0,1,3.77,4.37l1.46,2.35,1.19,2.43a23.58,23.58,0,0,1,1,2.45c.31.82.67,1.64.93,2.46a90.93,90.93,0,0,1,2.6,9.93c.64,3.24,1.35,6.48,1.93,9.73,2.34,13,4.12,26.15,5.18,39.34.49,6.6.86,13.21,1,19.84l.09,5v5l0,2.5a11,11,0,0,1-.26,2.49,11.33,11.33,0,0,1-1,2.48l-.63,1.22a1.39,1.39,0,0,1-.55.6,3.82,3.82,0,0,1-1.24.56,1.68,1.68,0,0,1-1.17-.07h0a4.74,4.74,0,0,1-1.18-.67,1.64,1.64,0,0,1-.49-.63l-.53-1.23a13.17,13.17,0,0,1-.81-2.44,11,11,0,0,1-.17-2.42l0-2.42,0-4.85-.1-4.86c-.19-6.47-.57-13-1.06-19.42-1-12.94-2.51-25.85-4.66-38.66-.49-3.21-1.11-6.4-1.66-9.6a83.51,83.51,0,0,0-2.15-9.14c-.21-.74-.5-1.43-.75-2.15a19.48,19.48,0,0,0-.82-2.1l-.93-2-1.08-1.85a12.77,12.77,0,0,0-5.59-5.14,11.4,11.4,0,0,0-7.46,0,30.18,30.18,0,0,0-7.84,4.05,58.44,58.44,0,0,0-7.2,5.95c-1.16,1.07-2.19,2.27-3.38,3.33a17.59,17.59,0,0,1-1.9,1.49,3.35,3.35,0,0,1-3,.65H533A1,1,0,0,1,532.25,610.51Z"/><path class="cls-4" d="M534.63,669s23.67,67.2,48.82,44.52"/><path class="cls-4" d="M559.66,659.31c.12-4.93-5.3-54.84-5.3-54.84"/><path class="cls-4" d="M536.6,664.87l11.84.85c-.49,2-24.17,26.24-7.4,27.92s9.86-27.92,9.86-27.92,22.69-5.42,19.24,11.1c0,0-3,12.3-15.78-5.07"/><path class="cls-4" d="M426.14,683s2.32,51.29,23.6,49.81,18.31-24.89,18.31-24.89"/><path class="cls-3" d="M306.69,574.11a4.48,4.48,0,0,1-1.91,1,4.07,4.07,0,0,0-.6.06,2.68,2.68,0,0,0-.56.07c-.72,0-1.36.14-2,.21a7.74,7.74,0,0,0-3.83,2.21,6.37,6.37,0,0,0-.87.92c-.28.34-.58.63-.84,1l-.77,1.11a8.49,8.49,0,0,0-.74,1.16c-.44.83-.95,1.6-1.34,2.48L292,587a3.33,3.33,0,0,1-2.46,1.92h-.07a51.79,51.79,0,0,0-8.91,2.37,26.61,26.61,0,0,0-3.95,1.83,9.46,9.46,0,0,0-2.75,2.24,3.17,3.17,0,0,0-.5,1c0,.15-.05.26,0,.41a1.5,1.5,0,0,1,0,.22V597l0,.13a6.44,6.44,0,0,0,1.51,2.67c.39.49.92,1,1.39,1.47s1.06,1,1.65,1.42,1.17.92,1.8,1.36l1.89,1.31a3.87,3.87,0,0,1,1.55,4.23v.06a36.89,36.89,0,0,0-.86,4,25.44,25.44,0,0,0-.31,4,8.4,8.4,0,0,0,.49,3.08,2.07,2.07,0,0,0,.21.38c.05.12.12.12.14.18s.09.09.3.11a5.94,5.94,0,0,0,2.47-.29,16.49,16.49,0,0,0,1.75-.65c.3-.13.6-.24.91-.38l.92-.46a61.18,61.18,0,0,0,7.34-4.58,4.07,4.07,0,0,1,5.68,1,4.46,4.46,0,0,1,.43.77l.07.17.19.46.26.56c.18.37.37.74.58,1.1a14.67,14.67,0,0,0,1.34,2,8.86,8.86,0,0,0,3.14,2.69,5,5,0,0,0,3.39.34,5.77,5.77,0,0,1,2.22-.23c.45,0,1,.06,1.5.12a6,6,0,0,1,.82,0,1.81,1.81,0,0,1,.61.29,6.89,6.89,0,0,1,.86.61l0,0a1.74,1.74,0,0,1,.64.94,4.35,4.35,0,0,1,.23,1,1.78,1.78,0,0,1,0,.71,4.76,4.76,0,0,1-.45.87,8.65,8.65,0,0,1-1.19,1.57,6.41,6.41,0,0,1-3.5,1.82,14.08,14.08,0,0,1-4.28.31,13.13,13.13,0,0,1-4.22-1.14,16.87,16.87,0,0,1-6.15-5,23.46,23.46,0,0,1-2-3c-.3-.52-.57-1.06-.84-1.6l-.37-.82c-.14-.31-.23-.53-.39-1l6.18,1.91a67.87,67.87,0,0,1-8.44,5.23l-1.16.57c-.4.19-.83.35-1.24.52a21.78,21.78,0,0,1-2.62.91,13.05,13.05,0,0,1-6.7.26,8.63,8.63,0,0,1-3.73-2.08,8.17,8.17,0,0,1-1.31-1.62,9.29,9.29,0,0,1-.87-1.68,16,16,0,0,1-1-6,32.94,32.94,0,0,1,.49-5.26c.14-.84.3-1.68.49-2.5s.39-1.6.67-2.53l1.53,4.29-2.14-1.55c-.72-.53-1.41-1.13-2.11-1.69s-1.36-1.25-2-1.88c-.33-.33-.66-.71-1-1.06a13.56,13.56,0,0,1-1-1.13l-.91-1.23c-.28-.46-.55-1-.82-1.42a11.64,11.64,0,0,1-1.15-3.43,9.4,9.4,0,0,1-.12-2,11.63,11.63,0,0,1,.34-2,10.21,10.21,0,0,1,1.81-3.38,16.24,16.24,0,0,1,4.93-3.92,32.65,32.65,0,0,1,5.08-2.18,50.41,50.41,0,0,1,5.1-1.43c1.72-.39,3.36-.71,5.19-1l-2.53,1.93,1.45-3c.48-1,1.13-1.94,1.68-2.9s1.33-1.87,2-2.8c.35-.45.79-.88,1.18-1.32a12.92,12.92,0,0,1,1.29-1.27,14,14,0,0,1,6.9-3.52,8.18,8.18,0,0,1,4.11.28,7.08,7.08,0,0,1,1.79,1,2,2,0,0,1,.66.89,3,3,0,0,1,.17,1.51.87.87,0,0,1-.37.66Z"/><path class="cls-3" d="M249.34,615.58c-.35-.3-.82-.67-1-.86l-.33-.34-.2-.26a1.9,1.9,0,0,1-.24-.72,1.81,1.81,0,0,1,.09-1.08,17.3,17.3,0,0,1,1-1.63c.73-1.07,1.51-2.12,2.38-3.16a22.16,22.16,0,0,1,3.12-3.06,12.55,12.55,0,0,1,2.26-1.41,7.94,7.94,0,0,1,3.57-.77,6.81,6.81,0,0,1,2.18.43,7.08,7.08,0,0,1,1.84,1c.25.21.5.42.74.64l.55.63c.17.21.36.44.5.65l.37.61a16.24,16.24,0,0,1,1.72,4.44,42.69,42.69,0,0,1,1.06,7.81l-2.73-3.79c.56.22.91.39,1.34.59s.81.39,1.2.6c.79.42,1.56.86,2.33,1.34a26.81,26.81,0,0,1,4.37,3.36,18.72,18.72,0,0,1,3.69,4.75,14.41,14.41,0,0,1,.68,1.49c.1.26.22.51.3.78l.21.82.2.83a1.14,1.14,0,0,1,0,.87,2.73,2.73,0,0,1-.87.91,3.4,3.4,0,0,1-2.07.79,5.09,5.09,0,0,1-1.29,0l-.24,0a11.21,11.21,0,0,1-2.17-.39,6.1,6.1,0,0,1-1-.26c-.19-.08-.15-.19-.2-.29l-.11-.31-.09-.31c0-.11-.11-.21-.16-.32s-.18-.42-.34-.63a11.44,11.44,0,0,0-2.24-2.53,20.68,20.68,0,0,0-3.17-2.27,19.25,19.25,0,0,0-1.78-1c-.3-.16-.6-.3-.91-.45l-.82-.36-.16-.07a4.33,4.33,0,0,1-2.57-3.72,43.6,43.6,0,0,0-.71-6.28,8.58,8.58,0,0,0-.7-2.21l-.08-.17,0-.05a.06.06,0,0,1,0-.06.11.11,0,0,0,.06.07,1.7,1.7,0,0,0,.77.24c.32,0,.24,0,.13,0a4.5,4.5,0,0,0-.77.44,13.54,13.54,0,0,0-2,1.83,30.72,30.72,0,0,0-2,2.42c-.34.42-.62.89-1,1.31a1.65,1.65,0,0,1-.88.41,2.5,2.5,0,0,1-.71,0l-.31-.07-.45-.16c-.23-.06-.78-.3-1.21-.47l-.13-.06A3.89,3.89,0,0,1,249.34,615.58Z"/><path class="cls-4" d="M275.56,635.64c-1-.33-5.26,4.6-12.16,3,0,0-.66,30.23-15.78,3.28"/><path class="cls-3" d="M226.4,613.78a3.77,3.77,0,0,1,.54-1.44,2.45,2.45,0,0,1,.77-.82,15,15,0,0,1,1.77-.94,15.91,15.91,0,0,1,3.84-1.09,22.42,22.42,0,0,1,8.64-.12,10.44,10.44,0,0,1,2.52.92,10.31,10.31,0,0,1,1.26.85,7.68,7.68,0,0,1,1.12,1.16,6.69,6.69,0,0,1,.84,1.39l.31.74a6.38,6.38,0,0,1,.19.72l.16.73c0,.24,0,.46.07.69a9.81,9.81,0,0,1,0,1.32,22.21,22.21,0,0,1-2.55,8.36l-.49-3.62a35.61,35.61,0,0,1,2.58,3.25,30.62,30.62,0,0,1,2.16,3.56,19,19,0,0,1,1.61,4.18,11.3,11.3,0,0,1,.12,5.27,9.1,9.1,0,0,1-3.11,4.92,13.55,13.55,0,0,1-4.42,2.34A30.62,30.62,0,0,1,236,647.4l3.09-1.87a40.92,40.92,0,0,1-2.61,4.09,30.79,30.79,0,0,1-3.18,3.78,17.31,17.31,0,0,1-4.48,3.33,10.32,10.32,0,0,1-3.32,1,8.55,8.55,0,0,1-3.86-.46,10.93,10.93,0,0,1-5.07-4.17,23.22,23.22,0,0,1-2.43-4.63,56.22,56.22,0,0,1-2.62-9.06l3.14,3.1c-.89-.17-1.57-.34-2.34-.54s-1.48-.41-2.22-.65a29.47,29.47,0,0,1-4.46-1.85,16.18,16.18,0,0,1-4.46-3.3,9.87,9.87,0,0,1-1.86-2.94,8,8,0,0,1-.53-1.86,10.53,10.53,0,0,1-.11-1.94,11.48,11.48,0,0,1,2.4-5.93,23,23,0,0,1,3.5-3.64,53,53,0,0,1,7.45-5.16l-2,3.42c0-1.37.12-2.54.24-3.82s.3-2.5.54-3.78a27.55,27.55,0,0,1,1-4,12.51,12.51,0,0,1,2.49-4.41,7.6,7.6,0,0,1,3-2,7,7,0,0,1,2-.36c.34,0,.67,0,1,0s.59.11.88.17a11.25,11.25,0,0,1,4.72,2.61,10,10,0,0,1,1.42,1.58,8,8,0,0,1,.93,1.82,16.36,16.36,0,0,1,.54,2,4.12,4.12,0,0,1,.14,1,3.42,3.42,0,0,1-.7,1.59,1.69,1.69,0,0,1-.95.66h0a4,4,0,0,1-1.72.18,4.09,4.09,0,0,1-.87-.39c-.54-.28-1.1-.5-1.6-.77a10.3,10.3,0,0,1-2.42-1.65,4.85,4.85,0,0,0-1.24-.82s0,0,0,0a.2.2,0,0,0,.13,0c.07,0,.24,0,.33-.08s.31-.21.23-.08a5.26,5.26,0,0,0-.83,1.65,21.06,21.06,0,0,0-.71,2.77,40.58,40.58,0,0,0-.62,6.21v0a4.13,4.13,0,0,1-2,3.41,46.17,46.17,0,0,0-6.25,4.32,15.88,15.88,0,0,0-2.27,2.34,3.75,3.75,0,0,0-.82,1.65c0,.11,0,.16,0,.28s.17.31.35.56a8.29,8.29,0,0,0,2.23,1.62,20.78,20.78,0,0,0,3.23,1.38c.57.2,1.16.39,1.76.55s1.25.32,1.72.42l.08,0a3.94,3.94,0,0,1,3.06,3.08,49.22,49.22,0,0,0,2.11,7.72,15.71,15.71,0,0,0,1.54,3.1,4,4,0,0,0,1.44,1.45c.15,0,.23.11.44.06a2.35,2.35,0,0,0,.85-.23,9.8,9.8,0,0,0,2.51-1.82,25.73,25.73,0,0,0,2.5-2.83,37,37,0,0,0,2.17-3.21l.06-.12a3.59,3.59,0,0,1,3-1.75,23.58,23.58,0,0,0,6.34-.74,6.91,6.91,0,0,0,2.16-1,2.21,2.21,0,0,0,.85-1.2c.32-1-.11-3-1.05-4.84a23.84,23.84,0,0,0-1.62-2.83,31.59,31.59,0,0,0-2-2.63l-.1-.11a3.17,3.17,0,0,1-.38-3.51,16.44,16.44,0,0,0,2-5.78,2.4,2.4,0,0,0-.23-1.48,2.22,2.22,0,0,0-1.42-.78,16.7,16.7,0,0,0-6.22.05,31.86,31.86,0,0,1-3.47.48q-.9.06-1.83.06a2.46,2.46,0,0,1-1-.27,4.16,4.16,0,0,1-1.24-.86l0,0A1.08,1.08,0,0,1,226.4,613.78Z"/><path class="cls-3" d="M184.93,639.25a2.81,2.81,0,0,1-2.38,1,13.09,13.09,0,0,1-1.8-.16c-1.15-.19-2.23-.53-3.29-.66a9.44,9.44,0,0,0-2.86,0,2.37,2.37,0,0,0-1.49.8,3.5,3.5,0,0,0-.57,2,12,12,0,0,0,.24,3.07,38.09,38.09,0,0,0,2,6.72,3,3,0,0,1-.29,2.76l-.05.07a39.36,39.36,0,0,0-3,5.37,13.54,13.54,0,0,0-.92,2.59,4.7,4.7,0,0,0-.14,1c0,.17.07.19-.08-.08a1,1,0,0,0-.42-.39s.13,0,.19,0,.3,0,.44,0a11.58,11.58,0,0,0,2.54-.58,45.67,45.67,0,0,0,5.74-2.44,3.18,3.18,0,0,1,4,1.07l.05.07a25.39,25.39,0,0,0,3.32,4,11.22,11.22,0,0,0,1.77,1.43,2.45,2.45,0,0,0,1.13.45c.06,0,0,0,0,0s0-.05.07,0a.4.4,0,0,1,.15-.14,6,6,0,0,0,.9-1.56,23.76,23.76,0,0,0,1.23-5,3.24,3.24,0,0,1,2.18-2.59h0a35.88,35.88,0,0,0,4.56-1.88,13.63,13.63,0,0,0,3.53-2.34c.36-.37.33-.56.3-.21,0,.08,0,.16,0,.2a.1.1,0,0,0,0,.05h0s0,0,0,0l-.07-.07-.06-.09-.13-.11a12.44,12.44,0,0,0-3.69-2h0a3.13,3.13,0,0,1-1.8-4,2.55,2.55,0,0,1,.13-.29c.1-.2.28-.61.4-.93s.26-.69.36-1a8.31,8.31,0,0,0,.37-2,3.51,3.51,0,0,0-.13-1.34,1.14,1.14,0,0,0-.48-.57,4,4,0,0,0-1.37-.45,10.68,10.68,0,0,0-2.08-.08c-1.53.11-3,.51-5.33-1.58a1,1,0,0,1-.31-.95l0-.17a3,3,0,0,1,.44-1.14,4.2,4.2,0,0,1,.59-.6,6.92,6.92,0,0,1,1.29-1,3.52,3.52,0,0,1,1.44-.45,15,15,0,0,1,1.53-.15,17.56,17.56,0,0,1,3.29.1,9.73,9.73,0,0,1,3.69,1.27,7.25,7.25,0,0,1,2.95,3.46,9.38,9.38,0,0,1,.61,4,14.56,14.56,0,0,1-.58,3.34,15.89,15.89,0,0,1-.5,1.52,16.36,16.36,0,0,1-.65,1.55l-1.68-4.33,1.4.56c.48.2,1,.44,1.43.66a13.43,13.43,0,0,1,2.94,2c.13.11.25.21.38.34l.38.44.36.44c.12.17.24.37.35.56a5.33,5.33,0,0,1,.31.58,6.52,6.52,0,0,1,.25.7,5.11,5.11,0,0,1,.25,1.53,5.71,5.71,0,0,1-.65,2.77,6.74,6.74,0,0,1-.61,1,7.36,7.36,0,0,1-.66.82,14.79,14.79,0,0,1-2.69,2.25,28.26,28.26,0,0,1-2.69,1.53,42.56,42.56,0,0,1-5.48,2.25l2.2-2.59a30,30,0,0,1-1.64,6.52,12.14,12.14,0,0,1-2.16,3.51c-.31.3-.62.59-.95.86a10.37,10.37,0,0,1-1.2.73,6.49,6.49,0,0,1-2.84.61,8.74,8.74,0,0,1-4.45-1.4,17.88,17.88,0,0,1-2.87-2.28,28.6,28.6,0,0,1-2.24-2.49c-.7-.88-1.31-1.69-2-2.7l4.08,1.14a51.88,51.88,0,0,1-6.65,2.72,17.53,17.53,0,0,1-4,.82c-.41,0-.79,0-1.24,0a8.11,8.11,0,0,1-1.45-.24,5.42,5.42,0,0,1-3.14-2.23,6.12,6.12,0,0,1-.9-3.29,11,11,0,0,1,.31-2.37,21,21,0,0,1,1.35-3.72,44.74,44.74,0,0,1,3.62-6.28l-.33,2.82a44.25,44.25,0,0,1-2.28-7.91,17.64,17.64,0,0,1-.26-4.54,9.21,9.21,0,0,1,1.87-5.15,6.74,6.74,0,0,1,1.09-1.11c.21-.16.41-.33.62-.47l.66-.38a9.1,9.1,0,0,1,2.65-.92,15.08,15.08,0,0,1,4.75,0,16.36,16.36,0,0,1,4.14,1.08,9.12,9.12,0,0,1,1.81,1.1,2.61,2.61,0,0,1,1.14,2.47,1.12,1.12,0,0,1-.37.84Z"/><path class="cls-3" d="M132.63,659.82A3.12,3.12,0,0,1,131.1,662a18.75,18.75,0,0,1-1.75.85c-1.18.5-2.39.78-3.55,1.17a26.83,26.83,0,0,0-3.31,1.3,8.1,8.1,0,0,0-2.3,1.5c-.19.2,0,.19,0-.1s0-.45,0-.3a3.05,3.05,0,0,1,.29.31l.51.39a4.44,4.44,0,0,0,.62.41,5,5,0,0,0,.69.41,42.59,42.59,0,0,0,6.7,2.74,3.28,3.28,0,0,1,2.07,4.14c0,.06-.05.12-.07.19l-.06.13a31,31,0,0,0-1.91,6.54,9.29,9.29,0,0,0-.08,2.69c0,.17.08.26.1.37s.05.13.06.09-.13-.17-.15-.15,0,0,.13,0a.31.31,0,0,1,.13,0l.23,0h.23l.3-.06a5.74,5.74,0,0,0,.63-.12,15,15,0,0,0,1.44-.47,16,16,0,0,0,1.52-.64,53.22,53.22,0,0,0,6.2-3.51,3.62,3.62,0,0,1,3.44-.27l.16.07,1.11.46c.4.15.8.29,1.21.42a19.08,19.08,0,0,0,2.39.61,9.85,9.85,0,0,0,2.14.18,3.06,3.06,0,0,0,1.26-.26.64.64,0,0,0,.32-.36,3.5,3.5,0,0,0,.27-1.34,16.27,16.27,0,0,0-.65-4.64,3.91,3.91,0,0,1,1.71-4.29l.09-.06c.25-.16.68-.44,1-.69s.71-.53,1.05-.81a15.64,15.64,0,0,0,1.8-1.72,7,7,0,0,0,1.11-1.6c.21-.47.18-.66.16-.7a1.68,1.68,0,0,0-.41-.56,7.08,7.08,0,0,0-1.56-1.13,24.59,24.59,0,0,0-4.93-1.94,4.09,4.09,0,0,1-2.92-3.88v-.06a20.8,20.8,0,0,0-.94-6.48,5.43,5.43,0,0,0-.41-.88c-.1-.12-.08,0,.2.09s.56.12.55.08-.11,0-.23.09-.27.13-.43.23a14.06,14.06,0,0,0-2.31,2l-1.2,1.32-1.17,1.42a14.56,14.56,0,0,1-2.51,2.9,16.6,16.6,0,0,1-1.82,1.12c-.74.3-.9,1-2.93.48h0a1.77,1.77,0,0,1-1-.63c-1.3-1.62-.72-2.08-.73-2.91a9.93,9.93,0,0,1,.44-2.22,12.79,12.79,0,0,1,2.23-3.65,28.54,28.54,0,0,1,6.74-6.63,14.3,14.3,0,0,1,1.35-.73,12.43,12.43,0,0,1,1.66-.6,7.41,7.41,0,0,1,4.51.32,7.93,7.93,0,0,1,3.25,2.67,12.18,12.18,0,0,1,1.41,2.71,22.3,22.3,0,0,1,1.14,4.82c.1.77.17,1.52.22,2.28s.08,1.46.08,2.34l-2.92-3.94a32.91,32.91,0,0,1,6.66,2.68,14.44,14.44,0,0,1,3.41,2.6,9.14,9.14,0,0,1,2.49,4.86,8.4,8.4,0,0,1,0,2.92c-.1.44-.21.88-.34,1.29s-.3.8-.47,1.15a15,15,0,0,1-2.43,3.52,25,25,0,0,1-2.75,2.55q-.7.57-1.44,1.08c-.51.36-.95.65-1.59,1l1.81-4.35a23.75,23.75,0,0,1,.79,7.08,10.87,10.87,0,0,1-1.15,4.37,8.39,8.39,0,0,1-3.81,3.73,10.52,10.52,0,0,1-4.48,1,17.77,17.77,0,0,1-3.76-.4,26.07,26.07,0,0,1-3.32-.93c-.53-.19-1.05-.38-1.57-.6s-1-.42-1.61-.72l3.6-.19a59.86,59.86,0,0,1-7.25,3.85c-.65.28-1.31.55-2,.79a19.49,19.49,0,0,1-2.23.64,11.36,11.36,0,0,1-1.26.22,6.08,6.08,0,0,1-.65.08l-.72,0h-.73l-.82-.1a6.89,6.89,0,0,1-1.72-.48,4.52,4.52,0,0,1-.88-.44,6.31,6.31,0,0,1-.84-.59,6.47,6.47,0,0,1-1.32-1.52,7.72,7.72,0,0,1-.78-1.62,10.37,10.37,0,0,1-.35-1.5,15.25,15.25,0,0,1,.19-4.94,29.79,29.79,0,0,1,1.08-4.16c.45-1.34.91-2.56,1.52-3.93l1.94,4.46a48,48,0,0,1-7.75-3.44,10.89,10.89,0,0,1-1-.63,11.52,11.52,0,0,1-1-.71c-.34-.28-.67-.54-1-.86a13.09,13.09,0,0,1-1-1.17,5.91,5.91,0,0,1-1.15-4,6.1,6.1,0,0,1,1.72-3.54,9.8,9.8,0,0,1,1.1-1c.35-.24.72-.52,1.07-.72a17.26,17.26,0,0,1,2.08-1.08,33.79,33.79,0,0,1,4-1.48,19.7,19.7,0,0,1,4-.93,14.57,14.57,0,0,1,2.09,0,2.94,2.94,0,0,1,2.33,1.41,1.08,1.08,0,0,1,.19,1Z"/><path class="cls-3" d="M90.83,681.47a1.86,1.86,0,0,1-1.49-.4,10,10,0,0,1-.74-.69c-.44-.47-.79-1-1.15-1.28a1.24,1.24,0,0,0-.54-.34s0,0,0,0l-.16.16-.19.24a11.82,11.82,0,0,0-1.39,3.38c-.36,1.31-.63,2.68-.88,4.06a2,2,0,0,1-.8,1.29l-.07.05a22,22,0,0,0-2.62,2.21,9.32,9.32,0,0,0-1,1.17,2.32,2.32,0,0,0-.39.74s0-.2-.06-.36,0-.13-.1-.16,0,0,0,0a3.67,3.67,0,0,0,1,.3,18.31,18.31,0,0,0,3.31.17,2.28,2.28,0,0,1,2.16,1.43l0,.11a15.62,15.62,0,0,0,1.58,3,5.63,5.63,0,0,0,.91,1c.28.22.42.23.31.2s0,0,.23-.21a4.59,4.59,0,0,0,.83-1,18.81,18.81,0,0,0,1.53-3.18,2.47,2.47,0,0,1,2.42-1.56h.06a30.23,30.23,0,0,0,3.43,0,14.67,14.67,0,0,0,1.59-.2,4.51,4.51,0,0,0,1.13-.31c.11,0,0-.06-.09.12a1.38,1.38,0,0,0-.29,1c0,.24.09.27,0,.19a3.34,3.34,0,0,0-.28-.36,15.78,15.78,0,0,0-2.47-2,2.53,2.53,0,0,1-.69-3.51l.06-.08,0,0a12.25,12.25,0,0,0,1.34-2.29,5.25,5.25,0,0,0,.32-1,1.15,1.15,0,0,0,0-.31c0,.09.21.22.11.15a3.54,3.54,0,0,0-.73-.18,3.71,3.71,0,0,1-1.26-.45c-.25-.12-.5-.29-.77-.42a1.56,1.56,0,0,1-.41-.25,3.19,3.19,0,0,1-.52-.86v0a1.18,1.18,0,0,1-.1-.71,2.44,2.44,0,0,1,.3-1,1.68,1.68,0,0,1,.41-.36,8,8,0,0,1,.88-.54,3.69,3.69,0,0,1,2-.39,7.22,7.22,0,0,1,2.44.68,4.74,4.74,0,0,1,2.3,2.51,5.6,5.6,0,0,1,.24,2.94,9.73,9.73,0,0,1-.64,2.13,16.53,16.53,0,0,1-2,3.41l-.6-3.63a20.08,20.08,0,0,1,3.39,2.74,7.93,7.93,0,0,1,.87,1.13,4.59,4.59,0,0,1,.71,1.92,3.88,3.88,0,0,1-.14,1.46,3.78,3.78,0,0,1-.69,1.29,4.74,4.74,0,0,1-1.59,1.21,9,9,0,0,1-2.48.74,18.52,18.52,0,0,1-2.15.23,32.87,32.87,0,0,1-4.09,0l2.48-1.56a23.16,23.16,0,0,1-2.07,4,9.29,9.29,0,0,1-1.77,2,5.6,5.6,0,0,1-1.43.91,4.32,4.32,0,0,1-.94.31,4.56,4.56,0,0,1-1,.1,5.25,5.25,0,0,1-3.33-1.36,10.13,10.13,0,0,1-1.73-2,19.47,19.47,0,0,1-2-4.19l2.2,1.55a22.3,22.3,0,0,1-4.26-.38,7.35,7.35,0,0,1-2.55-1,4.7,4.7,0,0,1-.73-.62,3.82,3.82,0,0,1-.65-.94,3.63,3.63,0,0,1-.32-2.2,6,6,0,0,1,1.23-2.66,13.1,13.1,0,0,1,1.52-1.67,27,27,0,0,1,3.26-2.59l-.87,1.33c.31-1.47.65-2.95,1.1-4.44a15.12,15.12,0,0,1,2.14-4.57c.16-.2.34-.4.51-.59s.44-.39.66-.57a3.94,3.94,0,0,1,2-.73,3.81,3.81,0,0,1,2,.43,5.45,5.45,0,0,1,1.31.94,6.71,6.71,0,0,1,1.59,2.11,5.6,5.6,0,0,1,.38,1.18,1.65,1.65,0,0,1-.51,1.56.7.7,0,0,1-.53.25Z"/></g></g></svg>