<?xml version="1.0" encoding="utf-8"?>
<!-- Generator: Adobe Illustrator 25.0.1, SVG Export Plug-In . SVG Version: 6.00 Build 0)  -->
<svg version="1.1" id="레이어_1" xmlns="http://www.w3.org/2000/svg" xmlns:xlink="http://www.w3.org/1999/xlink" x="0px"
	 y="0px" viewBox="0 0 271.6 271" style="enable-background:new 0 0 271.6 271;" xml:space="preserve">
<style type="text/css">
	.st0{fill:none;stroke:#F8F0DE;stroke-width:6.33;stroke-linecap:round;stroke-linejoin:round;}
	.st1{fill:#F8F0DE;stroke:#F8F0DE;stroke-miterlimit:10;}
</style>
<path class="st0" d="M61.2,192.8c-2.7,1.3-5.1,2.9-7.3,4.9"/>
<circle class="st1" cx="153.8" cy="162" r="3.5"/>
<circle class="st1" cx="167.8" cy="162" r="3.5"/>
<path class="st0" d="M262.2,191.5H240c0.2-0.9,0.3-1.8,0.3-2.7c0-8.4-6.8-15.2-15.2-15.2c-1.9,0-3.7,0.3-5.5,1
	c0-0.4,0.1-0.7,0.1-1.1c0-8.4-6.8-15.2-15.2-15.2c-3.4,0-6.7,1.1-9.4,3.2c5.7-11.3,5.9-24.5,0.6-36l0,0l0,0c-1.2-2.6-2.6-5-4.3-7.3
	c-18.7-34.3-5.4-52.3-5.4-52.3c-21.9,10.1-30.1,26.5-30.1,26.5c-0.8-44.1-54.7-69.5-54.7-69.5c12.8,23.4-5.5,45.2-19.9,62
	C66.3,102.6,55,125.3,57,149h0.1c0.4,6.7,1.8,13.4,4.3,19.6c-0.8,4.3-1.3,8.6-1.3,13c0,0.2,0,0.4,0,0.6H21.6c-4.3,0.2-7.6,3.7-7.4,8
	c0.1,4,3.4,7.3,7.4,7.4H54c-6,5.5-9.5,13.3-9.4,21.4c0,2.1,0.2,4.2,0.7,6.2H14.7c-6.3,0-11.4,5.1-11.4,11.4
	c0,6.3,5.1,11.4,11.4,11.4h154.2c6.3,0,11.4-5.1,11.4-11.4c0-3.8-1.9-7.4-5.1-9.5c2.8-2.9,5.3-6.1,7.4-9.5
	c9.5,7.4,23.3,5.7,30.7-3.8c2.2-2.8,3.7-6.2,4.3-9.8h44.5c3.5-0.1,6.2-3.1,6.1-6.6C268.2,194.3,265.5,191.7,262.2,191.5L262.2,191.5
	z"/>
<path class="st0" d="M173,133.7c-26.4-25.5-68.5-24.8-94.1,1.6c-14.7,15.2-21.3,36.6-17.7,57.5c9.6-4.6,21-3.5,29.6,2.8
	c7.1-17.9,27.3-26.6,45.1-19.5c17.9,7.1,26.6,27.3,19.5,45.1c-0.6,1.4-1.2,2.8-2,4.1h15.4c2.3,0,4.5,0.7,6.4,1.9
	c20.4-21.6,24-54.2,8.8-79.8"/>
<path class="st0" d="M175.2,227.2c-1.9-1.3-4.1-1.9-6.4-1.9h-15.4c9.4-16.8,3.3-38-13.4-47.3s-38-3.3-47.3,13.4
	c-0.7,1.3-1.4,2.7-2,4.1c-8.6-6.3-20-7.3-29.6-2.8"/>
<path class="st0" d="M127,216.1c0,0,7.2,0.4,7.2-10c0-8.6-9-12.8-16.1-10c-7.8,3.1-10.4,10.7-10.1,18.6c0.7,20.6,32.2,28.8,45,11"/>
</svg>
