<svg xmlns="http://www.w3.org/2000/svg" viewBox="0 0 271.6 231.62"><defs><style>.cls-1{fill:none;stroke:#000;stroke-linecap:round;stroke-linejoin:round;stroke-width:6.33px;}</style></defs><g id="레이어_2" data-name="레이어 2"><g id="레이어_3_이미지" data-name="레이어 3 이미지"><path class="cls-1" d="M61.09,173.08a29.34,29.34,0,0,0-7.3,4.94"/><circle cx="153.65" cy="142.36" r="3.54"/><circle cx="167.7" cy="142.36" r="3.54"/><path class="cls-1" d="M262.09,171.84H239.87a15.43,15.43,0,0,0,.26-2.74,15.21,15.21,0,0,0-20.69-14.2c0-.35.05-.69.05-1.05a15.18,15.18,0,0,0-24.51-12,41.6,41.6,0,0,0,.6-36h0l0,0a41.48,41.48,0,0,0-4.34-7.33c-18.72-34.27-5.36-52.34-5.36-52.34C164,56.27,155.79,72.67,155.79,72.67c-.78-44.12-54.66-69.5-54.66-69.5,12.77,23.42-5.52,45.17-19.87,62C66.24,82.88,55,105.55,57,129.28l.08,0a61.46,61.46,0,0,0,4.32,19.61,67.21,67.21,0,0,0-1.28,13c0,.2,0,.4,0,.6H21.54a7.72,7.72,0,0,0,0,15.43H53.91a29,29,0,0,0-9.44,21.45,28.57,28.57,0,0,0,.68,6.25H14.59a11.42,11.42,0,0,0,0,22.84H168.77a11.42,11.42,0,0,0,6.35-20.91,66.45,66.45,0,0,0,7.45-9.48,21.86,21.86,0,0,0,35-13.53h44.54a6.35,6.35,0,0,0,0-12.69Z"/><path class="cls-1" d="M172.92,114A66.54,66.54,0,0,0,61.09,173.08a29.1,29.1,0,0,1,29.59,2.78,34.78,34.78,0,1,1,62.71,29.75h15.38a11.44,11.44,0,0,1,6.35,1.93,66.58,66.58,0,0,0,8.77-79.76"/><path class="cls-1" d="M175.12,207.54a11.44,11.44,0,0,0-6.35-1.93H153.39a34.78,34.78,0,1,0-62.71-29.75,29.1,29.1,0,0,0-29.59-2.78"/><path class="cls-1" d="M126.92,196.44s7.25.39,7.25-10c0-8.6-9-12.78-16.09-10-7.76,3.05-10.36,10.7-10.11,18.62.65,20.63,32.19,28.76,45,11"/></g></g></svg>