<svg id="레이어_1" data-name="레이어 1" xmlns="http://www.w3.org/2000/svg" viewBox="0 0 989.48 729.81"><defs><style>.cls-1{opacity:0.53;}.cls-1,.cls-2{isolation:isolate;}.cls-3{fill:#939393;}.cls-4{fill:#4798b3;}.cls-5{fill:none;stroke:#000;stroke-width:8px;}</style></defs><g id="_魅" data-name=" 魅" class="cls-1"><g class="cls-2"><path class="cls-3" d="M510.13,733.68a121.4,121.4,0,0,0,35.4,15.87Q559,753.23,559,761a54.45,54.45,0,0,1-.73,7.57q-6.35,44.92-30.52,62Q511.84,842.33,475,846q-29.55,3.16-91.8,3.17-73.74,0-98.63-1.71t-36.38-6.83q-27.1-10-27.1-52.49V643.6h-21Q199.58,722,178.83,773q-15.14,37.11-47.36,73.24-6.34,8.06-10.5,8.06-3.42,0-6.34-7.57-7.34-21.24-20.51-32.47,33.69-32.71,47.12-66.41,16.11-40.27,16.84-104.24-14.4.24-26.36.73l-8.55.24c-2.77,0-4.39-.32-4.88-1s-.73-2.2-.73-4.64l1-48.83V503.7l-1-49.07c0-2.6.32-4.15,1-4.64s2.2-.73,4.64-.73l55.91,1h1q4.4-9.28,10-27.1a118,118,0,0,0,5.85-28.08A342.77,342.77,0,0,1,243,401.17q6.6,1.45,6.6,4.88a8.93,8.93,0,0,1-4.15,7.57,30.21,30.21,0,0,0-6.84,11.47q-1.47,3.18-6.35,14.16c-2.12,4.56-3.9,8.22-5.37,11h26.12l55.42-1c2.77,0,4.4.33,4.89,1s.73,2.11.73,4.39l-1,49.07v86.43l1,48.83c0,2.77-.33,4.39-1,4.88s-2.19.73-4.64.73l-13.91-.24q-14.42-.5-31.5-.73V777.14q0,13.18,3.18,18.07,2.19,3.66,8.3,5.37,17.08,6.1,107.66,6.1,94.49,0,112.31-14.4,8.53-7.56,12-23.68Q508.92,757.13,510.13,733.68ZM159.06,526.17H195V487.1H159.06Zm0,81.05H195V562.79H159.06ZM272.58,487.1H235v39.07h37.59Zm0,120.12V562.79H235v44.43ZM340.7,707.56q13.19,23.69,25.39,59.57a16.85,16.85,0,0,1,.73,3.91q0,2.19-5.12,4.64l-13.19,6.1a17.23,17.23,0,0,1-4.88,1.47q-1.71,0-2.93-4.64l-4.15-11.48q-23.44,7.08-43.46,11.48-9.51,2.45-12.94,5.12c-1.63,1.63-3.17,2.44-4.64,2.44s-2.93-1.86-3.9-5.61q-6.36-20-8.06-31.49h6.11q6.82-19.29,15.38-60.8a160.49,160.49,0,0,0,3.17-25.63A239.64,239.64,0,0,1,319,669.23q5.13,1.71,5.13,4.88c0,1.63-1,3.51-2.93,5.62q-1.71,1.71-5.62,12.94-7.82,29.3-15.87,53,12.46-1.95,26.86-5.37-5.13-12.69-9.52-21.73a15.71,15.71,0,0,1-1-4.15c0-1.3,1.55-2.69,4.64-4.15l12-5.13a15.73,15.73,0,0,1,4.4-1.46C338.17,703.66,339.4,705,340.7,707.56ZM406.13,399.7q23,.74,47.36,3.42,8.55,0,8.55,5.13,0,2.69-3.42,11-2.92,7.81-2.93,51H473l55.18-1c2.6,0,4.15.33,4.64,1,.49.81.73,2.44.73,4.88v32.71c0,2.61-.33,4.15-1,4.64s-2.11.74-4.39.74l-55.18-1H455.69v40.53H483l60.06-1c2.6,0,4.23.33,4.89,1,.48.65.73,2.11.73,4.39v33c0,2.77-.41,4.39-1.22,4.88-.49.49-2,.74-4.4.74l-60.06-1h-14.4a311.43,311.43,0,0,0,96,93,107.68,107.68,0,0,0-21,30q-5.13,11.48-8.54,11.47t-11-7.57q-45.66-45.65-71-95.46l3.67,152.59q0,5.37-5.13,5.37H414.67c-2.76,0-4.39-.32-4.88-1s-.73-2.12-.73-4.4q0-3.66,1.71-61.28,1.47-50,2-85.45a269.94,269.94,0,0,1-47.12,75q-5.13,7.57-9,7.57-3.42,0-6.35-7.08-7.08-13.18-21-26.37a267.87,267.87,0,0,0,67.38-86.42H392.7l-59.57,1c-2.6,0-4.23-.33-4.88-1-.49-.65-.73-2.2-.73-4.64v-33c0-2.6.4-4.15,1.22-4.64.49-.49,1.95-.73,4.39-.73l59.57,1h16.36V512.25H401l-53,1c-2.77,0-4.47-.33-5.12-1-.49-.65-.73-2.11-.73-4.4V475.14c0-2.77.32-4.47,1-5.13.65-.49,2.28-.73,4.88-.73l53,1h8.06v-8.55Q409.06,422.17,406.13,399.7Z" transform="translate(-94.12 -124.48)"/></g></g><g id="兒" class="cls-1"><g class="cls-2"><path class="cls-3" d="M769.39,609.29q6.42,4.55,21.4,8.43c3,.71,4.91,1.38,5.62,2a4.28,4.28,0,0,1,1.21,3.35,28.24,28.24,0,0,1-.27,3.21q-2.15,27.44-12.58,37.46a36,36,0,0,1-17.39,9Q757.21,675,738.48,675q-22.22,0-31.17-1.61t-13.25-5.75a21.9,21.9,0,0,1-6.15-11.1q-1.2-5.62-1.21-19V577.45H659.55q-3.22,41.73-26.63,66.49-20.2,21.4-57.66,33a28,28,0,0,1-6.42,1.07q-2.28,0-6-6.56a75.86,75.86,0,0,0-13.38-19.26q42.4-11.12,60.34-28.77,16.85-16.72,19.66-46H616.06l-38.13.53c-1.42,0-2.27-.18-2.54-.53a5,5,0,0,1-.4-2.54l.54-31V481.12q0-21.67-1.74-34.52a145.42,145.42,0,0,1,21.4,5.49,188.21,188.21,0,0,0,41.61-12.58,117.94,117.94,0,0,0,13.65-7.09A160.07,160.07,0,0,1,670.25,450q2.54,2.4,2.54,4.28,0,3.61-4.41,3.61a30.55,30.55,0,0,0-11,2.41,450.88,450.88,0,0,1-53.91,14.05v24.35h29.83l24.62-.54c1.25,0,2,.22,2.27.67a6.19,6.19,0,0,1,.41,2.94v18.87c0,2-.9,2.94-2.68,2.94L633.32,523H603.49v29.56H745v-30.1H712.66l-26,.54q-2.26,0-2.67-.54a4.6,4.6,0,0,1-.4-2.41v-19c0-1.69.18-2.72.53-3.07a5,5,0,0,1,2.54-.4l26,.53H745V471.22H712.66l-26.62.53c-1.43,0-2.28-.17-2.55-.53a4.71,4.71,0,0,1-.4-2.41V449c0-1.52.18-2.45.54-2.81a4.57,4.57,0,0,1,2.41-.4l26.62.53h30.9l27.16-.53c1.43,0,2.32.22,2.68.67a7.11,7.11,0,0,1,.27,2.54l-.4,28.23V546l.4,28.9c0,1.42-.16,2.29-.47,2.6s-1.14.47-2.48.47l-38.66-.53H716.27v51q0,12.84,2.68,15.52,3.21,3.62,21.4,3.61T763.63,641Q769,634.31,769.39,609.29Z" transform="translate(-94.12 -124.48)"/></g></g><g id="兒-2" data-name="兒" class="cls-1"><g class="cls-2"><path class="cls-3" d="M962.24,227.41a15.11,15.11,0,0,0,4.61,1.81,3.57,3.57,0,0,1,1.21.43.91.91,0,0,1,.26.72c0,.16,0,.39-.05.69q-.46,5.91-2.71,8.07a7.82,7.82,0,0,1-3.75,1.93,29.94,29.94,0,0,1-6.22.49,44.11,44.11,0,0,1-6.71-.34A5.31,5.31,0,0,1,946,240a4.65,4.65,0,0,1-1.33-2.39,22.48,22.48,0,0,1-.26-4.1V220.55h-5.85q-.69,9-5.73,14.32-4.35,4.6-12.42,7.11a5.56,5.56,0,0,1-1.38.23c-.33,0-.76-.47-1.3-1.41a15.9,15.9,0,0,0-2.88-4.15q9.14-2.39,13-6.19,3.63-3.6,4.23-9.91h-2.88l-8.21.11c-.31,0-.49,0-.55-.11a1.09,1.09,0,0,1-.08-.55l.11-6.68V199.81a58.08,58.08,0,0,0-.37-7.43,30.09,30.09,0,0,1,4.61,1.18,40.86,40.86,0,0,0,9-2.71,24.78,24.78,0,0,0,2.93-1.53,34.9,34.9,0,0,1,4.27,3.77,1.43,1.43,0,0,1,.54.93c0,.52-.31.77-1,.77a6.74,6.74,0,0,0-2.36.52,97.6,97.6,0,0,1-11.61,3v5.24H933l5.3-.11c.27,0,.43,0,.49.14a1.51,1.51,0,0,1,.08.63v4.07q0,.63-.57.63l-5.3-.12h-6.43v6.37H957v-6.48h-7l-5.59.11c-.33,0-.52,0-.58-.11a1.12,1.12,0,0,1-.08-.52V204.1a1.18,1.18,0,0,1,.11-.66,1.05,1.05,0,0,1,.55-.09l5.59.12h7v-5.79h-7l-5.73.11c-.31,0-.49,0-.55-.11a1,1,0,0,1-.09-.52v-4.27a.5.5,0,0,1,.64-.69l5.73.12h6.66l5.84-.12c.31,0,.5.05.58.15a1.45,1.45,0,0,1,.06.54l-.09,6.08v14.81l.09,6.22a1,1,0,0,1-.1.56.88.88,0,0,1-.54.1l-8.32-.11h-3.4v11c0,1.84.19,2.95.57,3.34s2,.77,4.61.77,4.29-.47,5-1.41S962.19,231,962.24,227.41Z" transform="translate(-94.12 -124.48)"/></g></g><g id="迷" class="cls-1"><g class="cls-2"><path class="cls-3" d="M966.92,175.73a9.54,9.54,0,0,0-1.37,4.08,3.15,3.15,0,0,1-.51,1.59,3.39,3.39,0,0,1-1.54.26q-8.94.51-19.22.51-9.43,0-12.89-1.42a11.88,11.88,0,0,1-5.72-4.86c-1.35,1.36-3.09,2.93-5.24,4.7a6.56,6.56,0,0,0-1.26,1.07,1,1,0,0,1-.76.51c-.28,0-.54-.24-.77-.72a46.49,46.49,0,0,1-2.26-5,33,33,0,0,0,3.25-1.72,25.91,25.91,0,0,0,4.35-3.57V158.89h-2.5l-3.89.14c-.32,0-.51-.05-.57-.14a.88.88,0,0,1-.1-.54v-4.19c0-.28,0-.45.13-.51a1.13,1.13,0,0,1,.54-.08l3.89.11h3.25l4.08-.11a.86.86,0,0,1,.54.11,1,1,0,0,1,.08.48l-.11,5.35v11.92a9,9,0,0,0,4.89,4.46c1.79.66,5.19,1,10.18,1Q955.36,176.88,966.92,175.73ZM921.69,134.8a43,43,0,0,1,6.88,8,1.1,1.1,0,0,1,.21.46c0,.14-.19.36-.56.64l-3,2.55a1.13,1.13,0,0,1-.67.38c-.16,0-.32-.13-.49-.38a41.28,41.28,0,0,0-6.74-8.59.67.67,0,0,1-.24-.38c0-.12.16-.31.49-.56l3-2.15a1.18,1.18,0,0,1,.64-.32C921.29,134.48,921.46,134.59,921.69,134.8Zm16.89,19.69-7.49.13c-.29,0-.46,0-.51-.11a1,1,0,0,1-.08-.51v-4.13c0-.36.2-.54.59-.54l7.49.11h5.78V139.18a36.42,36.42,0,0,0-.41-6.07q2.77,0,5.8.27c.56.07.84.26.84.56a3.11,3.11,0,0,1-.35,1.16,12.68,12.68,0,0,0-.32,3.78v10.56h7l7.57-.11c.41,0,.62.18.62.54V154a.86.86,0,0,1-.11.54,1,1,0,0,1-.51.08l-7.57-.13h-4.57a36.58,36.58,0,0,0,14,11.22,14.17,14.17,0,0,0-2.52,4c-.38.84-.67,1.26-.89,1.26a3,3,0,0,1-1.21-.54,37.18,37.18,0,0,1-12.06-12.62L950,174.2a1,1,0,0,1-.09.55.9.9,0,0,1-.52.09h-4.57c-.29,0-.46,0-.51-.1a1.19,1.19,0,0,1-.08-.54c0-.27,0-1.19,0-2.77q.24-7.35.33-13.43a38.75,38.75,0,0,1-10.85,12,3.61,3.61,0,0,1-1.21.72c-.22,0-.59-.39-1.1-1.15a15.92,15.92,0,0,0-2.64-3.25,38.7,38.7,0,0,0,12.81-11.79Zm-1.82-18.13a37.19,37.19,0,0,1,4.86,8.14,1.32,1.32,0,0,1,.13.45c0,.16-.23.36-.7.59l-3.41,1.83a1.21,1.21,0,0,1-.37.13c-.11,0-.23-.13-.35-.4a38.11,38.11,0,0,0-4.84-8.43.7.7,0,0,1-.21-.4c0-.17.21-.34.64-.54l3.15-1.53a1.49,1.49,0,0,1,.56-.19C936.36,136,936.54,136.13,936.76,136.36Zm15.6,9.24a36.37,36.37,0,0,0,4.24-7.6,12.94,12.94,0,0,0,.67-2.42,33.22,33.22,0,0,1,4.35,1.77c.81.45,1.21.8,1.21,1.05s-.18.45-.56.81a4.68,4.68,0,0,0-.81,1.23,68.47,68.47,0,0,1-3.65,6.2q-.72,1.05-1,1.05a6.19,6.19,0,0,1-1.05-.56A17.48,17.48,0,0,0,952.36,145.6Z" transform="translate(-94.12 -124.48)"/></g></g><path class="cls-4" d="M469,466.48l-54.79-145.6v145.6H331v-322h80.4l89.19,236.4,89.2-236.4h80v322H586.6V320.88l-54.8,145.6Z" transform="translate(-94.12 -124.48)"/><path class="cls-4" d="M709,144.48H918.6v68.8H795.8v53.6H902.2v69.2H795.8v62H921v68.4H709Z" transform="translate(-94.12 -124.48)"/><path class="cls-4" d="M1039.4,466.48H958.2v-79.6h81.2Z" transform="translate(-94.12 -124.48)"/><path class="cls-4" d="M982,500.48l101.6,322H996.4l-13.2-51.6h-90L880,822.48h-86.8l101.6-322Zm-43.6,93.6-28.8,112h57.2Z" transform="translate(-94.12 -124.48)"/><path class="cls-5" d="M454,450.48l-54.79-145.6v145.6H316v-322h80.4l89.19,236.4,89.2-236.4h80v322H571.6V304.88l-54.8,145.6Z" transform="translate(-94.12 -124.48)"/><path class="cls-5" d="M694,128.48H903.6v68.8H780.8v53.6H887.2v69.2H780.8v62H906v68.4H694Z" transform="translate(-94.12 -124.48)"/><path class="cls-5" d="M1024.4,450.48H943.2v-79.6h81.2Z" transform="translate(-94.12 -124.48)"/><path class="cls-5" d="M967,484.48l101.6,322H981.4l-13.2-51.6h-90L865,806.48h-86.8l101.6-322Zm-43.6,93.6-28.8,112h57.2Z" transform="translate(-94.12 -124.48)"/></svg>