<?xml version="1.0" encoding="utf-8"?>
<!-- Generator: Adobe Illustrator 25.0.1, SVG Export Plug-In . SVG Version: 6.00 Build 0)  -->
<svg version="1.1" id="레이어_1" xmlns="http://www.w3.org/2000/svg" xmlns:xlink="http://www.w3.org/1999/xlink" x="0px"
	 y="0px" viewBox="0 0 1302 833.1" style="enable-background:new 0 0 1302 833.1;" xml:space="preserve">
<style type="text/css">
	.st0{fill:#4798B3;}
	.st1{fill:#B95E4B;}
	.st2{fill:none;stroke:#000000;stroke-width:8;stroke-linecap:round;stroke-linejoin:round;}
</style>
<g id="그룹_157" transform="translate(130.001 -1019.079)">
	<path id="합치기_3" class="st0" d="M274.7,1715.2c-46.2,0-83.7-37.5-83.7-83.7s37.5-83.7,83.7-83.7l0,0h89.5
		c-3.8-13.3-5.7-27-5.7-40.7c0-82.1,66.6-148.6,148.8-148.6c19.8,0,39.4,3.9,57.7,11.6c31-49.7,85.5-79.9,144.1-79.8
		c70.9,0,134.3,44,159.1,110.4c3.1-0.2,6.3-0.3,9.5-0.3c81.8,0,148.2,66,148.8,147.5h61.8c46.2,0,83.7,37.5,83.7,83.7l0,0
		c0,46.2-37.5,83.7-83.7,83.7L274.7,1715.2L274.7,1715.2z"/>
	<g id="레이어_2_2_" transform="translate(-86.659 1043.694)">
		<g id="레이어_3_이미지_1_" transform="translate(0 0)">
			<path id="패스_1" class="st1" d="M189.1,568.2c-8.1,3.9-15.6,8.9-22.2,15"/>
			<ellipse id="타원_2" class="st1" cx="495.2" cy="465.3" rx="10.8" ry="10.8"/>
			<ellipse id="타원_3" class="st1" cx="541.6" cy="465.3" rx="10.8" ry="10.8"/>
			<path id="패스_2" class="st1" d="M851.9,563.1h-73.1c0.6-3,0.8-6.1,0.9-9.1c0-16.6-8.1-32.2-21.7-41.7
				c-13.6-9.4-31-11.5-46.3-5.5c0-1.2,0.2-2.3,0.2-3.5c0.1-19.2-10.8-36.8-28-45.4c-17.1-8.5-37.6-6.3-52.7,5.5
				c18.6-37.6,19.3-81.5,2-119.7l0,0c-3.9-8.6-8.7-16.8-14.3-24.4c-61.6-113.9-17.6-174-17.6-174c-72,33.5-99,88.1-99,88.1
				c-2.7-146.8-180-231.2-180-231.2c42,77.9-18.2,150.2-65.4,206.1c-49.4,58.9-86.4,134.3-79.8,213.2h0.3c1.2,22.4,6,44.4,14.2,65.2
				c-2.8,14.2-4.2,28.7-4.2,43.2v2h-127c-14.2,0.7-25.1,12.7-24.4,26.9c0.6,13.2,11.2,23.8,24.4,24.4h106.5
				c-25.2,23.5-36.2,58.5-28.8,92.1H37.6c-21,0.2-37.8,17.4-37.5,38.4C0.3,734.3,17,751,37.6,751.2h507.3
				c16.6-0.1,31.2-11,35.9-26.9c4.8-16-1.3-33.2-15-42.6c9.1-9.7,17.3-20.3,24.5-31.5c19.9,15.7,46.6,19.7,70.2,10.5
				c23.7-9.3,40.8-30.4,45-55.5H852c11.7-0.6,20.6-10.5,20-22.2C871.5,572.3,862.8,563.6,851.9,563.1L851.9,563.1z"/>
			<path id="패스_3" class="st1" d="M545,402.7c-80.5-77.8-208.8-75.6-286.6,4.9c-44.9,46.4-64.9,111.5-54,175.1
				c29.3-13.9,63.9-10.6,90.1,8.5c21.5-54.4,83.1-81,137.5-59.5c54.4,21.5,81,83.1,59.5,137.5c-1.7,4.3-3.7,8.5-6,12.6h46.9
				c6.9,0,13.6,2.1,19.3,5.9c62.2-65.9,73.1-165.1,26.7-242.9"/>
			<path id="패스_4" class="st1" d="M548.6,687.6c-5.7-3.8-12.5-5.9-19.3-5.9h-46.9c28.5-51.1,10.2-115.6-40.9-144.1
				c-51.1-28.5-115.6-10.2-144.1,40.9c-2.3,4.1-4.3,8.3-6,12.6c-26.2-19.1-60.8-22.4-90.1-8.5"/>
			<path id="패스_5" class="st1" d="M407.8,653.8c0,0,22.1,1.2,22.1-30.5c0-26.2-27.4-38.9-49-30.5c-23.6,9.3-31.6,32.6-30.8,56.7
				c2,62.8,98.1,87.6,137.1,33.5"/>
		</g>
	</g>
	<g id="레이어_2_1_">
		<g id="레이어_3_이미지">
			<path class="st2" d="M117.8,1592c-8.9,4.2-17,9.7-24.2,16.4"/>
			<circle cx="430" cy="1474" r="7.3"/>
			<circle cx="473" cy="1474" r="7.3"/>
			<path class="st2" d="M785.4,1587.9h-73.8c0.6-3,0.8-6,0.9-9.1c0-27.9-22.6-50.5-50.5-50.6c-6.2,0-12.4,1.1-18.2,3.4
				c0-1.2,0.2-2.3,0.2-3.5c0-27.8-22.5-50.5-50.3-50.5c-11.3,0-22.2,3.7-31.1,10.6c18.8-37.5,19.5-81.5,2-119.6l0,0l0,0
				c-4-8.6-8.8-16.7-14.4-24.3c-62.2-113.8-17.8-173.8-17.8-173.8c-72.7,33.5-99.9,88-99.9,88C429.9,1112,251,1027.7,251,1027.7
				c42.4,77.8-18.3,150-66,205.9c-49.9,58.8-87.2,134.1-80.6,212.9h0.3c1.2,22.3,6,44.4,14.3,65.1c-2.8,14.2-4.2,28.7-4.3,43.2
				c0,0.7,0,1.3,0,2H-13.6c-14.2,0.5-25.2,12.4-24.7,26.5c0.5,13.4,11.3,24.2,24.7,24.7H93.9c-20,18.3-31.4,44.1-31.4,71.2
				c0,7,0.7,13.9,2.3,20.8H-36.7c-20.9,0-37.9,17-37.9,37.9s17,37.9,37.9,37.9h512.1c20.9,0,37.9-17,37.9-37.9
				c0-12.7-6.3-24.5-16.8-31.5c9.2-9.7,17.5-20.3,24.7-31.5c31.6,24.7,77.2,19.1,101.9-12.5c7.4-9.5,12.3-20.6,14.3-32.4h148
				c11.6-0.5,20.7-10.3,20.2-21.9C805.2,1597.2,796.4,1588.3,785.4,1587.9L785.4,1587.9z"/>
			<path class="st2" d="M489.2,1395.8c-87.8-84.8-227.7-82.5-312.5,5.3c-48.9,50.6-70.8,121.5-58.9,190.9
				c32-15.1,69.7-11.6,98.3,9.2c23.5-59.3,90.6-88.4,149.9-64.9s88.4,90.6,64.9,149.9c-1.9,4.7-4,9.3-6.5,13.7h51
				c7.5,0,14.8,2.2,21.1,6.4c67.8-71.9,79.7-180,29.1-264.9"/>
			<path class="st2" d="M496.5,1706.4c-6.2-4.2-13.6-6.4-21.1-6.4h-51.1c31.1-55.7,11.1-126.1-44.6-157.2
				c-55.7-31.1-126.1-11.1-157.2,44.6c-2.5,4.4-4.7,9-6.5,13.7c-28.6-20.8-66.3-24.4-98.3-9.2"/>
			<path class="st2" d="M336.4,1669.6c0,0,24.1,1.3,24.1-33.2c0-28.6-29.9-42.4-53.4-33.2c-25.8,10.1-34.4,35.5-33.6,61.8
				c2.2,68.5,106.9,95.5,149.5,36.5"/>
		</g>
	</g>
	<path id="합치기_2" class="st0" d="M145.3,1695.5c34.4-14.4,74,1.8,88.4,36.2c5.9,14.1,6.9,29.8,2.7,44.5H277c21,0,38,17,38,38
		s-17,38-38,38H-92c-21,0-38-17-38-38s17-38,38-38h28c0.3-37.1,30.4-67,67.5-67c1.4,0,2.9,0,4.3,0.1c14.9-39.9,59.2-60.1,99.1-45.3
		C122.8,1670,136.3,1681.1,145.3,1695.5L145.3,1695.5z"/>
</g>
</svg>
